<ttFont>
    <TTGlyph name=".notdef" xMin="177" yMin="0" xMax="1593" yMax="1416">
      <contour>
        <pt x="177" y="1416" on="1"/>
        <pt x="1593" y="1416" on="1"/>
        <pt x="1593" y="0" on="1"/>
        <pt x="177" y="0" on="1"/>
      </contour>
      <contour>
        <pt x="559" y="252" on="1"/>
        <pt x="883" y="605" on="1"/>
        <pt x="1220" y="252" on="1"/>
        <pt x="1333" y="365" on="1"/>
        <pt x="985" y="708" on="1"/>
        <pt x="1333" y="1042" on="1"/>
        <pt x="1214" y="1158" on="1"/>
        <pt x="886" y="807" on="1"/>
        <pt x="553" y="1159" on="1"/>
        <pt x="439" y="1043" on="1"/>
        <pt x="783" y="705" on="1"/>
        <pt x="440" y="387" on="1"/>
      </contour>
    </TTGlyph>
    <TTGlyph name="A" xMin="-39" yMin="0" xMax="1446" yMax="1535">
      <contour>
        <pt x="-39" y="110" on="1"/>
        <pt x="90" y="138" on="1"/>
        <pt x="597" y="1535" on="1"/>
        <pt x="824" y="1535" on="1"/>
        <pt x="1318" y="137" on="1"/>
        <pt x="1446" y="110" on="1"/>
        <pt x="1446" y="0" on="1"/>
        <pt x="904" y="0" on="1"/>
        <pt x="904" y="110" on="1"/>
        <pt x="1067" y="138" on="1"/>
        <pt x="973" y="429" on="1"/>
        <pt x="377" y="429" on="1"/>
        <pt x="283" y="138" on="1"/>
        <pt x="452" y="110" on="1"/>
        <pt x="452" y="0" on="1"/>
        <pt x="-38" y="0" on="1"/>
      </contour>
      <contour>
        <pt x="931" y="557" on="1"/>
        <pt x="718" y="1218" on="1"/>
        <pt x="676" y="1380" on="1"/>
        <pt x="633" y="1218" on="1"/>
        <pt x="419" y="557" on="1"/>
      </contour>
    </TTGlyph>
    <TTGlyph name="AE" xMin="-174" yMin="0" xMax="1850" yMax="1522">
      <contour>
        <pt x="530" y="1385" on="1"/>
        <pt x="269" y="1412" on="1"/>
        <pt x="269" y="1522" on="1"/>
        <pt x="1675" y="1522" on="1"/>
        <pt x="1703" y="1211" on="1"/>
        <pt x="1574" y="1211" on="1"/>
        <pt x="1509" y="1395" on="1"/>
        <pt x="1034" y="1406" on="1"/>
        <pt x="1034" y="840" on="1"/>
        <pt x="1361" y="847" on="1"/>
        <pt x="1391" y="1010" on="1"/>
        <pt x="1525" y="1010" on="1"/>
        <pt x="1525" y="550" on="1"/>
        <pt x="1391" y="550" on="1"/>
        <pt x="1361" y="715" on="1"/>
        <pt x="1034" y="721" on="1"/>
        <pt x="1034" y="127" on="1"/>
        <pt x="1591" y="150" on="1"/>
        <pt x="1721" y="396" on="1"/>
        <pt x="1850" y="357" on="1"/>
        <pt x="1773" y="0" on="1"/>
        <pt x="641" y="0" on="1"/>
        <pt x="641" y="107" on="1"/>
        <pt x="809" y="133" on="1"/>
        <pt x="809" y="431" on="1"/>
        <pt x="296" y="431" on="1"/>
        <pt x="176" y="135" on="1"/>
        <pt x="322" y="106" on="1"/>
        <pt x="322" y="0" on="1"/>
        <pt x="-174" y="0" on="1"/>
        <pt x="-174" y="106" on="1"/>
        <pt x="-28" y="136" on="1"/>
      </contour>
      <contour>
        <pt x="809" y="560" on="1"/>
        <pt x="809" y="1397" on="1"/>
        <pt x="689" y="1397" on="1"/>
        <pt x="586" y="1148" on="1"/>
        <pt x="348" y="560" on="1"/>
      </contour>
    </TTGlyph>
    <TTGlyph name="AEacute" xMin="-174" yMin="0" xMax="1850" yMax="2014">
      <contour>
        <pt x="822" y="1701" on="1"/>
        <pt x="1156" y="2014" on="1"/>
        <pt x="1157" y="2014" on="1"/>
        <pt x="1309" y="1882" on="1"/>
        <pt x="1292" y="1858" on="0"/>
        <pt x="1232" y="1806" on="0"/>
        <pt x="1156" y="1755" on="0"/>
        <pt x="1071" y="1707" on="0"/>
        <pt x="992" y="1668" on="0"/>
        <pt x="923" y="1639" on="0"/>
        <pt x="901" y="1633" on="1"/>
        <pt x="900" y="1633" on="1"/>
      </contour>
      <contour>
        <pt x="530" y="1385" on="1"/>
        <pt x="269" y="1412" on="1"/>
        <pt x="269" y="1522" on="1"/>
        <pt x="1675" y="1522" on="1"/>
        <pt x="1703" y="1211" on="1"/>
        <pt x="1574" y="1211" on="1"/>
        <pt x="1509" y="1395" on="1"/>
        <pt x="1034" y="1406" on="1"/>
        <pt x="1034" y="840" on="1"/>
        <pt x="1361" y="847" on="1"/>
        <pt x="1391" y="1010" on="1"/>
        <pt x="1525" y="1010" on="1"/>
        <pt x="1525" y="550" on="1"/>
        <pt x="1391" y="550" on="1"/>
        <pt x="1361" y="715" on="1"/>
        <pt x="1034" y="721" on="1"/>
        <pt x="1034" y="127" on="1"/>
        <pt x="1591" y="150" on="1"/>
        <pt x="1721" y="396" on="1"/>
        <pt x="1850" y="357" on="1"/>
        <pt x="1773" y="0" on="1"/>
        <pt x="641" y="0" on="1"/>
        <pt x="641" y="107" on="1"/>
        <pt x="809" y="133" on="1"/>
        <pt x="809" y="431" on="1"/>
        <pt x="296" y="431" on="1"/>
        <pt x="176" y="135" on="1"/>
        <pt x="322" y="106" on="1"/>
        <pt x="322" y="0" on="1"/>
        <pt x="-174" y="0" on="1"/>
        <pt x="-174" y="106" on="1"/>
        <pt x="-28" y="136" on="1"/>
      </contour>
      <contour>
        <pt x="809" y="560" on="1"/>
        <pt x="809" y="1397" on="1"/>
        <pt x="689" y="1397" on="1"/>
        <pt x="586" y="1148" on="1"/>
        <pt x="348" y="560" on="1"/>
      </contour>
    </TTGlyph>
    <TTGlyph name="Aacute" xMin="-32" yMin="0" xMax="1453" yMax="2014">
      <contour>
        <pt x="-32" y="110" on="1"/>
        <pt x="97" y="138" on="1"/>
        <pt x="604" y="1535" on="1"/>
        <pt x="831" y="1535" on="1"/>
        <pt x="1325" y="137" on="1"/>
        <pt x="1453" y="110" on="1"/>
        <pt x="1453" y="0" on="1"/>
        <pt x="911" y="0" on="1"/>
        <pt x="911" y="110" on="1"/>
        <pt x="1074" y="138" on="1"/>
        <pt x="980" y="429" on="1"/>
        <pt x="384" y="429" on="1"/>
        <pt x="290" y="138" on="1"/>
        <pt x="459" y="110" on="1"/>
        <pt x="459" y="0" on="1"/>
        <pt x="-31" y="0" on="1"/>
      </contour>
      <contour>
        <pt x="938" y="557" on="1"/>
        <pt x="725" y="1218" on="1"/>
        <pt x="683" y="1380" on="1"/>
        <pt x="640" y="1218" on="1"/>
        <pt x="426" y="557" on="1"/>
      </contour>
      <contour>
        <pt x="579" y="1701" on="1"/>
        <pt x="913" y="2014" on="1"/>
        <pt x="914" y="2014" on="1"/>
        <pt x="1066" y="1882" on="1"/>
        <pt x="1049" y="1858" on="0"/>
        <pt x="989" y="1806" on="0"/>
        <pt x="913" y="1755" on="0"/>
        <pt x="828" y="1707" on="0"/>
        <pt x="749" y="1668" on="0"/>
        <pt x="680" y="1639" on="0"/>
        <pt x="658" y="1633" on="1"/>
        <pt x="657" y="1633" on="1"/>
      </contour>
    </TTGlyph>
    <TTGlyph name="Abreve" xMin="-32" yMin="0" xMax="1453" yMax="1997">
      <contour>
        <pt x="-32" y="110" on="1"/>
        <pt x="97" y="138" on="1"/>
        <pt x="604" y="1535" on="1"/>
        <pt x="831" y="1535" on="1"/>
        <pt x="1325" y="137" on="1"/>
        <pt x="1453" y="110" on="1"/>
        <pt x="1453" y="0" on="1"/>
        <pt x="911" y="0" on="1"/>
        <pt x="911" y="110" on="1"/>
        <pt x="1074" y="138" on="1"/>
        <pt x="980" y="429" on="1"/>
        <pt x="384" y="429" on="1"/>
        <pt x="290" y="138" on="1"/>
        <pt x="459" y="110" on="1"/>
        <pt x="459" y="0" on="1"/>
        <pt x="-31" y="0" on="1"/>
      </contour>
      <contour>
        <pt x="938" y="557" on="1"/>
        <pt x="725" y="1218" on="1"/>
        <pt x="683" y="1380" on="1"/>
        <pt x="640" y="1218" on="1"/>
        <pt x="426" y="557" on="1"/>
      </contour>
      <contour>
        <pt x="726" y="1643" on="1"/>
        <pt x="644" y="1643" on="0"/>
        <pt x="518" y="1692" on="0"/>
        <pt x="432" y="1776" on="0"/>
        <pt x="388" y="1890" on="0"/>
        <pt x="388" y="1955" on="1"/>
        <pt x="388" y="1966" on="0"/>
        <pt x="388" y="1986" on="0"/>
        <pt x="390" y="1997" on="1"/>
        <pt x="511" y="1997" on="1"/>
        <pt x="511" y="1993" on="0"/>
        <pt x="512" y="1979" on="0"/>
        <pt x="514" y="1970" on="1"/>
        <pt x="518" y="1950" on="0"/>
        <pt x="540" y="1897" on="0"/>
        <pt x="588" y="1849" on="0"/>
        <pt x="667" y="1816" on="0"/>
        <pt x="728" y="1816" on="1"/>
        <pt x="789" y="1816" on="0"/>
        <pt x="867" y="1850" on="0"/>
        <pt x="914" y="1898" on="0"/>
        <pt x="934" y="1951" on="0"/>
        <pt x="937" y="1971" on="1"/>
        <pt x="939" y="1981" on="0"/>
        <pt x="939" y="1993" on="0"/>
        <pt x="939" y="1997" on="1"/>
        <pt x="1057" y="1997" on="1"/>
        <pt x="1059" y="1986" on="0"/>
        <pt x="1059" y="1967" on="0"/>
        <pt x="1059" y="1956" on="1"/>
        <pt x="1059" y="1891" on="0"/>
        <pt x="1014" y="1777" on="0"/>
        <pt x="929" y="1692" on="0"/>
        <pt x="805" y="1643" on="0"/>
      </contour>
    </TTGlyph>
    <TTGlyph name="Acircumflex" xMin="-32" yMin="0" xMax="1453" yMax="2014">
      <contour>
        <pt x="-32" y="110" on="1"/>
        <pt x="97" y="138" on="1"/>
        <pt x="604" y="1535" on="1"/>
        <pt x="831" y="1535" on="1"/>
        <pt x="1325" y="137" on="1"/>
        <pt x="1453" y="110" on="1"/>
        <pt x="1453" y="0" on="1"/>
        <pt x="911" y="0" on="1"/>
        <pt x="911" y="110" on="1"/>
        <pt x="1074" y="138" on="1"/>
        <pt x="980" y="429" on="1"/>
        <pt x="384" y="429" on="1"/>
        <pt x="290" y="138" on="1"/>
        <pt x="459" y="110" on="1"/>
        <pt x="459" y="0" on="1"/>
        <pt x="-31" y="0" on="1"/>
      </contour>
      <contour>
        <pt x="938" y="557" on="1"/>
        <pt x="725" y="1218" on="1"/>
        <pt x="683" y="1380" on="1"/>
        <pt x="640" y="1218" on="1"/>
        <pt x="426" y="557" on="1"/>
      </contour>
      <contour>
        <pt x="362" y="1712" on="1"/>
        <pt x="627" y="2014" on="1"/>
        <pt x="819" y="2014" on="1"/>
        <pt x="1086" y="1714" on="1"/>
        <pt x="993" y="1655" on="1"/>
        <pt x="723" y="1853" on="1"/>
        <pt x="448" y="1655" on="1"/>
      </contour>
    </TTGlyph>
    <TTGlyph name="Adieresis" xMin="-32" yMin="0" xMax="1453" yMax="1991">
      <contour>
        <pt x="-32" y="110" on="1"/>
        <pt x="97" y="138" on="1"/>
        <pt x="604" y="1535" on="1"/>
        <pt x="831" y="1535" on="1"/>
        <pt x="1325" y="137" on="1"/>
        <pt x="1453" y="110" on="1"/>
        <pt x="1453" y="0" on="1"/>
        <pt x="911" y="0" on="1"/>
        <pt x="911" y="110" on="1"/>
        <pt x="1074" y="138" on="1"/>
        <pt x="980" y="429" on="1"/>
        <pt x="384" y="429" on="1"/>
        <pt x="290" y="138" on="1"/>
        <pt x="459" y="110" on="1"/>
        <pt x="459" y="0" on="1"/>
        <pt x="-31" y="0" on="1"/>
      </contour>
      <contour>
        <pt x="938" y="557" on="1"/>
        <pt x="725" y="1218" on="1"/>
        <pt x="683" y="1380" on="1"/>
        <pt x="640" y="1218" on="1"/>
        <pt x="426" y="557" on="1"/>
      </contour>
      <contour>
        <pt x="959" y="1690" on="1"/>
        <pt x="930" y="1690" on="0"/>
        <pt x="882" y="1711" on="0"/>
        <pt x="848" y="1749" on="0"/>
        <pt x="830" y="1800" on="0"/>
        <pt x="830" y="1829" on="1"/>
        <pt x="830" y="1861" on="0"/>
        <pt x="849" y="1919" on="0"/>
        <pt x="886" y="1964" on="0"/>
        <pt x="942" y="1991" on="0"/>
        <pt x="979" y="1991" on="1"/>
        <pt x="980" y="1991" on="1"/>
        <pt x="1013" y="1991" on="0"/>
        <pt x="1063" y="1967" on="0"/>
        <pt x="1098" y="1928" on="0"/>
        <pt x="1116" y="1877" on="0"/>
        <pt x="1116" y="1851" on="1"/>
        <pt x="1116" y="1817" on="0"/>
        <pt x="1096" y="1758" on="0"/>
        <pt x="1057" y="1715" on="0"/>
        <pt x="999" y="1690" on="0"/>
        <pt x="960" y="1690" on="1"/>
      </contour>
      <contour>
        <pt x="463" y="1690" on="1"/>
        <pt x="434" y="1690" on="0"/>
        <pt x="386" y="1711" on="0"/>
        <pt x="353" y="1749" on="0"/>
        <pt x="335" y="1800" on="0"/>
        <pt x="335" y="1829" on="1"/>
        <pt x="335" y="1861" on="0"/>
        <pt x="354" y="1919" on="0"/>
        <pt x="391" y="1964" on="0"/>
        <pt x="447" y="1991" on="0"/>
        <pt x="484" y="1991" on="1"/>
        <pt x="485" y="1991" on="1"/>
        <pt x="517" y="1991" on="0"/>
        <pt x="567" y="1967" on="0"/>
        <pt x="602" y="1928" on="0"/>
        <pt x="620" y="1877" on="0"/>
        <pt x="620" y="1851" on="1"/>
        <pt x="620" y="1817" on="0"/>
        <pt x="601" y="1758" on="0"/>
        <pt x="562" y="1715" on="0"/>
        <pt x="503" y="1690" on="0"/>
        <pt x="464" y="1690" on="1"/>
      </contour>
    </TTGlyph>
    <TTGlyph name="Agrave" xMin="-32" yMin="0" xMax="1453" yMax="2014">
      <contour>
        <pt x="-32" y="110" on="1"/>
        <pt x="97" y="138" on="1"/>
        <pt x="604" y="1535" on="1"/>
        <pt x="831" y="1535" on="1"/>
        <pt x="1325" y="137" on="1"/>
        <pt x="1453" y="110" on="1"/>
        <pt x="1453" y="0" on="1"/>
        <pt x="911" y="0" on="1"/>
        <pt x="911" y="110" on="1"/>
        <pt x="1074" y="138" on="1"/>
        <pt x="980" y="429" on="1"/>
        <pt x="384" y="429" on="1"/>
        <pt x="290" y="138" on="1"/>
        <pt x="459" y="110" on="1"/>
        <pt x="459" y="0" on="1"/>
        <pt x="-31" y="0" on="1"/>
      </contour>
      <contour>
        <pt x="938" y="557" on="1"/>
        <pt x="725" y="1218" on="1"/>
        <pt x="683" y="1380" on="1"/>
        <pt x="640" y="1218" on="1"/>
        <pt x="426" y="557" on="1"/>
      </contour>
      <contour>
        <pt x="835" y="1633" on="1"/>
        <pt x="813" y="1639" on="0"/>
        <pt x="744" y="1668" on="0"/>
        <pt x="664" y="1707" on="0"/>
        <pt x="580" y="1755" on="0"/>
        <pt x="504" y="1806" on="0"/>
        <pt x="443" y="1858" on="0"/>
        <pt x="427" y="1882" on="1"/>
        <pt x="579" y="2014" on="1"/>
        <pt x="580" y="2014" on="1"/>
        <pt x="913" y="1701" on="1"/>
        <pt x="836" y="1633" on="1"/>
        <pt x="835" y="1633" on="1"/>
      </contour>
    </TTGlyph>
    <TTGlyph name="Amacron" xMin="-32" yMin="0" xMax="1453" yMax="1912">
      <contour>
        <pt x="-32" y="110" on="1"/>
        <pt x="97" y="138" on="1"/>
        <pt x="604" y="1535" on="1"/>
        <pt x="831" y="1535" on="1"/>
        <pt x="1325" y="137" on="1"/>
        <pt x="1453" y="110" on="1"/>
        <pt x="1453" y="0" on="1"/>
        <pt x="911" y="0" on="1"/>
        <pt x="911" y="110" on="1"/>
        <pt x="1074" y="138" on="1"/>
        <pt x="980" y="429" on="1"/>
        <pt x="384" y="429" on="1"/>
        <pt x="290" y="138" on="1"/>
        <pt x="459" y="110" on="1"/>
        <pt x="459" y="0" on="1"/>
        <pt x="-31" y="0" on="1"/>
      </contour>
      <contour>
        <pt x="938" y="557" on="1"/>
        <pt x="725" y="1218" on="1"/>
        <pt x="683" y="1380" on="1"/>
        <pt x="640" y="1218" on="1"/>
        <pt x="426" y="557" on="1"/>
      </contour>
      <contour>
        <pt x="451" y="1912" on="1"/>
        <pt x="1008" y="1912" on="1"/>
        <pt x="1008" y="1751" on="1"/>
        <pt x="451" y="1751" on="1"/>
      </contour>
    </TTGlyph>
    <TTGlyph name="Aogonek" xMin="-39" yMin="-511" xMax="1446" yMax="1535">
      <contour>
        <pt x="-39" y="110" on="1"/>
        <pt x="90" y="138" on="1"/>
        <pt x="597" y="1535" on="1"/>
        <pt x="824" y="1535" on="1"/>
        <pt x="1318" y="137" on="1"/>
        <pt x="1446" y="110" on="1"/>
        <pt x="1446" y="0" on="1"/>
        <pt x="1286" y="0" on="1"/>
        <pt x="1237" y="-21" on="0"/>
        <pt x="1152" y="-82" on="0"/>
        <pt x="1089" y="-148" on="0"/>
        <pt x="1053" y="-214" on="0"/>
        <pt x="1053" y="-242" on="1"/>
        <pt x="1053" y="-275" on="0"/>
        <pt x="1076" y="-320" on="0"/>
        <pt x="1116" y="-349" on="0"/>
        <pt x="1169" y="-362" on="0"/>
        <pt x="1200" y="-362" on="1"/>
        <pt x="1235" y="-362" on="0"/>
        <pt x="1304" y="-346" on="0"/>
        <pt x="1338" y="-332" on="1"/>
        <pt x="1338" y="-441" on="1"/>
        <pt x="1317" y="-457" on="0"/>
        <pt x="1262" y="-483" on="0"/>
        <pt x="1200" y="-501" on="0"/>
        <pt x="1135" y="-511" on="0"/>
        <pt x="1104" y="-511" on="1"/>
        <pt x="1056" y="-511" on="0"/>
        <pt x="962" y="-491" on="0"/>
        <pt x="889" y="-445" on="0"/>
        <pt x="843" y="-370" on="0"/>
        <pt x="843" y="-315" on="1"/>
        <pt x="843" y="-274" on="0"/>
        <pt x="891" y="-183" on="0"/>
        <pt x="971" y="-96" on="0"/>
        <pt x="1075" y="-23" on="0"/>
        <pt x="1130" y="0" on="1"/>
        <pt x="904" y="0" on="1"/>
        <pt x="904" y="110" on="1"/>
        <pt x="1067" y="138" on="1"/>
        <pt x="973" y="429" on="1"/>
        <pt x="377" y="429" on="1"/>
        <pt x="283" y="138" on="1"/>
        <pt x="452" y="110" on="1"/>
        <pt x="452" y="0" on="1"/>
        <pt x="-38" y="0" on="1"/>
      </contour>
      <contour>
        <pt x="931" y="557" on="1"/>
        <pt x="718" y="1218" on="1"/>
        <pt x="676" y="1380" on="1"/>
        <pt x="633" y="1218" on="1"/>
        <pt x="419" y="557" on="1"/>
      </contour>
    </TTGlyph>
    <TTGlyph name="Aring" xMin="-39" yMin="0" xMax="1446" yMax="2014">
      <contour>
        <pt x="-39" y="110" on="1"/>
        <pt x="90" y="138" on="1"/>
        <pt x="592" y="1522" on="1"/>
        <pt x="540" y="1535" on="0"/>
        <pt x="464" y="1583" on="0"/>
        <pt x="414" y="1646" on="0"/>
        <pt x="391" y="1722" on="0"/>
        <pt x="392" y="1764" on="1"/>
        <pt x="393" y="1826" on="0"/>
        <pt x="453" y="1919" on="0"/>
        <pt x="548" y="1982" on="0"/>
        <pt x="669" y="2014" on="0"/>
        <pt x="731" y="2014" on="1"/>
        <pt x="732" y="2014" on="1"/>
        <pt x="810" y="2014" on="0"/>
        <pt x="929" y="1976" on="0"/>
        <pt x="1009" y="1908" on="0"/>
        <pt x="1049" y="1814" on="0"/>
        <pt x="1049" y="1759" on="1"/>
        <pt x="1048" y="1712" on="0"/>
        <pt x="1014" y="1634" on="0"/>
        <pt x="955" y="1574" on="0"/>
        <pt x="875" y="1532" on="0"/>
        <pt x="829" y="1521" on="1"/>
        <pt x="1318" y="137" on="1"/>
        <pt x="1446" y="110" on="1"/>
        <pt x="1446" y="0" on="1"/>
        <pt x="904" y="0" on="1"/>
        <pt x="904" y="110" on="1"/>
        <pt x="1067" y="138" on="1"/>
        <pt x="973" y="429" on="1"/>
        <pt x="377" y="429" on="1"/>
        <pt x="283" y="138" on="1"/>
        <pt x="452" y="110" on="1"/>
        <pt x="452" y="0" on="1"/>
        <pt x="-38" y="0" on="1"/>
      </contour>
      <contour>
        <pt x="723" y="1609" on="1"/>
        <pt x="769" y="1609" on="0"/>
        <pt x="831" y="1628" on="0"/>
        <pt x="870" y="1665" on="0"/>
        <pt x="887" y="1718" on="0"/>
        <pt x="887" y="1752" on="1"/>
        <pt x="887" y="1785" on="0"/>
        <pt x="869" y="1843" on="0"/>
        <pt x="830" y="1886" on="0"/>
        <pt x="768" y="1912" on="0"/>
        <pt x="724" y="1912" on="1"/>
        <pt x="723" y="1912" on="1"/>
        <pt x="632" y="1912" on="0"/>
        <pt x="554" y="1833" on="0"/>
        <pt x="554" y="1764" on="1"/>
        <pt x="554" y="1734" on="0"/>
        <pt x="574" y="1679" on="0"/>
        <pt x="615" y="1635" on="0"/>
        <pt x="678" y="1609" on="0"/>
        <pt x="722" y="1609" on="1"/>
      </contour>
      <contour>
        <pt x="931" y="557" on="1"/>
        <pt x="718" y="1218" on="1"/>
        <pt x="676" y="1380" on="1"/>
        <pt x="633" y="1218" on="1"/>
        <pt x="419" y="557" on="1"/>
      </contour>
    </TTGlyph>
    <TTGlyph name="Atilde" xMin="-32" yMin="0" xMax="1453" yMax="2011">
      <contour>
        <pt x="-32" y="110" on="1"/>
        <pt x="97" y="138" on="1"/>
        <pt x="604" y="1535" on="1"/>
        <pt x="831" y="1535" on="1"/>
        <pt x="1325" y="137" on="1"/>
        <pt x="1453" y="110" on="1"/>
        <pt x="1453" y="0" on="1"/>
        <pt x="911" y="0" on="1"/>
        <pt x="911" y="110" on="1"/>
        <pt x="1074" y="138" on="1"/>
        <pt x="980" y="429" on="1"/>
        <pt x="384" y="429" on="1"/>
        <pt x="290" y="138" on="1"/>
        <pt x="459" y="110" on="1"/>
        <pt x="459" y="0" on="1"/>
        <pt x="-31" y="0" on="1"/>
      </contour>
      <contour>
        <pt x="938" y="557" on="1"/>
        <pt x="725" y="1218" on="1"/>
        <pt x="683" y="1380" on="1"/>
        <pt x="640" y="1218" on="1"/>
        <pt x="426" y="557" on="1"/>
      </contour>
      <contour>
        <pt x="295" y="1796" on="1"/>
        <pt x="304" y="1830" on="0"/>
        <pt x="355" y="1905" on="0"/>
        <pt x="431" y="1969" on="0"/>
        <pt x="529" y="2011" on="0"/>
        <pt x="586" y="2011" on="1"/>
        <pt x="627" y="2011" on="0"/>
        <pt x="692" y="1987" on="0"/>
        <pt x="746" y="1950" on="0"/>
        <pt x="791" y="1907" on="0"/>
        <pt x="836" y="1870" on="0"/>
        <pt x="882" y="1846" on="0"/>
        <pt x="909" y="1846" on="1"/>
        <pt x="943" y="1846" on="0"/>
        <pt x="992" y="1874" on="0"/>
        <pt x="1025" y="1912" on="0"/>
        <pt x="1046" y="1952" on="0"/>
        <pt x="1054" y="1964" on="1"/>
        <pt x="1157" y="1901" on="1"/>
        <pt x="1142" y="1860" on="0"/>
        <pt x="1095" y="1782" on="0"/>
        <pt x="1028" y="1722" on="0"/>
        <pt x="942" y="1686" on="0"/>
        <pt x="890" y="1686" on="1"/>
        <pt x="849" y="1686" on="0"/>
        <pt x="784" y="1710" on="0"/>
        <pt x="728" y="1747" on="0"/>
        <pt x="680" y="1790" on="0"/>
        <pt x="631" y="1827" on="0"/>
        <pt x="581" y="1851" on="0"/>
        <pt x="551" y="1851" on="1"/>
        <pt x="517" y="1851" on="0"/>
        <pt x="466" y="1823" on="0"/>
        <pt x="429" y="1784" on="0"/>
        <pt x="404" y="1744" on="0"/>
        <pt x="397" y="1733" on="1"/>
      </contour>
    </TTGlyph>
    <TTGlyph name="B" xMin="100" yMin="-12" xMax="1316" yMax="1537">
      <contour>
        <pt x="100" y="110" on="1"/>
        <pt x="268" y="137" on="1"/>
        <pt x="268" y="1385" on="1"/>
        <pt x="104" y="1412" on="1"/>
        <pt x="104" y="1522" on="1"/>
        <pt x="382" y="1522" on="1"/>
        <pt x="428" y="1522" on="0"/>
        <pt x="508" y="1527" on="0"/>
        <pt x="581" y="1532" on="0"/>
        <pt x="652" y="1537" on="0"/>
        <pt x="691" y="1537" on="1"/>
        <pt x="830" y="1537" on="0"/>
        <pt x="1026" y="1492" on="0"/>
        <pt x="1150" y="1404" on="0"/>
        <pt x="1207" y="1276" on="0"/>
        <pt x="1207" y="1193" on="1"/>
        <pt x="1207" y="1121" on="0"/>
        <pt x="1168" y="995" on="0"/>
        <pt x="1093" y="894" on="0"/>
        <pt x="982" y="824" on="0"/>
        <pt x="910" y="809" on="1"/>
        <pt x="1002" y="811" on="0"/>
        <pt x="1152" y="762" on="0"/>
        <pt x="1258" y="669" on="0"/>
        <pt x="1316" y="538" on="0"/>
        <pt x="1316" y="457" on="1"/>
        <pt x="1316" y="397" on="0"/>
        <pt x="1291" y="280" on="0"/>
        <pt x="1232" y="176" on="0"/>
        <pt x="1138" y="88" on="0"/>
        <pt x="1001" y="24" on="0"/>
        <pt x="816" y="-12" on="0"/>
        <pt x="697" y="-12" on="1"/>
        <pt x="659" y="-12" on="0"/>
        <pt x="593" y="-8" on="0"/>
        <pt x="520" y="-4" on="0"/>
        <pt x="432" y="0" on="0"/>
        <pt x="372" y="0" on="1"/>
        <pt x="100" y="0" on="1"/>
      </contour>
      <contour>
        <pt x="496" y="856" on="1"/>
        <pt x="515" y="854" on="0"/>
        <pt x="567" y="852" on="0"/>
        <pt x="621" y="852" on="0"/>
        <pt x="672" y="852" on="0"/>
        <pt x="692" y="852" on="1"/>
        <pt x="842" y="852" on="0"/>
        <pt x="979" y="997" on="0"/>
        <pt x="979" y="1146" on="1"/>
        <pt x="979" y="1215" on="0"/>
        <pt x="948" y="1317" on="0"/>
        <pt x="876" y="1385" on="0"/>
        <pt x="756" y="1419" on="0"/>
        <pt x="667" y="1419" on="1"/>
        <pt x="594" y="1419" on="0"/>
        <pt x="516" y="1409" on="0"/>
        <pt x="496" y="1407" on="1"/>
      </contour>
      <contour>
        <pt x="496" y="125" on="1"/>
        <pt x="507" y="118" on="0"/>
        <pt x="551" y="111" on="0"/>
        <pt x="605" y="108" on="0"/>
        <pt x="664" y="107" on="0"/>
        <pt x="689" y="107" on="1"/>
        <pt x="793" y="107" on="0"/>
        <pt x="938" y="150" on="0"/>
        <pt x="1030" y="230" on="0"/>
        <pt x="1071" y="346" on="0"/>
        <pt x="1071" y="419" on="1"/>
        <pt x="1071" y="500" on="0"/>
        <pt x="1032" y="616" on="0"/>
        <pt x="946" y="690" on="0"/>
        <pt x="812" y="725" on="0"/>
        <pt x="716" y="725" on="1"/>
        <pt x="690" y="725" on="0"/>
        <pt x="629" y="725" on="0"/>
        <pt x="569" y="725" on="0"/>
        <pt x="515" y="724" on="0"/>
        <pt x="496" y="723" on="1"/>
      </contour>
    </TTGlyph>
    <TTGlyph name="C" xMin="66" yMin="-23" xMax="1256" yMax="1538">
      <contour>
        <pt x="66" y="765" on="1"/>
        <pt x="66" y="878" on="0"/>
        <pt x="119" y="1080" on="0"/>
        <pt x="215" y="1252" on="0"/>
        <pt x="351" y="1390" on="0"/>
        <pt x="516" y="1486" on="0"/>
        <pt x="707" y="1538" on="0"/>
        <pt x="810" y="1538" on="1"/>
        <pt x="876" y="1538" on="0"/>
        <pt x="1007" y="1522" on="0"/>
        <pt x="1122" y="1501" on="0"/>
        <pt x="1215" y="1480" on="0"/>
        <pt x="1244" y="1474" on="1"/>
        <pt x="1226" y="1121" on="1"/>
        <pt x="1081" y="1121" on="1"/>
        <pt x="1023" y="1352" on="1"/>
        <pt x="997" y="1381" on="0"/>
        <pt x="871" y="1417" on="0"/>
        <pt x="760" y="1417" on="1"/>
        <pt x="667" y="1417" on="0"/>
        <pt x="511" y="1335" on="0"/>
        <pt x="398" y="1176" on="0"/>
        <pt x="335" y="942" on="0"/>
        <pt x="335" y="791" on="1"/>
        <pt x="335" y="704" on="0"/>
        <pt x="357" y="534" on="0"/>
        <pt x="403" y="380" on="0"/>
        <pt x="474" y="248" on="0"/>
        <pt x="573" y="152" on="0"/>
        <pt x="701" y="97" on="0"/>
        <pt x="780" y="97" on="1"/>
        <pt x="835" y="97" on="0"/>
        <pt x="916" y="108" on="0"/>
        <pt x="976" y="127" on="0"/>
        <pt x="1018" y="156" on="0"/>
        <pt x="1034" y="174" on="1"/>
        <pt x="1127" y="371" on="1"/>
        <pt x="1256" y="351" on="1"/>
        <pt x="1207" y="56" on="1"/>
        <pt x="1166" y="54" on="0"/>
        <pt x="1089" y="28" on="0"/>
        <pt x="992" y="0" on="0"/>
        <pt x="864" y="-23" on="0"/>
        <pt x="772" y="-23" on="1"/>
        <pt x="602" y="-23" on="0"/>
        <pt x="339" y="90" on="0"/>
        <pt x="159" y="297" on="0"/>
        <pt x="66" y="588" on="0"/>
      </contour>
    </TTGlyph>
    <TTGlyph name="Cacute" xMin="85" yMin="-23" xMax="1275" yMax="2014">
      <contour>
        <pt x="85" y="765" on="1"/>
        <pt x="85" y="878" on="0"/>
        <pt x="138" y="1080" on="0"/>
        <pt x="234" y="1252" on="0"/>
        <pt x="370" y="1390" on="0"/>
        <pt x="535" y="1486" on="0"/>
        <pt x="726" y="1538" on="0"/>
        <pt x="829" y="1538" on="1"/>
        <pt x="895" y="1538" on="0"/>
        <pt x="1026" y="1522" on="0"/>
        <pt x="1141" y="1501" on="0"/>
        <pt x="1234" y="1480" on="0"/>
        <pt x="1263" y="1474" on="1"/>
        <pt x="1245" y="1121" on="1"/>
        <pt x="1100" y="1121" on="1"/>
        <pt x="1042" y="1352" on="1"/>
        <pt x="1016" y="1381" on="0"/>
        <pt x="890" y="1417" on="0"/>
        <pt x="779" y="1417" on="1"/>
        <pt x="686" y="1417" on="0"/>
        <pt x="530" y="1335" on="0"/>
        <pt x="417" y="1176" on="0"/>
        <pt x="354" y="942" on="0"/>
        <pt x="354" y="791" on="1"/>
        <pt x="354" y="704" on="0"/>
        <pt x="376" y="534" on="0"/>
        <pt x="422" y="380" on="0"/>
        <pt x="493" y="248" on="0"/>
        <pt x="592" y="152" on="0"/>
        <pt x="720" y="97" on="0"/>
        <pt x="799" y="97" on="1"/>
        <pt x="854" y="97" on="0"/>
        <pt x="935" y="108" on="0"/>
        <pt x="995" y="127" on="0"/>
        <pt x="1037" y="156" on="0"/>
        <pt x="1053" y="174" on="1"/>
        <pt x="1146" y="371" on="1"/>
        <pt x="1275" y="351" on="1"/>
        <pt x="1226" y="56" on="1"/>
        <pt x="1185" y="54" on="0"/>
        <pt x="1108" y="28" on="0"/>
        <pt x="1011" y="0" on="0"/>
        <pt x="883" y="-23" on="0"/>
        <pt x="791" y="-23" on="1"/>
        <pt x="621" y="-23" on="0"/>
        <pt x="358" y="90" on="0"/>
        <pt x="178" y="297" on="0"/>
        <pt x="85" y="588" on="0"/>
      </contour>
      <contour>
        <pt x="654" y="1701" on="1"/>
        <pt x="988" y="2014" on="1"/>
        <pt x="989" y="2014" on="1"/>
        <pt x="1141" y="1882" on="1"/>
        <pt x="1124" y="1858" on="0"/>
        <pt x="1064" y="1806" on="0"/>
        <pt x="988" y="1755" on="0"/>
        <pt x="903" y="1707" on="0"/>
        <pt x="824" y="1668" on="0"/>
        <pt x="755" y="1639" on="0"/>
        <pt x="733" y="1633" on="1"/>
        <pt x="732" y="1633" on="1"/>
      </contour>
    </TTGlyph>
    <TTGlyph name="Ccaron" xMin="85" yMin="-23" xMax="1275" yMax="2014">
      <contour>
        <pt x="85" y="765" on="1"/>
        <pt x="85" y="878" on="0"/>
        <pt x="138" y="1080" on="0"/>
        <pt x="234" y="1252" on="0"/>
        <pt x="370" y="1390" on="0"/>
        <pt x="535" y="1486" on="0"/>
        <pt x="726" y="1538" on="0"/>
        <pt x="829" y="1538" on="1"/>
        <pt x="895" y="1538" on="0"/>
        <pt x="1026" y="1522" on="0"/>
        <pt x="1141" y="1501" on="0"/>
        <pt x="1234" y="1480" on="0"/>
        <pt x="1263" y="1474" on="1"/>
        <pt x="1245" y="1121" on="1"/>
        <pt x="1100" y="1121" on="1"/>
        <pt x="1042" y="1352" on="1"/>
        <pt x="1016" y="1381" on="0"/>
        <pt x="890" y="1417" on="0"/>
        <pt x="779" y="1417" on="1"/>
        <pt x="686" y="1417" on="0"/>
        <pt x="530" y="1335" on="0"/>
        <pt x="417" y="1176" on="0"/>
        <pt x="354" y="942" on="0"/>
        <pt x="354" y="791" on="1"/>
        <pt x="354" y="704" on="0"/>
        <pt x="376" y="534" on="0"/>
        <pt x="422" y="380" on="0"/>
        <pt x="493" y="248" on="0"/>
        <pt x="592" y="152" on="0"/>
        <pt x="720" y="97" on="0"/>
        <pt x="799" y="97" on="1"/>
        <pt x="854" y="97" on="0"/>
        <pt x="935" y="108" on="0"/>
        <pt x="995" y="127" on="0"/>
        <pt x="1037" y="156" on="0"/>
        <pt x="1053" y="174" on="1"/>
        <pt x="1146" y="371" on="1"/>
        <pt x="1275" y="351" on="1"/>
        <pt x="1226" y="56" on="1"/>
        <pt x="1185" y="54" on="0"/>
        <pt x="1108" y="28" on="0"/>
        <pt x="1011" y="0" on="0"/>
        <pt x="883" y="-23" on="0"/>
        <pt x="791" y="-23" on="1"/>
        <pt x="621" y="-23" on="0"/>
        <pt x="358" y="90" on="0"/>
        <pt x="178" y="297" on="0"/>
        <pt x="85" y="588" on="0"/>
      </contour>
      <contour>
        <pt x="458" y="1954" on="1"/>
        <pt x="551" y="2014" on="1"/>
        <pt x="801" y="1830" on="1"/>
        <pt x="1059" y="2014" on="1"/>
        <pt x="1145" y="1957" on="1"/>
        <pt x="898" y="1679" on="1"/>
        <pt x="705" y="1679" on="1"/>
      </contour>
    </TTGlyph>
    <TTGlyph name="Ccedilla" xMin="85" yMin="-490" xMax="1275" yMax="1538">
      <contour>
        <pt x="558" y="-308" on="1"/>
        <pt x="579" y="-315" on="0"/>
        <pt x="629" y="-321" on="0"/>
        <pt x="640" y="-321" on="1"/>
        <pt x="641" y="-321" on="1"/>
        <pt x="674" y="-321" on="0"/>
        <pt x="725" y="-313" on="0"/>
        <pt x="760" y="-285" on="0"/>
        <pt x="777" y="-229" on="0"/>
        <pt x="777" y="-182" on="1"/>
        <pt x="777" y="-161" on="0"/>
        <pt x="769" y="-116" on="0"/>
        <pt x="756" y="-74" on="0"/>
        <pt x="740" y="-36" on="0"/>
        <pt x="733" y="-21" on="1"/>
        <pt x="577" y="-11" on="0"/>
        <pt x="335" y="110" on="0"/>
        <pt x="170" y="315" on="0"/>
        <pt x="85" y="595" on="0"/>
        <pt x="85" y="765" on="1"/>
        <pt x="85" y="878" on="0"/>
        <pt x="138" y="1080" on="0"/>
        <pt x="234" y="1252" on="0"/>
        <pt x="370" y="1390" on="0"/>
        <pt x="535" y="1486" on="0"/>
        <pt x="726" y="1538" on="0"/>
        <pt x="829" y="1538" on="1"/>
        <pt x="895" y="1538" on="0"/>
        <pt x="1026" y="1522" on="0"/>
        <pt x="1141" y="1501" on="0"/>
        <pt x="1234" y="1480" on="0"/>
        <pt x="1263" y="1474" on="1"/>
        <pt x="1245" y="1121" on="1"/>
        <pt x="1100" y="1121" on="1"/>
        <pt x="1042" y="1352" on="1"/>
        <pt x="1016" y="1381" on="0"/>
        <pt x="890" y="1417" on="0"/>
        <pt x="779" y="1417" on="1"/>
        <pt x="686" y="1417" on="0"/>
        <pt x="530" y="1335" on="0"/>
        <pt x="417" y="1176" on="0"/>
        <pt x="354" y="942" on="0"/>
        <pt x="354" y="791" on="1"/>
        <pt x="354" y="704" on="0"/>
        <pt x="376" y="534" on="0"/>
        <pt x="422" y="380" on="0"/>
        <pt x="493" y="248" on="0"/>
        <pt x="592" y="152" on="0"/>
        <pt x="720" y="97" on="0"/>
        <pt x="799" y="97" on="1"/>
        <pt x="854" y="97" on="0"/>
        <pt x="935" y="108" on="0"/>
        <pt x="995" y="127" on="0"/>
        <pt x="1037" y="156" on="0"/>
        <pt x="1053" y="174" on="1"/>
        <pt x="1146" y="371" on="1"/>
        <pt x="1275" y="351" on="1"/>
        <pt x="1226" y="56" on="1"/>
        <pt x="1188" y="54" on="0"/>
        <pt x="1118" y="32" on="0"/>
        <pt x="1034" y="6" on="0"/>
        <pt x="926" y="-17" on="0"/>
        <pt x="852" y="-21" on="1"/>
        <pt x="869" y="-42" on="0"/>
        <pt x="909" y="-101" on="0"/>
        <pt x="942" y="-173" on="0"/>
        <pt x="962" y="-253" on="0"/>
        <pt x="960" y="-294" on="1"/>
        <pt x="957" y="-349" on="0"/>
        <pt x="921" y="-424" on="0"/>
        <pt x="855" y="-470" on="0"/>
        <pt x="762" y="-490" on="0"/>
        <pt x="702" y="-490" on="1"/>
        <pt x="701" y="-490" on="1"/>
        <pt x="684" y="-490" on="0"/>
        <pt x="644" y="-486" on="0"/>
        <pt x="605" y="-479" on="0"/>
        <pt x="570" y="-469" on="0"/>
        <pt x="557" y="-463" on="1"/>
        <pt x="558" y="-308" on="1"/>
      </contour>
    </TTGlyph>
    <TTGlyph name="Ccircumflex" xMin="85" yMin="-23" xMax="1275" yMax="2014">
      <contour>
        <pt x="85" y="765" on="1"/>
        <pt x="85" y="878" on="0"/>
        <pt x="138" y="1080" on="0"/>
        <pt x="234" y="1252" on="0"/>
        <pt x="370" y="1390" on="0"/>
        <pt x="535" y="1486" on="0"/>
        <pt x="726" y="1538" on="0"/>
        <pt x="829" y="1538" on="1"/>
        <pt x="895" y="1538" on="0"/>
        <pt x="1026" y="1522" on="0"/>
        <pt x="1141" y="1501" on="0"/>
        <pt x="1234" y="1480" on="0"/>
        <pt x="1263" y="1474" on="1"/>
        <pt x="1245" y="1121" on="1"/>
        <pt x="1100" y="1121" on="1"/>
        <pt x="1042" y="1352" on="1"/>
        <pt x="1016" y="1381" on="0"/>
        <pt x="890" y="1417" on="0"/>
        <pt x="779" y="1417" on="1"/>
        <pt x="686" y="1417" on="0"/>
        <pt x="530" y="1335" on="0"/>
        <pt x="417" y="1176" on="0"/>
        <pt x="354" y="942" on="0"/>
        <pt x="354" y="791" on="1"/>
        <pt x="354" y="704" on="0"/>
        <pt x="376" y="534" on="0"/>
        <pt x="422" y="380" on="0"/>
        <pt x="493" y="248" on="0"/>
        <pt x="592" y="152" on="0"/>
        <pt x="720" y="97" on="0"/>
        <pt x="799" y="97" on="1"/>
        <pt x="854" y="97" on="0"/>
        <pt x="935" y="108" on="0"/>
        <pt x="995" y="127" on="0"/>
        <pt x="1037" y="156" on="0"/>
        <pt x="1053" y="174" on="1"/>
        <pt x="1146" y="371" on="1"/>
        <pt x="1275" y="351" on="1"/>
        <pt x="1226" y="56" on="1"/>
        <pt x="1185" y="54" on="0"/>
        <pt x="1108" y="28" on="0"/>
        <pt x="1011" y="0" on="0"/>
        <pt x="883" y="-23" on="0"/>
        <pt x="791" y="-23" on="1"/>
        <pt x="621" y="-23" on="0"/>
        <pt x="358" y="90" on="0"/>
        <pt x="178" y="297" on="0"/>
        <pt x="85" y="588" on="0"/>
      </contour>
      <contour>
        <pt x="437" y="1712" on="1"/>
        <pt x="702" y="2014" on="1"/>
        <pt x="894" y="2014" on="1"/>
        <pt x="1161" y="1714" on="1"/>
        <pt x="1068" y="1655" on="1"/>
        <pt x="798" y="1853" on="1"/>
        <pt x="523" y="1655" on="1"/>
      </contour>
    </TTGlyph>
    <TTGlyph name="Cdotaccent" xMin="85" yMin="-23" xMax="1275" yMax="2014">
      <contour>
        <pt x="786" y="1714" on="1"/>
        <pt x="757" y="1714" on="0"/>
        <pt x="709" y="1735" on="0"/>
        <pt x="675" y="1772" on="0"/>
        <pt x="657" y="1823" on="0"/>
        <pt x="657" y="1852" on="1"/>
        <pt x="657" y="1884" on="0"/>
        <pt x="676" y="1942" on="0"/>
        <pt x="713" y="1987" on="0"/>
        <pt x="769" y="2014" on="0"/>
        <pt x="806" y="2014" on="1"/>
        <pt x="807" y="2014" on="1"/>
        <pt x="840" y="2014" on="0"/>
        <pt x="890" y="1990" on="0"/>
        <pt x="925" y="1951" on="0"/>
        <pt x="943" y="1901" on="0"/>
        <pt x="943" y="1874" on="1"/>
        <pt x="943" y="1840" on="0"/>
        <pt x="923" y="1782" on="0"/>
        <pt x="884" y="1739" on="0"/>
        <pt x="826" y="1714" on="0"/>
        <pt x="787" y="1714" on="1"/>
        <pt x="786" y="1714" on="1"/>
      </contour>
      <contour>
        <pt x="85" y="765" on="1"/>
        <pt x="85" y="878" on="0"/>
        <pt x="138" y="1080" on="0"/>
        <pt x="234" y="1252" on="0"/>
        <pt x="370" y="1390" on="0"/>
        <pt x="535" y="1486" on="0"/>
        <pt x="726" y="1538" on="0"/>
        <pt x="829" y="1538" on="1"/>
        <pt x="895" y="1538" on="0"/>
        <pt x="1026" y="1522" on="0"/>
        <pt x="1141" y="1501" on="0"/>
        <pt x="1234" y="1480" on="0"/>
        <pt x="1263" y="1474" on="1"/>
        <pt x="1245" y="1121" on="1"/>
        <pt x="1100" y="1121" on="1"/>
        <pt x="1042" y="1352" on="1"/>
        <pt x="1016" y="1381" on="0"/>
        <pt x="890" y="1417" on="0"/>
        <pt x="779" y="1417" on="1"/>
        <pt x="686" y="1417" on="0"/>
        <pt x="530" y="1335" on="0"/>
        <pt x="417" y="1176" on="0"/>
        <pt x="354" y="942" on="0"/>
        <pt x="354" y="791" on="1"/>
        <pt x="354" y="704" on="0"/>
        <pt x="376" y="534" on="0"/>
        <pt x="422" y="380" on="0"/>
        <pt x="493" y="248" on="0"/>
        <pt x="592" y="152" on="0"/>
        <pt x="720" y="97" on="0"/>
        <pt x="799" y="97" on="1"/>
        <pt x="854" y="97" on="0"/>
        <pt x="935" y="108" on="0"/>
        <pt x="995" y="127" on="0"/>
        <pt x="1037" y="156" on="0"/>
        <pt x="1053" y="174" on="1"/>
        <pt x="1146" y="371" on="1"/>
        <pt x="1275" y="351" on="1"/>
        <pt x="1226" y="56" on="1"/>
        <pt x="1185" y="54" on="0"/>
        <pt x="1108" y="28" on="0"/>
        <pt x="1011" y="0" on="0"/>
        <pt x="883" y="-23" on="0"/>
        <pt x="791" y="-23" on="1"/>
        <pt x="621" y="-23" on="0"/>
        <pt x="358" y="90" on="0"/>
        <pt x="178" y="297" on="0"/>
        <pt x="85" y="588" on="0"/>
      </contour>
    </TTGlyph>
    <TTGlyph name="D" xMin="100" yMin="-20" xMax="1488" yMax="1537">
      <contour>
        <pt x="100" y="110" on="1"/>
        <pt x="268" y="137" on="1"/>
        <pt x="268" y="1385" on="1"/>
        <pt x="112" y="1412" on="1"/>
        <pt x="112" y="1522" on="1"/>
        <pt x="382" y="1522" on="1"/>
        <pt x="471" y="1522" on="0"/>
        <pt x="643" y="1537" on="0"/>
        <pt x="741" y="1537" on="1"/>
        <pt x="939" y="1537" on="0"/>
        <pt x="1222" y="1434" on="0"/>
        <pt x="1403" y="1243" on="0"/>
        <pt x="1488" y="974" on="0"/>
        <pt x="1488" y="808" on="1"/>
        <pt x="1488" y="620" on="0"/>
        <pt x="1374" y="313" on="0"/>
        <pt x="1169" y="95" on="0"/>
        <pt x="884" y="-20" on="0"/>
        <pt x="713" y="-16" on="1"/>
        <pt x="676" y="-15" on="0"/>
        <pt x="593" y="-10" on="0"/>
        <pt x="508" y="-4" on="0"/>
        <pt x="424" y="0" on="0"/>
        <pt x="385" y="0" on="1"/>
        <pt x="100" y="0" on="1"/>
      </contour>
      <contour>
        <pt x="498" y="123" on="1"/>
        <pt x="552" y="107" on="0"/>
        <pt x="669" y="103" on="0"/>
        <pt x="737" y="105" on="1"/>
        <pt x="846" y="108" on="0"/>
        <pt x="1032" y="193" on="0"/>
        <pt x="1167" y="357" on="0"/>
        <pt x="1244" y="601" on="0"/>
        <pt x="1244" y="763" on="1"/>
        <pt x="1244" y="1418" on="0"/>
        <pt x="673" y="1418" on="1"/>
        <pt x="606" y="1418" on="0"/>
        <pt x="521" y="1409" on="0"/>
        <pt x="498" y="1406" on="1"/>
      </contour>
    </TTGlyph>
    <TTGlyph name="Dcaron" xMin="100" yMin="-20" xMax="1488" yMax="2014">
      <contour>
        <pt x="470" y="1954" on="1"/>
        <pt x="563" y="2014" on="1"/>
        <pt x="813" y="1830" on="1"/>
        <pt x="1071" y="2014" on="1"/>
        <pt x="1157" y="1957" on="1"/>
        <pt x="910" y="1679" on="1"/>
        <pt x="717" y="1679" on="1"/>
      </contour>
      <contour>
        <pt x="100" y="110" on="1"/>
        <pt x="268" y="137" on="1"/>
        <pt x="268" y="1385" on="1"/>
        <pt x="112" y="1412" on="1"/>
        <pt x="112" y="1522" on="1"/>
        <pt x="382" y="1522" on="1"/>
        <pt x="471" y="1522" on="0"/>
        <pt x="643" y="1537" on="0"/>
        <pt x="741" y="1537" on="1"/>
        <pt x="939" y="1537" on="0"/>
        <pt x="1222" y="1434" on="0"/>
        <pt x="1403" y="1243" on="0"/>
        <pt x="1488" y="974" on="0"/>
        <pt x="1488" y="808" on="1"/>
        <pt x="1488" y="620" on="0"/>
        <pt x="1374" y="313" on="0"/>
        <pt x="1169" y="95" on="0"/>
        <pt x="884" y="-20" on="0"/>
        <pt x="713" y="-16" on="1"/>
        <pt x="676" y="-15" on="0"/>
        <pt x="593" y="-10" on="0"/>
        <pt x="508" y="-4" on="0"/>
        <pt x="424" y="0" on="0"/>
        <pt x="385" y="0" on="1"/>
        <pt x="100" y="0" on="1"/>
      </contour>
      <contour>
        <pt x="498" y="123" on="1"/>
        <pt x="552" y="107" on="0"/>
        <pt x="669" y="103" on="0"/>
        <pt x="737" y="105" on="1"/>
        <pt x="846" y="108" on="0"/>
        <pt x="1032" y="193" on="0"/>
        <pt x="1167" y="357" on="0"/>
        <pt x="1244" y="601" on="0"/>
        <pt x="1244" y="763" on="1"/>
        <pt x="1244" y="1418" on="0"/>
        <pt x="673" y="1418" on="1"/>
        <pt x="606" y="1418" on="0"/>
        <pt x="521" y="1409" on="0"/>
        <pt x="498" y="1406" on="1"/>
      </contour>
    </TTGlyph>
    <TTGlyph name="Dcroat" xMin="100" yMin="-20" xMax="1488" yMax="1537">
      <contour>
        <pt x="100" y="110" on="1"/>
        <pt x="268" y="137" on="1"/>
        <pt x="268" y="734" on="1"/>
        <pt x="115" y="734" on="1"/>
        <pt x="115" y="853" on="1"/>
        <pt x="268" y="853" on="1"/>
        <pt x="268" y="1385" on="1"/>
        <pt x="112" y="1412" on="1"/>
        <pt x="112" y="1522" on="1"/>
        <pt x="382" y="1522" on="1"/>
        <pt x="471" y="1522" on="0"/>
        <pt x="643" y="1537" on="0"/>
        <pt x="741" y="1537" on="1"/>
        <pt x="939" y="1537" on="0"/>
        <pt x="1222" y="1434" on="0"/>
        <pt x="1403" y="1243" on="0"/>
        <pt x="1488" y="974" on="0"/>
        <pt x="1488" y="808" on="1"/>
        <pt x="1488" y="620" on="0"/>
        <pt x="1374" y="313" on="0"/>
        <pt x="1169" y="95" on="0"/>
        <pt x="884" y="-20" on="0"/>
        <pt x="713" y="-16" on="1"/>
        <pt x="676" y="-15" on="0"/>
        <pt x="593" y="-10" on="0"/>
        <pt x="508" y="-4" on="0"/>
        <pt x="424" y="0" on="0"/>
        <pt x="385" y="0" on="1"/>
        <pt x="100" y="0" on="1"/>
      </contour>
      <contour>
        <pt x="498" y="123" on="1"/>
        <pt x="552" y="107" on="0"/>
        <pt x="669" y="103" on="0"/>
        <pt x="737" y="105" on="1"/>
        <pt x="846" y="108" on="0"/>
        <pt x="1032" y="193" on="0"/>
        <pt x="1167" y="357" on="0"/>
        <pt x="1244" y="601" on="0"/>
        <pt x="1244" y="763" on="1"/>
        <pt x="1244" y="1418" on="0"/>
        <pt x="673" y="1418" on="1"/>
        <pt x="606" y="1418" on="0"/>
        <pt x="521" y="1409" on="0"/>
        <pt x="498" y="1406" on="1"/>
        <pt x="498" y="853" on="1"/>
        <pt x="836" y="853" on="1"/>
        <pt x="836" y="734" on="1"/>
        <pt x="498" y="734" on="1"/>
      </contour>
    </TTGlyph>
    <TTGlyph name="Delta" xMin="145" yMin="1" xMax="1624" yMax="1516">
      <contour>
        <pt x="835" y="1516" on="1"/>
        <pt x="874" y="1516" on="1"/>
        <pt x="1624" y="30" on="1"/>
        <pt x="1605" y="1" on="1"/>
        <pt x="162" y="1" on="1"/>
        <pt x="145" y="25" on="1"/>
      </contour>
      <contour>
        <pt x="1307" y="172" on="1"/>
        <pt x="816" y="1168" on="1"/>
        <pt x="368" y="172" on="1"/>
      </contour>
    </TTGlyph>
    <TTGlyph name="Deltagreek" xMin="145" yMin="1" xMax="1624" yMax="1516">
      <contour>
        <pt x="835" y="1516" on="1"/>
        <pt x="874" y="1516" on="1"/>
        <pt x="1624" y="30" on="1"/>
        <pt x="1605" y="1" on="1"/>
        <pt x="162" y="1" on="1"/>
        <pt x="145" y="25" on="1"/>
      </contour>
      <contour>
        <pt x="1307" y="172" on="1"/>
        <pt x="816" y="1168" on="1"/>
        <pt x="368" y="172" on="1"/>
      </contour>
    </TTGlyph>
    <TTGlyph name="E" xMin="100" yMin="0" xMax="1287" yMax="1522">
      <contour>
        <pt x="100" y="110" on="1"/>
        <pt x="268" y="137" on="1"/>
        <pt x="268" y="1385" on="1"/>
        <pt x="104" y="1412" on="1"/>
        <pt x="104" y="1522" on="1"/>
        <pt x="1135" y="1522" on="1"/>
        <pt x="1162" y="1212" on="1"/>
        <pt x="1034" y="1212" on="1"/>
        <pt x="969" y="1394" on="1"/>
        <pt x="498" y="1406" on="1"/>
        <pt x="498" y="840" on="1"/>
        <pt x="822" y="847" on="1"/>
        <pt x="853" y="1010" on="1"/>
        <pt x="989" y="1010" on="1"/>
        <pt x="989" y="550" on="1"/>
        <pt x="853" y="550" on="1"/>
        <pt x="823" y="715" on="1"/>
        <pt x="498" y="721" on="1"/>
        <pt x="498" y="128" on="1"/>
        <pt x="1044" y="150" on="1"/>
        <pt x="1159" y="395" on="1"/>
        <pt x="1287" y="357" on="1"/>
        <pt x="1226" y="0" on="1"/>
        <pt x="100" y="0" on="1"/>
      </contour>
    </TTGlyph>
    <TTGlyph name="Eacute" xMin="100" yMin="0" xMax="1287" yMax="2014">
      <contour>
        <pt x="553" y="1701" on="1"/>
        <pt x="887" y="2014" on="1"/>
        <pt x="888" y="2014" on="1"/>
        <pt x="1040" y="1882" on="1"/>
        <pt x="1023" y="1858" on="0"/>
        <pt x="963" y="1806" on="0"/>
        <pt x="887" y="1755" on="0"/>
        <pt x="802" y="1707" on="0"/>
        <pt x="723" y="1668" on="0"/>
        <pt x="654" y="1639" on="0"/>
        <pt x="632" y="1633" on="1"/>
        <pt x="631" y="1633" on="1"/>
      </contour>
      <contour>
        <pt x="100" y="110" on="1"/>
        <pt x="268" y="137" on="1"/>
        <pt x="268" y="1385" on="1"/>
        <pt x="104" y="1412" on="1"/>
        <pt x="104" y="1522" on="1"/>
        <pt x="1135" y="1522" on="1"/>
        <pt x="1162" y="1212" on="1"/>
        <pt x="1034" y="1212" on="1"/>
        <pt x="969" y="1394" on="1"/>
        <pt x="498" y="1406" on="1"/>
        <pt x="498" y="840" on="1"/>
        <pt x="822" y="847" on="1"/>
        <pt x="853" y="1010" on="1"/>
        <pt x="989" y="1010" on="1"/>
        <pt x="989" y="550" on="1"/>
        <pt x="853" y="550" on="1"/>
        <pt x="823" y="715" on="1"/>
        <pt x="498" y="721" on="1"/>
        <pt x="498" y="128" on="1"/>
        <pt x="1044" y="150" on="1"/>
        <pt x="1159" y="395" on="1"/>
        <pt x="1287" y="357" on="1"/>
        <pt x="1226" y="0" on="1"/>
        <pt x="100" y="0" on="1"/>
      </contour>
    </TTGlyph>
    <TTGlyph name="Ebreve" xMin="100" yMin="0" xMax="1287" yMax="1997">
      <contour>
        <pt x="697" y="1643" on="1"/>
        <pt x="615" y="1643" on="0"/>
        <pt x="489" y="1692" on="0"/>
        <pt x="403" y="1776" on="0"/>
        <pt x="359" y="1890" on="0"/>
        <pt x="359" y="1955" on="1"/>
        <pt x="359" y="1966" on="0"/>
        <pt x="359" y="1986" on="0"/>
        <pt x="361" y="1997" on="1"/>
        <pt x="482" y="1997" on="1"/>
        <pt x="482" y="1993" on="0"/>
        <pt x="483" y="1979" on="0"/>
        <pt x="485" y="1970" on="1"/>
        <pt x="489" y="1950" on="0"/>
        <pt x="511" y="1897" on="0"/>
        <pt x="559" y="1849" on="0"/>
        <pt x="638" y="1816" on="0"/>
        <pt x="699" y="1816" on="1"/>
        <pt x="760" y="1816" on="0"/>
        <pt x="838" y="1850" on="0"/>
        <pt x="885" y="1898" on="0"/>
        <pt x="905" y="1951" on="0"/>
        <pt x="908" y="1971" on="1"/>
        <pt x="910" y="1981" on="0"/>
        <pt x="910" y="1993" on="0"/>
        <pt x="910" y="1997" on="1"/>
        <pt x="1028" y="1997" on="1"/>
        <pt x="1030" y="1986" on="0"/>
        <pt x="1030" y="1967" on="0"/>
        <pt x="1030" y="1956" on="1"/>
        <pt x="1030" y="1891" on="0"/>
        <pt x="985" y="1777" on="0"/>
        <pt x="900" y="1692" on="0"/>
        <pt x="776" y="1643" on="0"/>
      </contour>
      <contour>
        <pt x="100" y="110" on="1"/>
        <pt x="268" y="137" on="1"/>
        <pt x="268" y="1385" on="1"/>
        <pt x="104" y="1412" on="1"/>
        <pt x="104" y="1522" on="1"/>
        <pt x="1135" y="1522" on="1"/>
        <pt x="1162" y="1212" on="1"/>
        <pt x="1034" y="1212" on="1"/>
        <pt x="969" y="1394" on="1"/>
        <pt x="498" y="1406" on="1"/>
        <pt x="498" y="840" on="1"/>
        <pt x="822" y="847" on="1"/>
        <pt x="853" y="1010" on="1"/>
        <pt x="989" y="1010" on="1"/>
        <pt x="989" y="550" on="1"/>
        <pt x="853" y="550" on="1"/>
        <pt x="823" y="715" on="1"/>
        <pt x="498" y="721" on="1"/>
        <pt x="498" y="128" on="1"/>
        <pt x="1044" y="150" on="1"/>
        <pt x="1159" y="395" on="1"/>
        <pt x="1287" y="357" on="1"/>
        <pt x="1226" y="0" on="1"/>
        <pt x="100" y="0" on="1"/>
      </contour>
    </TTGlyph>
    <TTGlyph name="Ecaron" xMin="100" yMin="0" xMax="1287" yMax="2014">
      <contour>
        <pt x="355" y="1954" on="1"/>
        <pt x="448" y="2014" on="1"/>
        <pt x="698" y="1830" on="1"/>
        <pt x="956" y="2014" on="1"/>
        <pt x="1042" y="1957" on="1"/>
        <pt x="795" y="1679" on="1"/>
        <pt x="602" y="1679" on="1"/>
      </contour>
      <contour>
        <pt x="100" y="110" on="1"/>
        <pt x="268" y="137" on="1"/>
        <pt x="268" y="1385" on="1"/>
        <pt x="104" y="1412" on="1"/>
        <pt x="104" y="1522" on="1"/>
        <pt x="1135" y="1522" on="1"/>
        <pt x="1162" y="1212" on="1"/>
        <pt x="1034" y="1212" on="1"/>
        <pt x="969" y="1394" on="1"/>
        <pt x="498" y="1406" on="1"/>
        <pt x="498" y="840" on="1"/>
        <pt x="822" y="847" on="1"/>
        <pt x="853" y="1010" on="1"/>
        <pt x="989" y="1010" on="1"/>
        <pt x="989" y="550" on="1"/>
        <pt x="853" y="550" on="1"/>
        <pt x="823" y="715" on="1"/>
        <pt x="498" y="721" on="1"/>
        <pt x="498" y="128" on="1"/>
        <pt x="1044" y="150" on="1"/>
        <pt x="1159" y="395" on="1"/>
        <pt x="1287" y="357" on="1"/>
        <pt x="1226" y="0" on="1"/>
        <pt x="100" y="0" on="1"/>
      </contour>
    </TTGlyph>
    <TTGlyph name="Ecircumflex" xMin="100" yMin="0" xMax="1287" yMax="2014">
      <contour>
        <pt x="100" y="110" on="1"/>
        <pt x="268" y="137" on="1"/>
        <pt x="268" y="1385" on="1"/>
        <pt x="104" y="1412" on="1"/>
        <pt x="104" y="1522" on="1"/>
        <pt x="1135" y="1522" on="1"/>
        <pt x="1162" y="1212" on="1"/>
        <pt x="1034" y="1212" on="1"/>
        <pt x="969" y="1394" on="1"/>
        <pt x="498" y="1406" on="1"/>
        <pt x="498" y="840" on="1"/>
        <pt x="822" y="847" on="1"/>
        <pt x="853" y="1010" on="1"/>
        <pt x="989" y="1010" on="1"/>
        <pt x="989" y="550" on="1"/>
        <pt x="853" y="550" on="1"/>
        <pt x="823" y="715" on="1"/>
        <pt x="498" y="721" on="1"/>
        <pt x="498" y="128" on="1"/>
        <pt x="1044" y="150" on="1"/>
        <pt x="1159" y="395" on="1"/>
        <pt x="1287" y="357" on="1"/>
        <pt x="1226" y="0" on="1"/>
        <pt x="100" y="0" on="1"/>
      </contour>
      <contour>
        <pt x="334" y="1712" on="1"/>
        <pt x="599" y="2014" on="1"/>
        <pt x="791" y="2014" on="1"/>
        <pt x="1058" y="1714" on="1"/>
        <pt x="965" y="1655" on="1"/>
        <pt x="695" y="1853" on="1"/>
        <pt x="420" y="1655" on="1"/>
      </contour>
    </TTGlyph>
    <TTGlyph name="Edieresis" xMin="100" yMin="0" xMax="1287" yMax="1991">
      <contour>
        <pt x="930" y="1690" on="1"/>
        <pt x="901" y="1690" on="0"/>
        <pt x="853" y="1711" on="0"/>
        <pt x="819" y="1749" on="0"/>
        <pt x="801" y="1800" on="0"/>
        <pt x="801" y="1829" on="1"/>
        <pt x="801" y="1861" on="0"/>
        <pt x="820" y="1919" on="0"/>
        <pt x="857" y="1964" on="0"/>
        <pt x="913" y="1991" on="0"/>
        <pt x="950" y="1991" on="1"/>
        <pt x="951" y="1991" on="1"/>
        <pt x="984" y="1991" on="0"/>
        <pt x="1034" y="1967" on="0"/>
        <pt x="1069" y="1928" on="0"/>
        <pt x="1087" y="1877" on="0"/>
        <pt x="1087" y="1851" on="1"/>
        <pt x="1087" y="1817" on="0"/>
        <pt x="1067" y="1758" on="0"/>
        <pt x="1028" y="1715" on="0"/>
        <pt x="970" y="1690" on="0"/>
        <pt x="931" y="1690" on="1"/>
      </contour>
      <contour>
        <pt x="434" y="1690" on="1"/>
        <pt x="405" y="1690" on="0"/>
        <pt x="357" y="1711" on="0"/>
        <pt x="324" y="1749" on="0"/>
        <pt x="306" y="1800" on="0"/>
        <pt x="306" y="1829" on="1"/>
        <pt x="306" y="1861" on="0"/>
        <pt x="325" y="1919" on="0"/>
        <pt x="362" y="1964" on="0"/>
        <pt x="418" y="1991" on="0"/>
        <pt x="455" y="1991" on="1"/>
        <pt x="456" y="1991" on="1"/>
        <pt x="488" y="1991" on="0"/>
        <pt x="538" y="1967" on="0"/>
        <pt x="573" y="1928" on="0"/>
        <pt x="591" y="1877" on="0"/>
        <pt x="591" y="1851" on="1"/>
        <pt x="591" y="1817" on="0"/>
        <pt x="572" y="1758" on="0"/>
        <pt x="533" y="1715" on="0"/>
        <pt x="474" y="1690" on="0"/>
        <pt x="435" y="1690" on="1"/>
      </contour>
      <contour>
        <pt x="100" y="110" on="1"/>
        <pt x="268" y="137" on="1"/>
        <pt x="268" y="1385" on="1"/>
        <pt x="104" y="1412" on="1"/>
        <pt x="104" y="1522" on="1"/>
        <pt x="1135" y="1522" on="1"/>
        <pt x="1162" y="1212" on="1"/>
        <pt x="1034" y="1212" on="1"/>
        <pt x="969" y="1394" on="1"/>
        <pt x="498" y="1406" on="1"/>
        <pt x="498" y="840" on="1"/>
        <pt x="822" y="847" on="1"/>
        <pt x="853" y="1010" on="1"/>
        <pt x="989" y="1010" on="1"/>
        <pt x="989" y="550" on="1"/>
        <pt x="853" y="550" on="1"/>
        <pt x="823" y="715" on="1"/>
        <pt x="498" y="721" on="1"/>
        <pt x="498" y="128" on="1"/>
        <pt x="1044" y="150" on="1"/>
        <pt x="1159" y="395" on="1"/>
        <pt x="1287" y="357" on="1"/>
        <pt x="1226" y="0" on="1"/>
        <pt x="100" y="0" on="1"/>
      </contour>
    </TTGlyph>
    <TTGlyph name="Edotaccent" xMin="100" yMin="0" xMax="1287" yMax="2014">
      <contour>
        <pt x="683" y="1714" on="1"/>
        <pt x="654" y="1714" on="0"/>
        <pt x="606" y="1735" on="0"/>
        <pt x="572" y="1772" on="0"/>
        <pt x="554" y="1823" on="0"/>
        <pt x="554" y="1852" on="1"/>
        <pt x="554" y="1884" on="0"/>
        <pt x="573" y="1942" on="0"/>
        <pt x="610" y="1987" on="0"/>
        <pt x="666" y="2014" on="0"/>
        <pt x="703" y="2014" on="1"/>
        <pt x="704" y="2014" on="1"/>
        <pt x="737" y="2014" on="0"/>
        <pt x="787" y="1990" on="0"/>
        <pt x="822" y="1951" on="0"/>
        <pt x="840" y="1901" on="0"/>
        <pt x="840" y="1874" on="1"/>
        <pt x="840" y="1840" on="0"/>
        <pt x="820" y="1782" on="0"/>
        <pt x="781" y="1739" on="0"/>
        <pt x="723" y="1714" on="0"/>
        <pt x="684" y="1714" on="1"/>
        <pt x="683" y="1714" on="1"/>
      </contour>
      <contour>
        <pt x="100" y="110" on="1"/>
        <pt x="268" y="137" on="1"/>
        <pt x="268" y="1385" on="1"/>
        <pt x="104" y="1412" on="1"/>
        <pt x="104" y="1522" on="1"/>
        <pt x="1135" y="1522" on="1"/>
        <pt x="1162" y="1212" on="1"/>
        <pt x="1034" y="1212" on="1"/>
        <pt x="969" y="1394" on="1"/>
        <pt x="498" y="1406" on="1"/>
        <pt x="498" y="840" on="1"/>
        <pt x="822" y="847" on="1"/>
        <pt x="853" y="1010" on="1"/>
        <pt x="989" y="1010" on="1"/>
        <pt x="989" y="550" on="1"/>
        <pt x="853" y="550" on="1"/>
        <pt x="823" y="715" on="1"/>
        <pt x="498" y="721" on="1"/>
        <pt x="498" y="128" on="1"/>
        <pt x="1044" y="150" on="1"/>
        <pt x="1159" y="395" on="1"/>
        <pt x="1287" y="357" on="1"/>
        <pt x="1226" y="0" on="1"/>
        <pt x="100" y="0" on="1"/>
      </contour>
    </TTGlyph>
    <TTGlyph name="Egrave" xMin="100" yMin="0" xMax="1287" yMax="2014">
      <contour>
        <pt x="784" y="1633" on="1"/>
        <pt x="762" y="1639" on="0"/>
        <pt x="693" y="1668" on="0"/>
        <pt x="613" y="1707" on="0"/>
        <pt x="529" y="1755" on="0"/>
        <pt x="453" y="1806" on="0"/>
        <pt x="392" y="1858" on="0"/>
        <pt x="376" y="1882" on="1"/>
        <pt x="528" y="2014" on="1"/>
        <pt x="529" y="2014" on="1"/>
        <pt x="862" y="1701" on="1"/>
        <pt x="785" y="1633" on="1"/>
        <pt x="784" y="1633" on="1"/>
      </contour>
      <contour>
        <pt x="100" y="110" on="1"/>
        <pt x="268" y="137" on="1"/>
        <pt x="268" y="1385" on="1"/>
        <pt x="104" y="1412" on="1"/>
        <pt x="104" y="1522" on="1"/>
        <pt x="1135" y="1522" on="1"/>
        <pt x="1162" y="1212" on="1"/>
        <pt x="1034" y="1212" on="1"/>
        <pt x="969" y="1394" on="1"/>
        <pt x="498" y="1406" on="1"/>
        <pt x="498" y="840" on="1"/>
        <pt x="822" y="847" on="1"/>
        <pt x="853" y="1010" on="1"/>
        <pt x="989" y="1010" on="1"/>
        <pt x="989" y="550" on="1"/>
        <pt x="853" y="550" on="1"/>
        <pt x="823" y="715" on="1"/>
        <pt x="498" y="721" on="1"/>
        <pt x="498" y="128" on="1"/>
        <pt x="1044" y="150" on="1"/>
        <pt x="1159" y="395" on="1"/>
        <pt x="1287" y="357" on="1"/>
        <pt x="1226" y="0" on="1"/>
        <pt x="100" y="0" on="1"/>
      </contour>
    </TTGlyph>
    <TTGlyph name="Emacron" xMin="100" yMin="0" xMax="1287" yMax="1912">
      <contour>
        <pt x="422" y="1912" on="1"/>
        <pt x="979" y="1912" on="1"/>
        <pt x="979" y="1751" on="1"/>
        <pt x="422" y="1751" on="1"/>
      </contour>
      <contour>
        <pt x="100" y="110" on="1"/>
        <pt x="268" y="137" on="1"/>
        <pt x="268" y="1385" on="1"/>
        <pt x="104" y="1412" on="1"/>
        <pt x="104" y="1522" on="1"/>
        <pt x="1135" y="1522" on="1"/>
        <pt x="1162" y="1212" on="1"/>
        <pt x="1034" y="1212" on="1"/>
        <pt x="969" y="1394" on="1"/>
        <pt x="498" y="1406" on="1"/>
        <pt x="498" y="840" on="1"/>
        <pt x="822" y="847" on="1"/>
        <pt x="853" y="1010" on="1"/>
        <pt x="989" y="1010" on="1"/>
        <pt x="989" y="550" on="1"/>
        <pt x="853" y="550" on="1"/>
        <pt x="823" y="715" on="1"/>
        <pt x="498" y="721" on="1"/>
        <pt x="498" y="128" on="1"/>
        <pt x="1044" y="150" on="1"/>
        <pt x="1159" y="395" on="1"/>
        <pt x="1287" y="357" on="1"/>
        <pt x="1226" y="0" on="1"/>
        <pt x="100" y="0" on="1"/>
      </contour>
    </TTGlyph>
    <TTGlyph name="Eng" xMin="101" yMin="-357" xMax="1590" yMax="1522">
      <contour>
        <pt x="101" y="107" on="1"/>
        <pt x="268" y="135" on="1"/>
        <pt x="268" y="1387" on="1"/>
        <pt x="101" y="1416" on="1"/>
        <pt x="101" y="1522" on="1"/>
        <pt x="496" y="1522" on="1"/>
        <pt x="1128" y="536" on="1"/>
        <pt x="1270" y="263" on="1"/>
        <pt x="1270" y="1388" on="1"/>
        <pt x="1097" y="1416" on="1"/>
        <pt x="1097" y="1522" on="1"/>
        <pt x="1590" y="1522" on="1"/>
        <pt x="1590" y="1416" on="1"/>
        <pt x="1421" y="1388" on="1"/>
        <pt x="1421" y="430" on="1"/>
        <pt x="1421" y="283" on="0"/>
        <pt x="1397" y="84" on="0"/>
        <pt x="1357" y="-51" on="0"/>
        <pt x="1305" y="-136" on="0"/>
        <pt x="1276" y="-169" on="1"/>
        <pt x="1233" y="-217" on="0"/>
        <pt x="1148" y="-283" on="0"/>
        <pt x="1058" y="-326" on="0"/>
        <pt x="960" y="-351" on="0"/>
        <pt x="904" y="-357" on="1"/>
        <pt x="848" y="-267" on="1"/>
        <pt x="939" y="-244" on="0"/>
        <pt x="1092" y="-148" on="0"/>
        <pt x="1143" y="-70" on="1"/>
        <pt x="1157" y="-47" on="0"/>
        <pt x="1183" y="5" on="0"/>
        <pt x="1193" y="34" on="1"/>
        <pt x="564" y="1001" on="1"/>
        <pt x="421" y="1282" on="1"/>
        <pt x="421" y="135" on="1"/>
        <pt x="607" y="107" on="1"/>
        <pt x="607" y="0" on="1"/>
        <pt x="101" y="0" on="1"/>
      </contour>
    </TTGlyph>
    <TTGlyph name="Eogonek" xMin="100" yMin="-511" xMax="1287" yMax="1522">
      <contour>
        <pt x="100" y="110" on="1"/>
        <pt x="268" y="137" on="1"/>
        <pt x="268" y="1385" on="1"/>
        <pt x="104" y="1412" on="1"/>
        <pt x="104" y="1522" on="1"/>
        <pt x="1135" y="1522" on="1"/>
        <pt x="1162" y="1212" on="1"/>
        <pt x="1034" y="1212" on="1"/>
        <pt x="969" y="1394" on="1"/>
        <pt x="498" y="1406" on="1"/>
        <pt x="498" y="840" on="1"/>
        <pt x="822" y="847" on="1"/>
        <pt x="853" y="1010" on="1"/>
        <pt x="989" y="1010" on="1"/>
        <pt x="989" y="550" on="1"/>
        <pt x="853" y="550" on="1"/>
        <pt x="823" y="715" on="1"/>
        <pt x="498" y="721" on="1"/>
        <pt x="498" y="128" on="1"/>
        <pt x="1044" y="150" on="1"/>
        <pt x="1159" y="395" on="1"/>
        <pt x="1287" y="357" on="1"/>
        <pt x="1226" y="0" on="1"/>
        <pt x="1216" y="0" on="1"/>
        <pt x="1166" y="-6" on="0"/>
        <pt x="1065" y="-60" on="0"/>
        <pt x="985" y="-132" on="0"/>
        <pt x="935" y="-211" on="0"/>
        <pt x="935" y="-242" on="1"/>
        <pt x="935" y="-275" on="0"/>
        <pt x="958" y="-320" on="0"/>
        <pt x="997" y="-349" on="0"/>
        <pt x="1050" y="-362" on="0"/>
        <pt x="1081" y="-362" on="1"/>
        <pt x="1116" y="-362" on="0"/>
        <pt x="1186" y="-346" on="0"/>
        <pt x="1220" y="-332" on="1"/>
        <pt x="1220" y="-441" on="1"/>
        <pt x="1199" y="-457" on="0"/>
        <pt x="1143" y="-483" on="0"/>
        <pt x="1082" y="-501" on="0"/>
        <pt x="1016" y="-511" on="0"/>
        <pt x="985" y="-511" on="1"/>
        <pt x="937" y="-511" on="0"/>
        <pt x="844" y="-491" on="0"/>
        <pt x="770" y="-445" on="0"/>
        <pt x="725" y="-370" on="0"/>
        <pt x="725" y="-315" on="1"/>
        <pt x="725" y="-274" on="0"/>
        <pt x="770" y="-183" on="0"/>
        <pt x="847" y="-96" on="0"/>
        <pt x="952" y="-23" on="0"/>
        <pt x="1012" y="0" on="1"/>
        <pt x="100" y="0" on="1"/>
      </contour>
    </TTGlyph>
    <TTGlyph name="Eth" xMin="100" yMin="-20" xMax="1488" yMax="1537">
      <contour>
        <pt x="100" y="110" on="1"/>
        <pt x="268" y="137" on="1"/>
        <pt x="268" y="734" on="1"/>
        <pt x="115" y="734" on="1"/>
        <pt x="115" y="853" on="1"/>
        <pt x="268" y="853" on="1"/>
        <pt x="268" y="1385" on="1"/>
        <pt x="112" y="1412" on="1"/>
        <pt x="112" y="1522" on="1"/>
        <pt x="382" y="1522" on="1"/>
        <pt x="471" y="1522" on="0"/>
        <pt x="643" y="1537" on="0"/>
        <pt x="741" y="1537" on="1"/>
        <pt x="939" y="1537" on="0"/>
        <pt x="1222" y="1434" on="0"/>
        <pt x="1403" y="1243" on="0"/>
        <pt x="1488" y="974" on="0"/>
        <pt x="1488" y="808" on="1"/>
        <pt x="1488" y="620" on="0"/>
        <pt x="1374" y="313" on="0"/>
        <pt x="1169" y="95" on="0"/>
        <pt x="884" y="-20" on="0"/>
        <pt x="713" y="-16" on="1"/>
        <pt x="676" y="-15" on="0"/>
        <pt x="593" y="-10" on="0"/>
        <pt x="508" y="-4" on="0"/>
        <pt x="424" y="0" on="0"/>
        <pt x="385" y="0" on="1"/>
        <pt x="100" y="0" on="1"/>
      </contour>
      <contour>
        <pt x="498" y="123" on="1"/>
        <pt x="552" y="107" on="0"/>
        <pt x="669" y="103" on="0"/>
        <pt x="737" y="105" on="1"/>
        <pt x="846" y="108" on="0"/>
        <pt x="1032" y="193" on="0"/>
        <pt x="1167" y="357" on="0"/>
        <pt x="1244" y="601" on="0"/>
        <pt x="1244" y="763" on="1"/>
        <pt x="1244" y="1418" on="0"/>
        <pt x="673" y="1418" on="1"/>
        <pt x="606" y="1418" on="0"/>
        <pt x="521" y="1409" on="0"/>
        <pt x="498" y="1406" on="1"/>
        <pt x="498" y="853" on="1"/>
        <pt x="836" y="853" on="1"/>
        <pt x="836" y="734" on="1"/>
        <pt x="498" y="734" on="1"/>
      </contour>
    </TTGlyph>
    <TTGlyph name="Euro" xMin="112" yMin="-28" xMax="1403" yMax="1567">
      <contour>
        <pt x="112" y="651" on="1"/>
        <pt x="315" y="651" on="1"/>
        <pt x="313" y="669" on="0"/>
        <pt x="313" y="706" on="0"/>
        <pt x="313" y="726" on="1"/>
        <pt x="313" y="773" on="0"/>
        <pt x="319" y="861" on="0"/>
        <pt x="324" y="903" on="1"/>
        <pt x="132" y="903" on="1"/>
        <pt x="132" y="1026" on="1"/>
        <pt x="348" y="1026" on="1"/>
        <pt x="381" y="1153" on="0"/>
        <pt x="501" y="1353" on="0"/>
        <pt x="670" y="1493" on="0"/>
        <pt x="882" y="1567" on="0"/>
        <pt x="1006" y="1567" on="1"/>
        <pt x="1077" y="1567" on="0"/>
        <pt x="1195" y="1548" on="0"/>
        <pt x="1293" y="1523" on="0"/>
        <pt x="1371" y="1498" on="0"/>
        <pt x="1402" y="1492" on="1"/>
        <pt x="1384" y="1203" on="1"/>
        <pt x="1264" y="1203" on="1"/>
        <pt x="1219" y="1370" on="1"/>
        <pt x="1204" y="1387" on="0"/>
        <pt x="1149" y="1414" on="0"/>
        <pt x="1080" y="1433" on="0"/>
        <pt x="998" y="1443" on="0"/>
        <pt x="956" y="1443" on="1"/>
        <pt x="878" y="1443" on="0"/>
        <pt x="752" y="1387" on="0"/>
        <pt x="654" y="1281" on="0"/>
        <pt x="587" y="1126" on="0"/>
        <pt x="569" y="1026" on="1"/>
        <pt x="1113" y="1026" on="1"/>
        <pt x="1113" y="903" on="1"/>
        <pt x="554" y="903" on="1"/>
        <pt x="551" y="871" on="0"/>
        <pt x="549" y="805" on="0"/>
        <pt x="549" y="770" on="1"/>
        <pt x="549" y="708" on="0"/>
        <pt x="552" y="651" on="1"/>
        <pt x="1084" y="651" on="1"/>
        <pt x="1084" y="528" on="1"/>
        <pt x="564" y="528" on="1"/>
        <pt x="578" y="430" on="0"/>
        <pt x="636" y="266" on="0"/>
        <pt x="733" y="149" on="0"/>
        <pt x="873" y="84" on="0"/>
        <pt x="970" y="84" on="1"/>
        <pt x="1045" y="84" on="0"/>
        <pt x="1162" y="133" on="0"/>
        <pt x="1215" y="182" on="1"/>
        <pt x="1290" y="314" on="1"/>
        <pt x="1403" y="288" on="1"/>
        <pt x="1378" y="67" on="1"/>
        <pt x="1345" y="65" on="0"/>
        <pt x="1268" y="35" on="0"/>
        <pt x="1161" y="1" on="0"/>
        <pt x="1018" y="-28" on="0"/>
        <pt x="920" y="-28" on="1"/>
        <pt x="792" y="-28" on="0"/>
        <pt x="589" y="50" on="0"/>
        <pt x="441" y="195" on="0"/>
        <pt x="347" y="401" on="0"/>
        <pt x="327" y="528" on="1"/>
        <pt x="112" y="528" on="1"/>
      </contour>
    </TTGlyph>
    <TTGlyph name="F" xMin="95" yMin="0" xMax="1207" yMax="1522">
      <contour>
        <pt x="107" y="110" on="1"/>
        <pt x="268" y="137" on="1"/>
        <pt x="268" y="1385" on="1"/>
        <pt x="95" y="1412" on="1"/>
        <pt x="95" y="1522" on="1"/>
        <pt x="1187" y="1522" on="1"/>
        <pt x="1207" y="1177" on="1"/>
        <pt x="1057" y="1177" on="1"/>
        <pt x="992" y="1394" on="1"/>
        <pt x="498" y="1405" on="1"/>
        <pt x="498" y="828" on="1"/>
        <pt x="848" y="831" on="1"/>
        <pt x="889" y="993" on="1"/>
        <pt x="1015" y="993" on="1"/>
        <pt x="1015" y="529" on="1"/>
        <pt x="889" y="529" on="1"/>
        <pt x="848" y="694" on="1"/>
        <pt x="498" y="703" on="1"/>
        <pt x="498" y="137" on="1"/>
        <pt x="789" y="110" on="1"/>
        <pt x="789" y="0" on="1"/>
        <pt x="107" y="0" on="1"/>
      </contour>
    </TTGlyph>
    <TTGlyph name="G" xMin="91" yMin="-23" xMax="1481" yMax="1539">
      <contour>
        <pt x="91" y="735" on="1"/>
        <pt x="91" y="860" on="0"/>
        <pt x="147" y="1075" on="0"/>
        <pt x="249" y="1254" on="0"/>
        <pt x="392" y="1393" on="0"/>
        <pt x="565" y="1489" on="0"/>
        <pt x="763" y="1539" on="0"/>
        <pt x="870" y="1539" on="1"/>
        <pt x="950" y="1539" on="0"/>
        <pt x="1098" y="1524" on="0"/>
        <pt x="1223" y="1503" on="0"/>
        <pt x="1318" y="1481" on="0"/>
        <pt x="1345" y="1475" on="1"/>
        <pt x="1326" y="1125" on="1"/>
        <pt x="1179" y="1125" on="1"/>
        <pt x="1121" y="1353" on="1"/>
        <pt x="1110" y="1363" on="0"/>
        <pt x="1074" y="1386" on="0"/>
        <pt x="1012" y="1406" on="0"/>
        <pt x="917" y="1419" on="0"/>
        <pt x="848" y="1419" on="1"/>
        <pt x="740" y="1419" on="0"/>
        <pt x="558" y="1342" on="0"/>
        <pt x="426" y="1187" on="0"/>
        <pt x="352" y="954" on="0"/>
        <pt x="352" y="798" on="1"/>
        <pt x="352" y="711" on="0"/>
        <pt x="377" y="540" on="0"/>
        <pt x="427" y="385" on="0"/>
        <pt x="504" y="251" on="0"/>
        <pt x="610" y="154" on="0"/>
        <pt x="743" y="98" on="0"/>
        <pt x="825" y="98" on="1"/>
        <pt x="868" y="98" on="0"/>
        <pt x="957" y="106" on="0"/>
        <pt x="1039" y="126" on="0"/>
        <pt x="1110" y="158" on="0"/>
        <pt x="1134" y="182" on="1"/>
        <pt x="1134" y="613" on="1"/>
        <pt x="891" y="636" on="1"/>
        <pt x="891" y="769" on="1"/>
        <pt x="1481" y="769" on="1"/>
        <pt x="1481" y="636" on="1"/>
        <pt x="1365" y="614" on="1"/>
        <pt x="1365" y="82" on="1"/>
        <pt x="1324" y="80" on="0"/>
        <pt x="1217" y="47" on="0"/>
        <pt x="1079" y="8" on="0"/>
        <pt x="909" y="-23" on="0"/>
        <pt x="806" y="-23" on="1"/>
        <pt x="637" y="-23" on="0"/>
        <pt x="372" y="92" on="0"/>
        <pt x="188" y="294" on="0"/>
        <pt x="91" y="572" on="0"/>
      </contour>
    </TTGlyph>
    <TTGlyph name="Gbreve" xMin="99" yMin="-23" xMax="1489" yMax="1997">
      <contour>
        <pt x="846" y="1643" on="1"/>
        <pt x="764" y="1643" on="0"/>
        <pt x="638" y="1692" on="0"/>
        <pt x="552" y="1776" on="0"/>
        <pt x="508" y="1890" on="0"/>
        <pt x="508" y="1955" on="1"/>
        <pt x="508" y="1966" on="0"/>
        <pt x="508" y="1986" on="0"/>
        <pt x="510" y="1997" on="1"/>
        <pt x="631" y="1997" on="1"/>
        <pt x="631" y="1993" on="0"/>
        <pt x="632" y="1979" on="0"/>
        <pt x="634" y="1970" on="1"/>
        <pt x="638" y="1950" on="0"/>
        <pt x="660" y="1897" on="0"/>
        <pt x="708" y="1849" on="0"/>
        <pt x="787" y="1816" on="0"/>
        <pt x="848" y="1816" on="1"/>
        <pt x="909" y="1816" on="0"/>
        <pt x="987" y="1850" on="0"/>
        <pt x="1034" y="1898" on="0"/>
        <pt x="1054" y="1951" on="0"/>
        <pt x="1057" y="1971" on="1"/>
        <pt x="1059" y="1981" on="0"/>
        <pt x="1059" y="1993" on="0"/>
        <pt x="1059" y="1997" on="1"/>
        <pt x="1177" y="1997" on="1"/>
        <pt x="1179" y="1986" on="0"/>
        <pt x="1179" y="1967" on="0"/>
        <pt x="1179" y="1956" on="1"/>
        <pt x="1179" y="1891" on="0"/>
        <pt x="1134" y="1777" on="0"/>
        <pt x="1049" y="1692" on="0"/>
        <pt x="925" y="1643" on="0"/>
      </contour>
      <contour>
        <pt x="99" y="735" on="1"/>
        <pt x="99" y="860" on="0"/>
        <pt x="155" y="1075" on="0"/>
        <pt x="257" y="1254" on="0"/>
        <pt x="400" y="1393" on="0"/>
        <pt x="573" y="1489" on="0"/>
        <pt x="771" y="1539" on="0"/>
        <pt x="878" y="1539" on="1"/>
        <pt x="958" y="1539" on="0"/>
        <pt x="1106" y="1524" on="0"/>
        <pt x="1231" y="1503" on="0"/>
        <pt x="1326" y="1481" on="0"/>
        <pt x="1353" y="1475" on="1"/>
        <pt x="1334" y="1125" on="1"/>
        <pt x="1187" y="1125" on="1"/>
        <pt x="1129" y="1353" on="1"/>
        <pt x="1118" y="1363" on="0"/>
        <pt x="1082" y="1386" on="0"/>
        <pt x="1020" y="1406" on="0"/>
        <pt x="925" y="1419" on="0"/>
        <pt x="856" y="1419" on="1"/>
        <pt x="748" y="1419" on="0"/>
        <pt x="566" y="1342" on="0"/>
        <pt x="434" y="1187" on="0"/>
        <pt x="360" y="954" on="0"/>
        <pt x="360" y="798" on="1"/>
        <pt x="360" y="711" on="0"/>
        <pt x="385" y="540" on="0"/>
        <pt x="435" y="385" on="0"/>
        <pt x="512" y="251" on="0"/>
        <pt x="618" y="154" on="0"/>
        <pt x="751" y="98" on="0"/>
        <pt x="833" y="98" on="1"/>
        <pt x="876" y="98" on="0"/>
        <pt x="965" y="106" on="0"/>
        <pt x="1047" y="126" on="0"/>
        <pt x="1118" y="158" on="0"/>
        <pt x="1142" y="182" on="1"/>
        <pt x="1142" y="613" on="1"/>
        <pt x="899" y="636" on="1"/>
        <pt x="899" y="769" on="1"/>
        <pt x="1489" y="769" on="1"/>
        <pt x="1489" y="636" on="1"/>
        <pt x="1373" y="614" on="1"/>
        <pt x="1373" y="82" on="1"/>
        <pt x="1332" y="80" on="0"/>
        <pt x="1225" y="47" on="0"/>
        <pt x="1087" y="8" on="0"/>
        <pt x="917" y="-23" on="0"/>
        <pt x="814" y="-23" on="1"/>
        <pt x="645" y="-23" on="0"/>
        <pt x="380" y="92" on="0"/>
        <pt x="196" y="294" on="0"/>
        <pt x="99" y="572" on="0"/>
      </contour>
    </TTGlyph>
    <TTGlyph name="Gcircumflex" xMin="99" yMin="-23" xMax="1489" yMax="2014">
      <contour>
        <pt x="99" y="735" on="1"/>
        <pt x="99" y="860" on="0"/>
        <pt x="155" y="1075" on="0"/>
        <pt x="257" y="1254" on="0"/>
        <pt x="400" y="1393" on="0"/>
        <pt x="573" y="1489" on="0"/>
        <pt x="771" y="1539" on="0"/>
        <pt x="878" y="1539" on="1"/>
        <pt x="958" y="1539" on="0"/>
        <pt x="1106" y="1524" on="0"/>
        <pt x="1231" y="1503" on="0"/>
        <pt x="1326" y="1481" on="0"/>
        <pt x="1353" y="1475" on="1"/>
        <pt x="1334" y="1125" on="1"/>
        <pt x="1187" y="1125" on="1"/>
        <pt x="1129" y="1353" on="1"/>
        <pt x="1118" y="1363" on="0"/>
        <pt x="1082" y="1386" on="0"/>
        <pt x="1020" y="1406" on="0"/>
        <pt x="925" y="1419" on="0"/>
        <pt x="856" y="1419" on="1"/>
        <pt x="748" y="1419" on="0"/>
        <pt x="566" y="1342" on="0"/>
        <pt x="434" y="1187" on="0"/>
        <pt x="360" y="954" on="0"/>
        <pt x="360" y="798" on="1"/>
        <pt x="360" y="711" on="0"/>
        <pt x="385" y="540" on="0"/>
        <pt x="435" y="385" on="0"/>
        <pt x="512" y="251" on="0"/>
        <pt x="618" y="154" on="0"/>
        <pt x="751" y="98" on="0"/>
        <pt x="833" y="98" on="1"/>
        <pt x="876" y="98" on="0"/>
        <pt x="965" y="106" on="0"/>
        <pt x="1047" y="126" on="0"/>
        <pt x="1118" y="158" on="0"/>
        <pt x="1142" y="182" on="1"/>
        <pt x="1142" y="613" on="1"/>
        <pt x="899" y="636" on="1"/>
        <pt x="899" y="769" on="1"/>
        <pt x="1489" y="769" on="1"/>
        <pt x="1489" y="636" on="1"/>
        <pt x="1373" y="614" on="1"/>
        <pt x="1373" y="82" on="1"/>
        <pt x="1332" y="80" on="0"/>
        <pt x="1225" y="47" on="0"/>
        <pt x="1087" y="8" on="0"/>
        <pt x="917" y="-23" on="0"/>
        <pt x="814" y="-23" on="1"/>
        <pt x="645" y="-23" on="0"/>
        <pt x="380" y="92" on="0"/>
        <pt x="196" y="294" on="0"/>
        <pt x="99" y="572" on="0"/>
      </contour>
      <contour>
        <pt x="483" y="1712" on="1"/>
        <pt x="748" y="2014" on="1"/>
        <pt x="940" y="2014" on="1"/>
        <pt x="1207" y="1714" on="1"/>
        <pt x="1114" y="1655" on="1"/>
        <pt x="844" y="1853" on="1"/>
        <pt x="569" y="1655" on="1"/>
      </contour>
    </TTGlyph>
    <TTGlyph name="Gcommaaccent" xMin="99" yMin="-560" xMax="1489" yMax="1539">
      <contour>
        <pt x="681" y="-223" on="1"/>
        <pt x="681" y="-188" on="0"/>
        <pt x="706" y="-144" on="0"/>
        <pt x="742" y="-120" on="0"/>
        <pt x="780" y="-111" on="0"/>
        <pt x="794" y="-111" on="1"/>
        <pt x="805" y="-111" on="1"/>
        <pt x="872" y="-111" on="0"/>
        <pt x="950" y="-204" on="0"/>
        <pt x="950" y="-279" on="1"/>
        <pt x="950" y="-326" on="0"/>
        <pt x="926" y="-404" on="0"/>
        <pt x="889" y="-466" on="0"/>
        <pt x="845" y="-513" on="0"/>
        <pt x="807" y="-544" on="0"/>
        <pt x="781" y="-560" on="0"/>
        <pt x="780" y="-560" on="1"/>
        <pt x="778" y="-560" on="1"/>
        <pt x="712" y="-509" on="1"/>
        <pt x="712" y="-498" on="1"/>
        <pt x="727" y="-491" on="0"/>
        <pt x="749" y="-463" on="0"/>
        <pt x="764" y="-427" on="0"/>
        <pt x="772" y="-387" on="0"/>
        <pt x="772" y="-370" on="1"/>
        <pt x="772" y="-344" on="0"/>
        <pt x="745" y="-322" on="0"/>
        <pt x="728" y="-312" on="1"/>
        <pt x="710" y="-301" on="0"/>
        <pt x="681" y="-262" on="0"/>
      </contour>
      <contour>
        <pt x="99" y="735" on="1"/>
        <pt x="99" y="860" on="0"/>
        <pt x="155" y="1075" on="0"/>
        <pt x="257" y="1254" on="0"/>
        <pt x="400" y="1393" on="0"/>
        <pt x="573" y="1489" on="0"/>
        <pt x="771" y="1539" on="0"/>
        <pt x="878" y="1539" on="1"/>
        <pt x="958" y="1539" on="0"/>
        <pt x="1106" y="1524" on="0"/>
        <pt x="1231" y="1503" on="0"/>
        <pt x="1326" y="1481" on="0"/>
        <pt x="1353" y="1475" on="1"/>
        <pt x="1334" y="1125" on="1"/>
        <pt x="1187" y="1125" on="1"/>
        <pt x="1129" y="1353" on="1"/>
        <pt x="1118" y="1363" on="0"/>
        <pt x="1082" y="1386" on="0"/>
        <pt x="1020" y="1406" on="0"/>
        <pt x="925" y="1419" on="0"/>
        <pt x="856" y="1419" on="1"/>
        <pt x="748" y="1419" on="0"/>
        <pt x="566" y="1342" on="0"/>
        <pt x="434" y="1187" on="0"/>
        <pt x="360" y="954" on="0"/>
        <pt x="360" y="798" on="1"/>
        <pt x="360" y="711" on="0"/>
        <pt x="385" y="540" on="0"/>
        <pt x="435" y="385" on="0"/>
        <pt x="512" y="251" on="0"/>
        <pt x="618" y="154" on="0"/>
        <pt x="751" y="98" on="0"/>
        <pt x="833" y="98" on="1"/>
        <pt x="876" y="98" on="0"/>
        <pt x="965" y="106" on="0"/>
        <pt x="1047" y="126" on="0"/>
        <pt x="1118" y="158" on="0"/>
        <pt x="1142" y="182" on="1"/>
        <pt x="1142" y="613" on="1"/>
        <pt x="899" y="636" on="1"/>
        <pt x="899" y="769" on="1"/>
        <pt x="1489" y="769" on="1"/>
        <pt x="1489" y="636" on="1"/>
        <pt x="1373" y="614" on="1"/>
        <pt x="1373" y="82" on="1"/>
        <pt x="1332" y="80" on="0"/>
        <pt x="1225" y="47" on="0"/>
        <pt x="1087" y="8" on="0"/>
        <pt x="917" y="-23" on="0"/>
        <pt x="814" y="-23" on="1"/>
        <pt x="645" y="-23" on="0"/>
        <pt x="380" y="92" on="0"/>
        <pt x="196" y="294" on="0"/>
        <pt x="99" y="572" on="0"/>
      </contour>
    </TTGlyph>
    <TTGlyph name="Gdotaccent" xMin="99" yMin="-23" xMax="1489" yMax="2014">
      <contour>
        <pt x="832" y="1714" on="1"/>
        <pt x="803" y="1714" on="0"/>
        <pt x="755" y="1735" on="0"/>
        <pt x="721" y="1772" on="0"/>
        <pt x="703" y="1823" on="0"/>
        <pt x="703" y="1852" on="1"/>
        <pt x="703" y="1884" on="0"/>
        <pt x="722" y="1942" on="0"/>
        <pt x="759" y="1987" on="0"/>
        <pt x="815" y="2014" on="0"/>
        <pt x="852" y="2014" on="1"/>
        <pt x="853" y="2014" on="1"/>
        <pt x="886" y="2014" on="0"/>
        <pt x="936" y="1990" on="0"/>
        <pt x="971" y="1951" on="0"/>
        <pt x="989" y="1901" on="0"/>
        <pt x="989" y="1874" on="1"/>
        <pt x="989" y="1840" on="0"/>
        <pt x="969" y="1782" on="0"/>
        <pt x="930" y="1739" on="0"/>
        <pt x="872" y="1714" on="0"/>
        <pt x="833" y="1714" on="1"/>
        <pt x="832" y="1714" on="1"/>
      </contour>
      <contour>
        <pt x="99" y="735" on="1"/>
        <pt x="99" y="860" on="0"/>
        <pt x="155" y="1075" on="0"/>
        <pt x="257" y="1254" on="0"/>
        <pt x="400" y="1393" on="0"/>
        <pt x="573" y="1489" on="0"/>
        <pt x="771" y="1539" on="0"/>
        <pt x="878" y="1539" on="1"/>
        <pt x="958" y="1539" on="0"/>
        <pt x="1106" y="1524" on="0"/>
        <pt x="1231" y="1503" on="0"/>
        <pt x="1326" y="1481" on="0"/>
        <pt x="1353" y="1475" on="1"/>
        <pt x="1334" y="1125" on="1"/>
        <pt x="1187" y="1125" on="1"/>
        <pt x="1129" y="1353" on="1"/>
        <pt x="1118" y="1363" on="0"/>
        <pt x="1082" y="1386" on="0"/>
        <pt x="1020" y="1406" on="0"/>
        <pt x="925" y="1419" on="0"/>
        <pt x="856" y="1419" on="1"/>
        <pt x="748" y="1419" on="0"/>
        <pt x="566" y="1342" on="0"/>
        <pt x="434" y="1187" on="0"/>
        <pt x="360" y="954" on="0"/>
        <pt x="360" y="798" on="1"/>
        <pt x="360" y="711" on="0"/>
        <pt x="385" y="540" on="0"/>
        <pt x="435" y="385" on="0"/>
        <pt x="512" y="251" on="0"/>
        <pt x="618" y="154" on="0"/>
        <pt x="751" y="98" on="0"/>
        <pt x="833" y="98" on="1"/>
        <pt x="876" y="98" on="0"/>
        <pt x="965" y="106" on="0"/>
        <pt x="1047" y="126" on="0"/>
        <pt x="1118" y="158" on="0"/>
        <pt x="1142" y="182" on="1"/>
        <pt x="1142" y="613" on="1"/>
        <pt x="899" y="636" on="1"/>
        <pt x="899" y="769" on="1"/>
        <pt x="1489" y="769" on="1"/>
        <pt x="1489" y="636" on="1"/>
        <pt x="1373" y="614" on="1"/>
        <pt x="1373" y="82" on="1"/>
        <pt x="1332" y="80" on="0"/>
        <pt x="1225" y="47" on="0"/>
        <pt x="1087" y="8" on="0"/>
        <pt x="917" y="-23" on="0"/>
        <pt x="814" y="-23" on="1"/>
        <pt x="645" y="-23" on="0"/>
        <pt x="380" y="92" on="0"/>
        <pt x="196" y="294" on="0"/>
        <pt x="99" y="572" on="0"/>
      </contour>
    </TTGlyph>
    <TTGlyph name="H" xMin="101" yMin="0" xMax="1592" yMax="1522">
      <contour>
        <pt x="101" y="110" on="1"/>
        <pt x="268" y="138" on="1"/>
        <pt x="268" y="1385" on="1"/>
        <pt x="108" y="1412" on="1"/>
        <pt x="108" y="1522" on="1"/>
        <pt x="668" y="1522" on="1"/>
        <pt x="668" y="1412" on="1"/>
        <pt x="497" y="1385" on="1"/>
        <pt x="497" y="847" on="1"/>
        <pt x="1202" y="847" on="1"/>
        <pt x="1202" y="1385" on="1"/>
        <pt x="1040" y="1412" on="1"/>
        <pt x="1040" y="1522" on="1"/>
        <pt x="1592" y="1522" on="1"/>
        <pt x="1592" y="1412" on="1"/>
        <pt x="1432" y="1385" on="1"/>
        <pt x="1432" y="137" on="1"/>
        <pt x="1592" y="110" on="1"/>
        <pt x="1592" y="0" on="1"/>
        <pt x="1042" y="0" on="1"/>
        <pt x="1042" y="110" on="1"/>
        <pt x="1202" y="137" on="1"/>
        <pt x="1202" y="717" on="1"/>
        <pt x="497" y="717" on="1"/>
        <pt x="497" y="137" on="1"/>
        <pt x="668" y="110" on="1"/>
        <pt x="668" y="0" on="1"/>
        <pt x="101" y="0" on="1"/>
      </contour>
    </TTGlyph>
    <TTGlyph name="Hbar" xMin="52" yMin="0" xMax="1646" yMax="1522">
      <contour>
        <pt x="100" y="110" on="1"/>
        <pt x="267" y="138" on="1"/>
        <pt x="267" y="1020" on="1"/>
        <pt x="52" y="1020" on="1"/>
        <pt x="52" y="1135" on="1"/>
        <pt x="267" y="1135" on="1"/>
        <pt x="267" y="1385" on="1"/>
        <pt x="107" y="1412" on="1"/>
        <pt x="107" y="1522" on="1"/>
        <pt x="665" y="1522" on="1"/>
        <pt x="665" y="1412" on="1"/>
        <pt x="494" y="1385" on="1"/>
        <pt x="494" y="1135" on="1"/>
        <pt x="1204" y="1135" on="1"/>
        <pt x="1204" y="1385" on="1"/>
        <pt x="1042" y="1412" on="1"/>
        <pt x="1042" y="1522" on="1"/>
        <pt x="1591" y="1522" on="1"/>
        <pt x="1591" y="1412" on="1"/>
        <pt x="1431" y="1385" on="1"/>
        <pt x="1431" y="1135" on="1"/>
        <pt x="1646" y="1135" on="1"/>
        <pt x="1646" y="1020" on="1"/>
        <pt x="1431" y="1020" on="1"/>
        <pt x="1431" y="137" on="1"/>
        <pt x="1591" y="110" on="1"/>
        <pt x="1591" y="0" on="1"/>
        <pt x="1044" y="0" on="1"/>
        <pt x="1044" y="110" on="1"/>
        <pt x="1204" y="137" on="1"/>
        <pt x="1204" y="610" on="1"/>
        <pt x="494" y="610" on="1"/>
        <pt x="494" y="137" on="1"/>
        <pt x="665" y="110" on="1"/>
        <pt x="665" y="0" on="1"/>
        <pt x="100" y="0" on="1"/>
      </contour>
      <contour>
        <pt x="1204" y="739" on="1"/>
        <pt x="1204" y="1020" on="1"/>
        <pt x="494" y="1020" on="1"/>
        <pt x="494" y="739" on="1"/>
      </contour>
    </TTGlyph>
    <TTGlyph name="Hcircumflex" xMin="101" yMin="0" xMax="1592" yMax="2014">
      <contour>
        <pt x="101" y="110" on="1"/>
        <pt x="268" y="138" on="1"/>
        <pt x="268" y="1385" on="1"/>
        <pt x="108" y="1412" on="1"/>
        <pt x="108" y="1522" on="1"/>
        <pt x="668" y="1522" on="1"/>
        <pt x="668" y="1412" on="1"/>
        <pt x="497" y="1385" on="1"/>
        <pt x="497" y="847" on="1"/>
        <pt x="1202" y="847" on="1"/>
        <pt x="1202" y="1385" on="1"/>
        <pt x="1040" y="1412" on="1"/>
        <pt x="1040" y="1522" on="1"/>
        <pt x="1592" y="1522" on="1"/>
        <pt x="1592" y="1412" on="1"/>
        <pt x="1432" y="1385" on="1"/>
        <pt x="1432" y="137" on="1"/>
        <pt x="1592" y="110" on="1"/>
        <pt x="1592" y="0" on="1"/>
        <pt x="1042" y="0" on="1"/>
        <pt x="1042" y="110" on="1"/>
        <pt x="1202" y="137" on="1"/>
        <pt x="1202" y="717" on="1"/>
        <pt x="497" y="717" on="1"/>
        <pt x="497" y="137" on="1"/>
        <pt x="668" y="110" on="1"/>
        <pt x="668" y="0" on="1"/>
        <pt x="101" y="0" on="1"/>
      </contour>
      <contour>
        <pt x="487" y="1712" on="1"/>
        <pt x="752" y="2014" on="1"/>
        <pt x="944" y="2014" on="1"/>
        <pt x="1211" y="1714" on="1"/>
        <pt x="1118" y="1655" on="1"/>
        <pt x="848" y="1853" on="1"/>
        <pt x="573" y="1655" on="1"/>
      </contour>
    </TTGlyph>
    <TTGlyph name="I" xMin="115" yMin="0" xMax="705" yMax="1522">
      <contour>
        <pt x="115" y="110" on="1"/>
        <pt x="296" y="138" on="1"/>
        <pt x="296" y="1385" on="1"/>
        <pt x="115" y="1412" on="1"/>
        <pt x="115" y="1522" on="1"/>
        <pt x="705" y="1522" on="1"/>
        <pt x="705" y="1412" on="1"/>
        <pt x="526" y="1385" on="1"/>
        <pt x="526" y="137" on="1"/>
        <pt x="705" y="106" on="1"/>
        <pt x="705" y="0" on="1"/>
        <pt x="115" y="0" on="1"/>
      </contour>
    </TTGlyph>
    <TTGlyph name="IJ" xMin="115" yMin="-366" xMax="1514" yMax="1522">
      <contour>
        <pt x="115" y="110" on="1"/>
        <pt x="296" y="138" on="1"/>
        <pt x="296" y="1385" on="1"/>
        <pt x="115" y="1412" on="1"/>
        <pt x="115" y="1522" on="1"/>
        <pt x="705" y="1522" on="1"/>
        <pt x="705" y="1412" on="1"/>
        <pt x="526" y="1385" on="1"/>
        <pt x="526" y="137" on="1"/>
        <pt x="705" y="106" on="1"/>
        <pt x="705" y="0" on="1"/>
        <pt x="115" y="0" on="1"/>
      </contour>
      <contour>
        <pt x="1067" y="3" on="1"/>
        <pt x="1079" y="45" on="0"/>
        <pt x="1095" y="129" on="0"/>
        <pt x="1104" y="240" on="0"/>
        <pt x="1108" y="390" on="0"/>
        <pt x="1108" y="497" on="1"/>
        <pt x="1108" y="1385" on="1"/>
        <pt x="926" y="1412" on="1"/>
        <pt x="926" y="1522" on="1"/>
        <pt x="1514" y="1522" on="1"/>
        <pt x="1514" y="1412" on="1"/>
        <pt x="1338" y="1385" on="1"/>
        <pt x="1338" y="564" on="1"/>
        <pt x="1338" y="488" on="0"/>
        <pt x="1338" y="345" on="0"/>
        <pt x="1334" y="214" on="0"/>
        <pt x="1324" y="98" on="0"/>
        <pt x="1314" y="50" on="1"/>
        <pt x="1295" y="-40" on="0"/>
        <pt x="1202" y="-182" on="0"/>
        <pt x="1079" y="-286" on="0"/>
        <pt x="939" y="-351" on="0"/>
        <pt x="872" y="-366" on="1"/>
        <pt x="817" y="-273" on="1"/>
        <pt x="858" y="-259" on="0"/>
        <pt x="934" y="-209" on="0"/>
        <pt x="999" y="-140" on="0"/>
        <pt x="1051" y="-51" on="0"/>
      </contour>
    </TTGlyph>
    <TTGlyph name="Iacute" xMin="115" yMin="0" xMax="759" yMax="2014">
      <contour>
        <pt x="115" y="110" on="1"/>
        <pt x="296" y="138" on="1"/>
        <pt x="296" y="1385" on="1"/>
        <pt x="115" y="1412" on="1"/>
        <pt x="115" y="1522" on="1"/>
        <pt x="705" y="1522" on="1"/>
        <pt x="705" y="1412" on="1"/>
        <pt x="526" y="1385" on="1"/>
        <pt x="526" y="137" on="1"/>
        <pt x="705" y="106" on="1"/>
        <pt x="705" y="0" on="1"/>
        <pt x="115" y="0" on="1"/>
      </contour>
      <contour>
        <pt x="272" y="1701" on="1"/>
        <pt x="606" y="2014" on="1"/>
        <pt x="607" y="2014" on="1"/>
        <pt x="759" y="1882" on="1"/>
        <pt x="742" y="1858" on="0"/>
        <pt x="682" y="1806" on="0"/>
        <pt x="606" y="1755" on="0"/>
        <pt x="521" y="1707" on="0"/>
        <pt x="442" y="1668" on="0"/>
        <pt x="373" y="1639" on="0"/>
        <pt x="351" y="1633" on="1"/>
        <pt x="350" y="1633" on="1"/>
      </contour>
    </TTGlyph>
    <TTGlyph name="Ibreve" xMin="80" yMin="0" xMax="751" yMax="1997">
      <contour>
        <pt x="115" y="110" on="1"/>
        <pt x="296" y="138" on="1"/>
        <pt x="296" y="1385" on="1"/>
        <pt x="115" y="1412" on="1"/>
        <pt x="115" y="1522" on="1"/>
        <pt x="705" y="1522" on="1"/>
        <pt x="705" y="1412" on="1"/>
        <pt x="526" y="1385" on="1"/>
        <pt x="526" y="137" on="1"/>
        <pt x="705" y="106" on="1"/>
        <pt x="705" y="0" on="1"/>
        <pt x="115" y="0" on="1"/>
      </contour>
      <contour>
        <pt x="418" y="1643" on="1"/>
        <pt x="336" y="1643" on="0"/>
        <pt x="210" y="1692" on="0"/>
        <pt x="124" y="1776" on="0"/>
        <pt x="80" y="1890" on="0"/>
        <pt x="80" y="1955" on="1"/>
        <pt x="80" y="1966" on="0"/>
        <pt x="80" y="1986" on="0"/>
        <pt x="82" y="1997" on="1"/>
        <pt x="203" y="1997" on="1"/>
        <pt x="203" y="1993" on="0"/>
        <pt x="204" y="1979" on="0"/>
        <pt x="206" y="1970" on="1"/>
        <pt x="210" y="1950" on="0"/>
        <pt x="232" y="1897" on="0"/>
        <pt x="280" y="1849" on="0"/>
        <pt x="359" y="1816" on="0"/>
        <pt x="420" y="1816" on="1"/>
        <pt x="481" y="1816" on="0"/>
        <pt x="559" y="1850" on="0"/>
        <pt x="606" y="1898" on="0"/>
        <pt x="626" y="1951" on="0"/>
        <pt x="629" y="1971" on="1"/>
        <pt x="631" y="1981" on="0"/>
        <pt x="631" y="1993" on="0"/>
        <pt x="631" y="1997" on="1"/>
        <pt x="749" y="1997" on="1"/>
        <pt x="751" y="1986" on="0"/>
        <pt x="751" y="1967" on="0"/>
        <pt x="751" y="1956" on="1"/>
        <pt x="751" y="1891" on="0"/>
        <pt x="706" y="1777" on="0"/>
        <pt x="621" y="1692" on="0"/>
        <pt x="497" y="1643" on="0"/>
      </contour>
    </TTGlyph>
    <TTGlyph name="Icircumflex" xMin="55" yMin="0" xMax="779" yMax="2014">
      <contour>
        <pt x="115" y="110" on="1"/>
        <pt x="296" y="138" on="1"/>
        <pt x="296" y="1385" on="1"/>
        <pt x="115" y="1412" on="1"/>
        <pt x="115" y="1522" on="1"/>
        <pt x="705" y="1522" on="1"/>
        <pt x="705" y="1412" on="1"/>
        <pt x="526" y="1385" on="1"/>
        <pt x="526" y="137" on="1"/>
        <pt x="705" y="106" on="1"/>
        <pt x="705" y="0" on="1"/>
        <pt x="115" y="0" on="1"/>
      </contour>
      <contour>
        <pt x="55" y="1712" on="1"/>
        <pt x="320" y="2014" on="1"/>
        <pt x="512" y="2014" on="1"/>
        <pt x="779" y="1714" on="1"/>
        <pt x="686" y="1655" on="1"/>
        <pt x="416" y="1853" on="1"/>
        <pt x="141" y="1655" on="1"/>
      </contour>
    </TTGlyph>
    <TTGlyph name="Idieresis" xMin="27" yMin="0" xMax="808" yMax="1991">
      <contour>
        <pt x="115" y="110" on="1"/>
        <pt x="296" y="138" on="1"/>
        <pt x="296" y="1385" on="1"/>
        <pt x="115" y="1412" on="1"/>
        <pt x="115" y="1522" on="1"/>
        <pt x="705" y="1522" on="1"/>
        <pt x="705" y="1412" on="1"/>
        <pt x="526" y="1385" on="1"/>
        <pt x="526" y="137" on="1"/>
        <pt x="705" y="106" on="1"/>
        <pt x="705" y="0" on="1"/>
        <pt x="115" y="0" on="1"/>
      </contour>
      <contour>
        <pt x="651" y="1690" on="1"/>
        <pt x="622" y="1690" on="0"/>
        <pt x="574" y="1711" on="0"/>
        <pt x="540" y="1749" on="0"/>
        <pt x="522" y="1800" on="0"/>
        <pt x="522" y="1829" on="1"/>
        <pt x="522" y="1861" on="0"/>
        <pt x="541" y="1919" on="0"/>
        <pt x="578" y="1964" on="0"/>
        <pt x="634" y="1991" on="0"/>
        <pt x="671" y="1991" on="1"/>
        <pt x="672" y="1991" on="1"/>
        <pt x="705" y="1991" on="0"/>
        <pt x="755" y="1967" on="0"/>
        <pt x="790" y="1928" on="0"/>
        <pt x="808" y="1877" on="0"/>
        <pt x="808" y="1851" on="1"/>
        <pt x="808" y="1817" on="0"/>
        <pt x="788" y="1758" on="0"/>
        <pt x="749" y="1715" on="0"/>
        <pt x="691" y="1690" on="0"/>
        <pt x="652" y="1690" on="1"/>
      </contour>
      <contour>
        <pt x="155" y="1690" on="1"/>
        <pt x="126" y="1690" on="0"/>
        <pt x="78" y="1711" on="0"/>
        <pt x="45" y="1749" on="0"/>
        <pt x="27" y="1800" on="0"/>
        <pt x="27" y="1829" on="1"/>
        <pt x="27" y="1861" on="0"/>
        <pt x="46" y="1919" on="0"/>
        <pt x="83" y="1964" on="0"/>
        <pt x="139" y="1991" on="0"/>
        <pt x="176" y="1991" on="1"/>
        <pt x="177" y="1991" on="1"/>
        <pt x="209" y="1991" on="0"/>
        <pt x="259" y="1967" on="0"/>
        <pt x="294" y="1928" on="0"/>
        <pt x="312" y="1877" on="0"/>
        <pt x="312" y="1851" on="1"/>
        <pt x="312" y="1817" on="0"/>
        <pt x="293" y="1758" on="0"/>
        <pt x="254" y="1715" on="0"/>
        <pt x="195" y="1690" on="0"/>
        <pt x="156" y="1690" on="1"/>
      </contour>
    </TTGlyph>
    <TTGlyph name="Idotaccent" xMin="115" yMin="0" xMax="705" yMax="2014">
      <contour>
        <pt x="115" y="110" on="1"/>
        <pt x="296" y="138" on="1"/>
        <pt x="296" y="1385" on="1"/>
        <pt x="115" y="1412" on="1"/>
        <pt x="115" y="1522" on="1"/>
        <pt x="705" y="1522" on="1"/>
        <pt x="705" y="1412" on="1"/>
        <pt x="526" y="1385" on="1"/>
        <pt x="526" y="137" on="1"/>
        <pt x="705" y="106" on="1"/>
        <pt x="705" y="0" on="1"/>
        <pt x="115" y="0" on="1"/>
      </contour>
      <contour>
        <pt x="402" y="1714" on="1"/>
        <pt x="373" y="1714" on="0"/>
        <pt x="325" y="1735" on="0"/>
        <pt x="291" y="1772" on="0"/>
        <pt x="273" y="1823" on="0"/>
        <pt x="273" y="1852" on="1"/>
        <pt x="273" y="1884" on="0"/>
        <pt x="292" y="1942" on="0"/>
        <pt x="329" y="1987" on="0"/>
        <pt x="385" y="2014" on="0"/>
        <pt x="422" y="2014" on="1"/>
        <pt x="423" y="2014" on="1"/>
        <pt x="456" y="2014" on="0"/>
        <pt x="506" y="1990" on="0"/>
        <pt x="541" y="1951" on="0"/>
        <pt x="559" y="1901" on="0"/>
        <pt x="559" y="1874" on="1"/>
        <pt x="559" y="1840" on="0"/>
        <pt x="539" y="1782" on="0"/>
        <pt x="500" y="1739" on="0"/>
        <pt x="442" y="1714" on="0"/>
        <pt x="403" y="1714" on="1"/>
        <pt x="402" y="1714" on="1"/>
      </contour>
    </TTGlyph>
    <TTGlyph name="Igrave" xMin="115" yMin="0" xMax="705" yMax="2014">
      <contour>
        <pt x="115" y="110" on="1"/>
        <pt x="296" y="138" on="1"/>
        <pt x="296" y="1385" on="1"/>
        <pt x="115" y="1412" on="1"/>
        <pt x="115" y="1522" on="1"/>
        <pt x="705" y="1522" on="1"/>
        <pt x="705" y="1412" on="1"/>
        <pt x="526" y="1385" on="1"/>
        <pt x="526" y="137" on="1"/>
        <pt x="705" y="106" on="1"/>
        <pt x="705" y="0" on="1"/>
        <pt x="115" y="0" on="1"/>
      </contour>
      <contour>
        <pt x="525" y="1633" on="1"/>
        <pt x="503" y="1639" on="0"/>
        <pt x="434" y="1668" on="0"/>
        <pt x="354" y="1707" on="0"/>
        <pt x="270" y="1755" on="0"/>
        <pt x="194" y="1806" on="0"/>
        <pt x="133" y="1858" on="0"/>
        <pt x="117" y="1882" on="1"/>
        <pt x="269" y="2014" on="1"/>
        <pt x="270" y="2014" on="1"/>
        <pt x="603" y="1701" on="1"/>
        <pt x="526" y="1633" on="1"/>
        <pt x="525" y="1633" on="1"/>
      </contour>
    </TTGlyph>
    <TTGlyph name="Imacron" xMin="115" yMin="0" xMax="705" yMax="1912">
      <contour>
        <pt x="115" y="110" on="1"/>
        <pt x="296" y="138" on="1"/>
        <pt x="296" y="1385" on="1"/>
        <pt x="115" y="1412" on="1"/>
        <pt x="115" y="1522" on="1"/>
        <pt x="705" y="1522" on="1"/>
        <pt x="705" y="1412" on="1"/>
        <pt x="526" y="1385" on="1"/>
        <pt x="526" y="137" on="1"/>
        <pt x="705" y="106" on="1"/>
        <pt x="705" y="0" on="1"/>
        <pt x="115" y="0" on="1"/>
      </contour>
      <contour>
        <pt x="141" y="1912" on="1"/>
        <pt x="698" y="1912" on="1"/>
        <pt x="698" y="1751" on="1"/>
        <pt x="141" y="1751" on="1"/>
      </contour>
    </TTGlyph>
    <TTGlyph name="Iogonek" xMin="115" yMin="-511" xMax="705" yMax="1522">
      <contour>
        <pt x="115" y="110" on="1"/>
        <pt x="296" y="138" on="1"/>
        <pt x="296" y="1385" on="1"/>
        <pt x="115" y="1412" on="1"/>
        <pt x="115" y="1522" on="1"/>
        <pt x="705" y="1522" on="1"/>
        <pt x="705" y="1412" on="1"/>
        <pt x="526" y="1385" on="1"/>
        <pt x="526" y="137" on="1"/>
        <pt x="705" y="106" on="1"/>
        <pt x="705" y="0" on="1"/>
        <pt x="546" y="0" on="1"/>
        <pt x="500" y="-21" on="0"/>
        <pt x="420" y="-82" on="0"/>
        <pt x="361" y="-148" on="0"/>
        <pt x="327" y="-214" on="0"/>
        <pt x="327" y="-242" on="1"/>
        <pt x="327" y="-275" on="0"/>
        <pt x="350" y="-320" on="0"/>
        <pt x="390" y="-349" on="0"/>
        <pt x="443" y="-362" on="0"/>
        <pt x="474" y="-362" on="1"/>
        <pt x="509" y="-362" on="0"/>
        <pt x="578" y="-346" on="0"/>
        <pt x="612" y="-332" on="1"/>
        <pt x="612" y="-441" on="1"/>
        <pt x="590" y="-457" on="0"/>
        <pt x="535" y="-483" on="0"/>
        <pt x="474" y="-501" on="0"/>
        <pt x="409" y="-511" on="0"/>
        <pt x="378" y="-511" on="1"/>
        <pt x="330" y="-511" on="0"/>
        <pt x="236" y="-491" on="0"/>
        <pt x="163" y="-445" on="0"/>
        <pt x="117" y="-370" on="0"/>
        <pt x="117" y="-315" on="1"/>
        <pt x="117" y="-274" on="0"/>
        <pt x="162" y="-183" on="0"/>
        <pt x="237" y="-96" on="0"/>
        <pt x="335" y="-23" on="0"/>
        <pt x="387" y="0" on="1"/>
        <pt x="115" y="0" on="1"/>
      </contour>
    </TTGlyph>
    <TTGlyph name="Itilde" xMin="-13" yMin="0" xMax="849" yMax="2011">
      <contour>
        <pt x="115" y="110" on="1"/>
        <pt x="296" y="138" on="1"/>
        <pt x="296" y="1385" on="1"/>
        <pt x="115" y="1412" on="1"/>
        <pt x="115" y="1522" on="1"/>
        <pt x="705" y="1522" on="1"/>
        <pt x="705" y="1412" on="1"/>
        <pt x="526" y="1385" on="1"/>
        <pt x="526" y="137" on="1"/>
        <pt x="705" y="106" on="1"/>
        <pt x="705" y="0" on="1"/>
        <pt x="115" y="0" on="1"/>
      </contour>
      <contour>
        <pt x="-13" y="1796" on="1"/>
        <pt x="-4" y="1830" on="0"/>
        <pt x="47" y="1905" on="0"/>
        <pt x="123" y="1969" on="0"/>
        <pt x="221" y="2011" on="0"/>
        <pt x="278" y="2011" on="1"/>
        <pt x="319" y="2011" on="0"/>
        <pt x="384" y="1987" on="0"/>
        <pt x="438" y="1950" on="0"/>
        <pt x="483" y="1907" on="0"/>
        <pt x="528" y="1870" on="0"/>
        <pt x="574" y="1846" on="0"/>
        <pt x="601" y="1846" on="1"/>
        <pt x="635" y="1846" on="0"/>
        <pt x="684" y="1874" on="0"/>
        <pt x="717" y="1912" on="0"/>
        <pt x="738" y="1952" on="0"/>
        <pt x="746" y="1964" on="1"/>
        <pt x="849" y="1901" on="1"/>
        <pt x="834" y="1860" on="0"/>
        <pt x="787" y="1782" on="0"/>
        <pt x="720" y="1722" on="0"/>
        <pt x="634" y="1686" on="0"/>
        <pt x="582" y="1686" on="1"/>
        <pt x="541" y="1686" on="0"/>
        <pt x="476" y="1710" on="0"/>
        <pt x="420" y="1747" on="0"/>
        <pt x="372" y="1790" on="0"/>
        <pt x="323" y="1827" on="0"/>
        <pt x="273" y="1851" on="0"/>
        <pt x="243" y="1851" on="1"/>
        <pt x="209" y="1851" on="0"/>
        <pt x="158" y="1823" on="0"/>
        <pt x="121" y="1784" on="0"/>
        <pt x="96" y="1744" on="0"/>
        <pt x="89" y="1733" on="1"/>
      </contour>
    </TTGlyph>
    <TTGlyph name="J" xMin="-4" yMin="-366" xMax="693" yMax="1522">
      <contour>
        <pt x="246" y="3" on="1"/>
        <pt x="258" y="45" on="0"/>
        <pt x="274" y="129" on="0"/>
        <pt x="283" y="240" on="0"/>
        <pt x="287" y="390" on="0"/>
        <pt x="287" y="497" on="1"/>
        <pt x="287" y="1385" on="1"/>
        <pt x="105" y="1412" on="1"/>
        <pt x="105" y="1522" on="1"/>
        <pt x="693" y="1522" on="1"/>
        <pt x="693" y="1412" on="1"/>
        <pt x="517" y="1385" on="1"/>
        <pt x="517" y="564" on="1"/>
        <pt x="517" y="488" on="0"/>
        <pt x="517" y="345" on="0"/>
        <pt x="513" y="214" on="0"/>
        <pt x="503" y="98" on="0"/>
        <pt x="493" y="50" on="1"/>
        <pt x="474" y="-40" on="0"/>
        <pt x="381" y="-182" on="0"/>
        <pt x="258" y="-286" on="0"/>
        <pt x="118" y="-351" on="0"/>
        <pt x="51" y="-366" on="1"/>
        <pt x="-4" y="-273" on="1"/>
        <pt x="37" y="-259" on="0"/>
        <pt x="113" y="-209" on="0"/>
        <pt x="178" y="-140" on="0"/>
        <pt x="230" y="-51" on="0"/>
      </contour>
    </TTGlyph>
    <TTGlyph name="Jcircumflex" xMin="-4" yMin="-366" xMax="760" yMax="2014">
      <contour>
        <pt x="246" y="3" on="1"/>
        <pt x="258" y="45" on="0"/>
        <pt x="274" y="129" on="0"/>
        <pt x="283" y="240" on="0"/>
        <pt x="287" y="390" on="0"/>
        <pt x="287" y="497" on="1"/>
        <pt x="287" y="1385" on="1"/>
        <pt x="105" y="1412" on="1"/>
        <pt x="105" y="1522" on="1"/>
        <pt x="693" y="1522" on="1"/>
        <pt x="693" y="1412" on="1"/>
        <pt x="517" y="1385" on="1"/>
        <pt x="517" y="564" on="1"/>
        <pt x="517" y="488" on="0"/>
        <pt x="517" y="345" on="0"/>
        <pt x="513" y="214" on="0"/>
        <pt x="503" y="98" on="0"/>
        <pt x="493" y="50" on="1"/>
        <pt x="474" y="-40" on="0"/>
        <pt x="381" y="-182" on="0"/>
        <pt x="258" y="-286" on="0"/>
        <pt x="118" y="-351" on="0"/>
        <pt x="51" y="-366" on="1"/>
        <pt x="-4" y="-273" on="1"/>
        <pt x="37" y="-259" on="0"/>
        <pt x="113" y="-209" on="0"/>
        <pt x="178" y="-140" on="0"/>
        <pt x="230" y="-51" on="0"/>
      </contour>
      <contour>
        <pt x="36" y="1712" on="1"/>
        <pt x="301" y="2014" on="1"/>
        <pt x="493" y="2014" on="1"/>
        <pt x="760" y="1714" on="1"/>
        <pt x="667" y="1655" on="1"/>
        <pt x="397" y="1853" on="1"/>
        <pt x="122" y="1655" on="1"/>
      </contour>
    </TTGlyph>
    <TTGlyph name="K" xMin="100" yMin="0" xMax="1478" yMax="1522">
      <contour>
        <pt x="100" y="110" on="1"/>
        <pt x="268" y="138" on="1"/>
        <pt x="268" y="1385" on="1"/>
        <pt x="104" y="1412" on="1"/>
        <pt x="104" y="1522" on="1"/>
        <pt x="657" y="1522" on="1"/>
        <pt x="657" y="1412" on="1"/>
        <pt x="497" y="1385" on="1"/>
        <pt x="497" y="685" on="1"/>
        <pt x="1072" y="1384" on="1"/>
        <pt x="909" y="1412" on="1"/>
        <pt x="908" y="1522" on="1"/>
        <pt x="1411" y="1522" on="1"/>
        <pt x="1411" y="1412" on="1"/>
        <pt x="1260" y="1385" on="1"/>
        <pt x="831" y="896" on="1"/>
        <pt x="867" y="865" on="0"/>
        <pt x="946" y="768" on="0"/>
        <pt x="1029" y="651" on="0"/>
        <pt x="1113" y="521" on="0"/>
        <pt x="1193" y="395" on="0"/>
        <pt x="1266" y="280" on="0"/>
        <pt x="1328" y="191" on="0"/>
        <pt x="1376" y="138" on="0"/>
        <pt x="1390" y="136" on="1"/>
        <pt x="1478" y="110" on="1"/>
        <pt x="1478" y="0" on="1"/>
        <pt x="1182" y="0" on="1"/>
        <pt x="1163" y="0" on="0"/>
        <pt x="1114" y="49" on="0"/>
        <pt x="1058" y="132" on="0"/>
        <pt x="995" y="241" on="0"/>
        <pt x="929" y="363" on="0"/>
        <pt x="860" y="490" on="0"/>
        <pt x="792" y="607" on="0"/>
        <pt x="726" y="707" on="0"/>
        <pt x="695" y="741" on="1"/>
        <pt x="497" y="511" on="1"/>
        <pt x="497" y="137" on="1"/>
        <pt x="685" y="106" on="1"/>
        <pt x="685" y="0" on="1"/>
        <pt x="100" y="0" on="1"/>
      </contour>
    </TTGlyph>
    <TTGlyph name="Kcommaaccent" xMin="100" yMin="-560" xMax="1478" yMax="1522">
      <contour>
        <pt x="677" y="-223" on="1"/>
        <pt x="677" y="-188" on="0"/>
        <pt x="702" y="-144" on="0"/>
        <pt x="738" y="-120" on="0"/>
        <pt x="776" y="-111" on="0"/>
        <pt x="790" y="-111" on="1"/>
        <pt x="801" y="-111" on="1"/>
        <pt x="868" y="-111" on="0"/>
        <pt x="946" y="-204" on="0"/>
        <pt x="946" y="-279" on="1"/>
        <pt x="946" y="-326" on="0"/>
        <pt x="922" y="-404" on="0"/>
        <pt x="885" y="-466" on="0"/>
        <pt x="841" y="-513" on="0"/>
        <pt x="803" y="-544" on="0"/>
        <pt x="777" y="-560" on="0"/>
        <pt x="776" y="-560" on="1"/>
        <pt x="774" y="-560" on="1"/>
        <pt x="708" y="-509" on="1"/>
        <pt x="708" y="-498" on="1"/>
        <pt x="723" y="-491" on="0"/>
        <pt x="745" y="-463" on="0"/>
        <pt x="760" y="-427" on="0"/>
        <pt x="768" y="-387" on="0"/>
        <pt x="768" y="-370" on="1"/>
        <pt x="768" y="-344" on="0"/>
        <pt x="741" y="-322" on="0"/>
        <pt x="724" y="-312" on="1"/>
        <pt x="706" y="-301" on="0"/>
        <pt x="677" y="-262" on="0"/>
      </contour>
      <contour>
        <pt x="100" y="110" on="1"/>
        <pt x="268" y="138" on="1"/>
        <pt x="268" y="1385" on="1"/>
        <pt x="104" y="1412" on="1"/>
        <pt x="104" y="1522" on="1"/>
        <pt x="657" y="1522" on="1"/>
        <pt x="657" y="1412" on="1"/>
        <pt x="497" y="1385" on="1"/>
        <pt x="497" y="685" on="1"/>
        <pt x="1072" y="1384" on="1"/>
        <pt x="909" y="1412" on="1"/>
        <pt x="908" y="1522" on="1"/>
        <pt x="1411" y="1522" on="1"/>
        <pt x="1411" y="1412" on="1"/>
        <pt x="1260" y="1385" on="1"/>
        <pt x="831" y="896" on="1"/>
        <pt x="867" y="865" on="0"/>
        <pt x="946" y="768" on="0"/>
        <pt x="1029" y="651" on="0"/>
        <pt x="1113" y="521" on="0"/>
        <pt x="1193" y="395" on="0"/>
        <pt x="1266" y="280" on="0"/>
        <pt x="1328" y="191" on="0"/>
        <pt x="1376" y="138" on="0"/>
        <pt x="1390" y="136" on="1"/>
        <pt x="1478" y="110" on="1"/>
        <pt x="1478" y="0" on="1"/>
        <pt x="1182" y="0" on="1"/>
        <pt x="1163" y="0" on="0"/>
        <pt x="1114" y="49" on="0"/>
        <pt x="1058" y="132" on="0"/>
        <pt x="995" y="241" on="0"/>
        <pt x="929" y="363" on="0"/>
        <pt x="860" y="490" on="0"/>
        <pt x="792" y="607" on="0"/>
        <pt x="726" y="707" on="0"/>
        <pt x="695" y="741" on="1"/>
        <pt x="497" y="511" on="1"/>
        <pt x="497" y="137" on="1"/>
        <pt x="685" y="106" on="1"/>
        <pt x="685" y="0" on="1"/>
        <pt x="100" y="0" on="1"/>
      </contour>
    </TTGlyph>
    <TTGlyph name="L" xMin="100" yMin="0" xMax="1262" yMax="1522">
      <contour>
        <pt x="100" y="110" on="1"/>
        <pt x="268" y="138" on="1"/>
        <pt x="268" y="1385" on="1"/>
        <pt x="104" y="1412" on="1"/>
        <pt x="104" y="1522" on="1"/>
        <pt x="689" y="1522" on="1"/>
        <pt x="689" y="1412" on="1"/>
        <pt x="497" y="1385" on="1"/>
        <pt x="497" y="138" on="1"/>
        <pt x="1007" y="157" on="1"/>
        <pt x="1129" y="475" on="1"/>
        <pt x="1262" y="449" on="1"/>
        <pt x="1194" y="0" on="1"/>
        <pt x="100" y="0" on="1"/>
      </contour>
    </TTGlyph>
    <TTGlyph name="Lacute" xMin="100" yMin="0" xMax="1262" yMax="2014">
      <contour>
        <pt x="397" y="1701" on="1"/>
        <pt x="731" y="2014" on="1"/>
        <pt x="732" y="2014" on="1"/>
        <pt x="884" y="1882" on="1"/>
        <pt x="867" y="1858" on="0"/>
        <pt x="807" y="1806" on="0"/>
        <pt x="731" y="1755" on="0"/>
        <pt x="646" y="1707" on="0"/>
        <pt x="567" y="1668" on="0"/>
        <pt x="498" y="1639" on="0"/>
        <pt x="476" y="1633" on="1"/>
        <pt x="475" y="1633" on="1"/>
      </contour>
      <contour>
        <pt x="100" y="110" on="1"/>
        <pt x="268" y="138" on="1"/>
        <pt x="268" y="1385" on="1"/>
        <pt x="104" y="1412" on="1"/>
        <pt x="104" y="1522" on="1"/>
        <pt x="689" y="1522" on="1"/>
        <pt x="689" y="1412" on="1"/>
        <pt x="497" y="1385" on="1"/>
        <pt x="497" y="138" on="1"/>
        <pt x="1007" y="157" on="1"/>
        <pt x="1129" y="475" on="1"/>
        <pt x="1262" y="449" on="1"/>
        <pt x="1194" y="0" on="1"/>
        <pt x="100" y="0" on="1"/>
      </contour>
    </TTGlyph>
    <TTGlyph name="Lcaron" xMin="100" yMin="0" xMax="1262" yMax="1685">
      <contour>
        <pt x="100" y="110" on="1"/>
        <pt x="268" y="138" on="1"/>
        <pt x="268" y="1385" on="1"/>
        <pt x="104" y="1412" on="1"/>
        <pt x="104" y="1522" on="1"/>
        <pt x="689" y="1522" on="1"/>
        <pt x="689" y="1412" on="1"/>
        <pt x="497" y="1385" on="1"/>
        <pt x="497" y="138" on="1"/>
        <pt x="1007" y="157" on="1"/>
        <pt x="1129" y="475" on="1"/>
        <pt x="1262" y="449" on="1"/>
        <pt x="1194" y="0" on="1"/>
        <pt x="100" y="0" on="1"/>
      </contour>
      <contour>
        <pt x="920" y="1070" on="1"/>
        <pt x="915" y="1096" on="1"/>
        <pt x="933" y="1164" on="0"/>
        <pt x="946" y="1295" on="0"/>
        <pt x="946" y="1347" on="1"/>
        <pt x="946" y="1392" on="0"/>
        <pt x="936" y="1474" on="0"/>
        <pt x="921" y="1542" on="0"/>
        <pt x="903" y="1591" on="0"/>
        <pt x="894" y="1602" on="1"/>
        <pt x="909" y="1644" on="1"/>
        <pt x="1078" y="1685" on="1"/>
        <pt x="1092" y="1671" on="0"/>
        <pt x="1116" y="1620" on="0"/>
        <pt x="1133" y="1555" on="0"/>
        <pt x="1142" y="1482" on="0"/>
        <pt x="1142" y="1445" on="1"/>
        <pt x="1142" y="1385" on="0"/>
        <pt x="1121" y="1259" on="0"/>
        <pt x="1086" y="1146" on="0"/>
        <pt x="1039" y="1058" on="0"/>
        <pt x="1013" y="1035" on="1"/>
      </contour>
    </TTGlyph>
    <TTGlyph name="Lcommaaccent" xMin="100" yMin="-560" xMax="1262" yMax="1522">
      <contour>
        <pt x="573" y="-223" on="1"/>
        <pt x="573" y="-188" on="0"/>
        <pt x="598" y="-144" on="0"/>
        <pt x="634" y="-120" on="0"/>
        <pt x="672" y="-111" on="0"/>
        <pt x="686" y="-111" on="1"/>
        <pt x="697" y="-111" on="1"/>
        <pt x="764" y="-111" on="0"/>
        <pt x="842" y="-204" on="0"/>
        <pt x="842" y="-279" on="1"/>
        <pt x="842" y="-326" on="0"/>
        <pt x="818" y="-404" on="0"/>
        <pt x="781" y="-466" on="0"/>
        <pt x="737" y="-513" on="0"/>
        <pt x="699" y="-544" on="0"/>
        <pt x="673" y="-560" on="0"/>
        <pt x="672" y="-560" on="1"/>
        <pt x="670" y="-560" on="1"/>
        <pt x="604" y="-509" on="1"/>
        <pt x="604" y="-498" on="1"/>
        <pt x="619" y="-491" on="0"/>
        <pt x="641" y="-463" on="0"/>
        <pt x="656" y="-427" on="0"/>
        <pt x="664" y="-387" on="0"/>
        <pt x="664" y="-370" on="1"/>
        <pt x="664" y="-344" on="0"/>
        <pt x="637" y="-322" on="0"/>
        <pt x="620" y="-312" on="1"/>
        <pt x="602" y="-301" on="0"/>
        <pt x="573" y="-262" on="0"/>
      </contour>
      <contour>
        <pt x="100" y="110" on="1"/>
        <pt x="268" y="138" on="1"/>
        <pt x="268" y="1385" on="1"/>
        <pt x="104" y="1412" on="1"/>
        <pt x="104" y="1522" on="1"/>
        <pt x="689" y="1522" on="1"/>
        <pt x="689" y="1412" on="1"/>
        <pt x="497" y="1385" on="1"/>
        <pt x="497" y="138" on="1"/>
        <pt x="1007" y="157" on="1"/>
        <pt x="1129" y="475" on="1"/>
        <pt x="1262" y="449" on="1"/>
        <pt x="1194" y="0" on="1"/>
        <pt x="100" y="0" on="1"/>
      </contour>
    </TTGlyph>
    <TTGlyph name="Ldot" xMin="100" yMin="0" xMax="1262" yMax="1522">
      <contour>
        <pt x="100" y="110" on="1"/>
        <pt x="268" y="138" on="1"/>
        <pt x="268" y="1385" on="1"/>
        <pt x="104" y="1412" on="1"/>
        <pt x="104" y="1522" on="1"/>
        <pt x="689" y="1522" on="1"/>
        <pt x="689" y="1412" on="1"/>
        <pt x="497" y="1385" on="1"/>
        <pt x="497" y="138" on="1"/>
        <pt x="1007" y="157" on="1"/>
        <pt x="1129" y="475" on="1"/>
        <pt x="1262" y="449" on="1"/>
        <pt x="1194" y="0" on="1"/>
        <pt x="100" y="0" on="1"/>
      </contour>
      <contour>
        <pt x="790" y="852" on="1"/>
        <pt x="790" y="887" on="0"/>
        <pt x="819" y="946" on="0"/>
        <pt x="867" y="990" on="0"/>
        <pt x="927" y="1014" on="0"/>
        <pt x="958" y="1014" on="1"/>
        <pt x="995" y="1014" on="0"/>
        <pt x="1050" y="992" on="0"/>
        <pt x="1084" y="954" on="0"/>
        <pt x="1101" y="905" on="0"/>
        <pt x="1101" y="877" on="1"/>
        <pt x="1101" y="840" on="0"/>
        <pt x="1073" y="780" on="0"/>
        <pt x="1027" y="738" on="0"/>
        <pt x="965" y="715" on="0"/>
        <pt x="932" y="715" on="1"/>
        <pt x="904" y="715" on="0"/>
        <pt x="853" y="734" on="0"/>
        <pt x="814" y="769" on="0"/>
        <pt x="790" y="820" on="0"/>
      </contour>
    </TTGlyph>
    <TTGlyph name="Lslash" xMin="45" yMin="0" xMax="1262" yMax="1522">
      <contour>
        <pt x="100" y="110" on="1"/>
        <pt x="268" y="138" on="1"/>
        <pt x="268" y="618" on="1"/>
        <pt x="45" y="523" on="1"/>
        <pt x="45" y="646" on="1"/>
        <pt x="268" y="744" on="1"/>
        <pt x="268" y="1385" on="1"/>
        <pt x="104" y="1412" on="1"/>
        <pt x="104" y="1522" on="1"/>
        <pt x="689" y="1522" on="1"/>
        <pt x="689" y="1412" on="1"/>
        <pt x="497" y="1385" on="1"/>
        <pt x="497" y="838" on="1"/>
        <pt x="874" y="1005" on="1"/>
        <pt x="874" y="873" on="1"/>
        <pt x="497" y="711" on="1"/>
        <pt x="497" y="138" on="1"/>
        <pt x="1007" y="157" on="1"/>
        <pt x="1129" y="475" on="1"/>
        <pt x="1262" y="449" on="1"/>
        <pt x="1194" y="0" on="1"/>
        <pt x="100" y="0" on="1"/>
      </contour>
    </TTGlyph>
    <TTGlyph name="M" xMin="6" yMin="-16" xMax="2045" yMax="1522">
      <contour>
        <pt x="6" y="110" on="1"/>
        <pt x="186" y="137" on="1"/>
        <pt x="342" y="1385" on="1"/>
        <pt x="129" y="1412" on="1"/>
        <pt x="129" y="1522" on="1"/>
        <pt x="673" y="1522" on="1"/>
        <pt x="997" y="502" on="1"/>
        <pt x="1034" y="318" on="1"/>
        <pt x="1070" y="502" on="1"/>
        <pt x="1379" y="1522" on="1"/>
        <pt x="1913" y="1522" on="1"/>
        <pt x="1913" y="1412" on="1"/>
        <pt x="1699" y="1384" on="1"/>
        <pt x="1864" y="138" on="1"/>
        <pt x="2045" y="110" on="1"/>
        <pt x="2045" y="0" on="1"/>
        <pt x="1459" y="0" on="1"/>
        <pt x="1459" y="110" on="1"/>
        <pt x="1631" y="137" on="1"/>
        <pt x="1536" y="1040" on="1"/>
        <pt x="1490" y="1434" on="1"/>
        <pt x="1427" y="1184" on="1"/>
        <pt x="1061" y="-16" on="1"/>
        <pt x="951" y="-16" on="1"/>
        <pt x="587" y="1056" on="1"/>
        <pt x="477" y="1429" on="1"/>
        <pt x="449" y="1041" on="1"/>
        <pt x="360" y="137" on="1"/>
        <pt x="552" y="110" on="1"/>
        <pt x="552" y="0" on="1"/>
        <pt x="6" y="0" on="1"/>
      </contour>
    </TTGlyph>
    <TTGlyph name="N" xMin="98" yMin="0" xMax="1589" yMax="1522">
      <contour>
        <pt x="98" y="110" on="1"/>
        <pt x="265" y="137" on="1"/>
        <pt x="265" y="1385" on="1"/>
        <pt x="98" y="1412" on="1"/>
        <pt x="98" y="1522" on="1"/>
        <pt x="485" y="1522" on="1"/>
        <pt x="1168" y="536" on="1"/>
        <pt x="1267" y="351" on="1"/>
        <pt x="1267" y="1385" on="1"/>
        <pt x="1086" y="1412" on="1"/>
        <pt x="1086" y="1522" on="1"/>
        <pt x="1589" y="1522" on="1"/>
        <pt x="1589" y="1412" on="1"/>
        <pt x="1420" y="1384" on="1"/>
        <pt x="1420" y="0" on="1"/>
        <pt x="1272" y="0" on="1"/>
        <pt x="574" y="1001" on="1"/>
        <pt x="418" y="1268" on="1"/>
        <pt x="418" y="137" on="1"/>
        <pt x="603" y="110" on="1"/>
        <pt x="603" y="0" on="1"/>
        <pt x="98" y="0" on="1"/>
      </contour>
    </TTGlyph>
    <TTGlyph name="Nacute" xMin="98" yMin="0" xMax="1589" yMax="2014">
      <contour>
        <pt x="696" y="1701" on="1"/>
        <pt x="1030" y="2014" on="1"/>
        <pt x="1031" y="2014" on="1"/>
        <pt x="1183" y="1882" on="1"/>
        <pt x="1166" y="1858" on="0"/>
        <pt x="1106" y="1806" on="0"/>
        <pt x="1030" y="1755" on="0"/>
        <pt x="945" y="1707" on="0"/>
        <pt x="866" y="1668" on="0"/>
        <pt x="797" y="1639" on="0"/>
        <pt x="775" y="1633" on="1"/>
        <pt x="774" y="1633" on="1"/>
      </contour>
      <contour>
        <pt x="98" y="110" on="1"/>
        <pt x="265" y="137" on="1"/>
        <pt x="265" y="1385" on="1"/>
        <pt x="98" y="1412" on="1"/>
        <pt x="98" y="1522" on="1"/>
        <pt x="485" y="1522" on="1"/>
        <pt x="1168" y="536" on="1"/>
        <pt x="1267" y="351" on="1"/>
        <pt x="1267" y="1385" on="1"/>
        <pt x="1086" y="1412" on="1"/>
        <pt x="1086" y="1522" on="1"/>
        <pt x="1589" y="1522" on="1"/>
        <pt x="1589" y="1412" on="1"/>
        <pt x="1420" y="1384" on="1"/>
        <pt x="1420" y="0" on="1"/>
        <pt x="1272" y="0" on="1"/>
        <pt x="574" y="1001" on="1"/>
        <pt x="418" y="1268" on="1"/>
        <pt x="418" y="137" on="1"/>
        <pt x="603" y="110" on="1"/>
        <pt x="603" y="0" on="1"/>
        <pt x="98" y="0" on="1"/>
      </contour>
    </TTGlyph>
    <TTGlyph name="Ncaron" xMin="98" yMin="0" xMax="1589" yMax="2014">
      <contour>
        <pt x="500" y="1954" on="1"/>
        <pt x="593" y="2014" on="1"/>
        <pt x="843" y="1830" on="1"/>
        <pt x="1101" y="2014" on="1"/>
        <pt x="1187" y="1957" on="1"/>
        <pt x="940" y="1679" on="1"/>
        <pt x="747" y="1679" on="1"/>
      </contour>
      <contour>
        <pt x="98" y="110" on="1"/>
        <pt x="265" y="137" on="1"/>
        <pt x="265" y="1385" on="1"/>
        <pt x="98" y="1412" on="1"/>
        <pt x="98" y="1522" on="1"/>
        <pt x="485" y="1522" on="1"/>
        <pt x="1168" y="536" on="1"/>
        <pt x="1267" y="351" on="1"/>
        <pt x="1267" y="1385" on="1"/>
        <pt x="1086" y="1412" on="1"/>
        <pt x="1086" y="1522" on="1"/>
        <pt x="1589" y="1522" on="1"/>
        <pt x="1589" y="1412" on="1"/>
        <pt x="1420" y="1384" on="1"/>
        <pt x="1420" y="0" on="1"/>
        <pt x="1272" y="0" on="1"/>
        <pt x="574" y="1001" on="1"/>
        <pt x="418" y="1268" on="1"/>
        <pt x="418" y="137" on="1"/>
        <pt x="603" y="110" on="1"/>
        <pt x="603" y="0" on="1"/>
        <pt x="98" y="0" on="1"/>
      </contour>
    </TTGlyph>
    <TTGlyph name="Ncommaaccent" xMin="98" yMin="-560" xMax="1589" yMax="1522">
      <contour>
        <pt x="729" y="-223" on="1"/>
        <pt x="729" y="-188" on="0"/>
        <pt x="754" y="-144" on="0"/>
        <pt x="790" y="-120" on="0"/>
        <pt x="828" y="-111" on="0"/>
        <pt x="842" y="-111" on="1"/>
        <pt x="853" y="-111" on="1"/>
        <pt x="920" y="-111" on="0"/>
        <pt x="998" y="-204" on="0"/>
        <pt x="998" y="-279" on="1"/>
        <pt x="998" y="-326" on="0"/>
        <pt x="974" y="-404" on="0"/>
        <pt x="937" y="-466" on="0"/>
        <pt x="893" y="-513" on="0"/>
        <pt x="855" y="-544" on="0"/>
        <pt x="829" y="-560" on="0"/>
        <pt x="828" y="-560" on="1"/>
        <pt x="826" y="-560" on="1"/>
        <pt x="760" y="-509" on="1"/>
        <pt x="760" y="-498" on="1"/>
        <pt x="775" y="-491" on="0"/>
        <pt x="797" y="-463" on="0"/>
        <pt x="812" y="-427" on="0"/>
        <pt x="820" y="-387" on="0"/>
        <pt x="820" y="-370" on="1"/>
        <pt x="820" y="-344" on="0"/>
        <pt x="793" y="-322" on="0"/>
        <pt x="776" y="-312" on="1"/>
        <pt x="758" y="-301" on="0"/>
        <pt x="729" y="-262" on="0"/>
      </contour>
      <contour>
        <pt x="98" y="110" on="1"/>
        <pt x="265" y="137" on="1"/>
        <pt x="265" y="1385" on="1"/>
        <pt x="98" y="1412" on="1"/>
        <pt x="98" y="1522" on="1"/>
        <pt x="485" y="1522" on="1"/>
        <pt x="1168" y="536" on="1"/>
        <pt x="1267" y="351" on="1"/>
        <pt x="1267" y="1385" on="1"/>
        <pt x="1086" y="1412" on="1"/>
        <pt x="1086" y="1522" on="1"/>
        <pt x="1589" y="1522" on="1"/>
        <pt x="1589" y="1412" on="1"/>
        <pt x="1420" y="1384" on="1"/>
        <pt x="1420" y="0" on="1"/>
        <pt x="1272" y="0" on="1"/>
        <pt x="574" y="1001" on="1"/>
        <pt x="418" y="1268" on="1"/>
        <pt x="418" y="137" on="1"/>
        <pt x="603" y="110" on="1"/>
        <pt x="603" y="0" on="1"/>
        <pt x="98" y="0" on="1"/>
      </contour>
    </TTGlyph>
    <TTGlyph name="Ntilde" xMin="98" yMin="0" xMax="1589" yMax="2011">
      <contour>
        <pt x="412" y="1796" on="1"/>
        <pt x="421" y="1830" on="0"/>
        <pt x="472" y="1905" on="0"/>
        <pt x="548" y="1969" on="0"/>
        <pt x="646" y="2011" on="0"/>
        <pt x="703" y="2011" on="1"/>
        <pt x="744" y="2011" on="0"/>
        <pt x="809" y="1987" on="0"/>
        <pt x="863" y="1950" on="0"/>
        <pt x="908" y="1907" on="0"/>
        <pt x="953" y="1870" on="0"/>
        <pt x="999" y="1846" on="0"/>
        <pt x="1026" y="1846" on="1"/>
        <pt x="1060" y="1846" on="0"/>
        <pt x="1109" y="1874" on="0"/>
        <pt x="1142" y="1912" on="0"/>
        <pt x="1163" y="1952" on="0"/>
        <pt x="1171" y="1964" on="1"/>
        <pt x="1274" y="1901" on="1"/>
        <pt x="1259" y="1860" on="0"/>
        <pt x="1212" y="1782" on="0"/>
        <pt x="1145" y="1722" on="0"/>
        <pt x="1059" y="1686" on="0"/>
        <pt x="1007" y="1686" on="1"/>
        <pt x="966" y="1686" on="0"/>
        <pt x="901" y="1710" on="0"/>
        <pt x="845" y="1747" on="0"/>
        <pt x="797" y="1790" on="0"/>
        <pt x="748" y="1827" on="0"/>
        <pt x="698" y="1851" on="0"/>
        <pt x="668" y="1851" on="1"/>
        <pt x="634" y="1851" on="0"/>
        <pt x="583" y="1823" on="0"/>
        <pt x="546" y="1784" on="0"/>
        <pt x="521" y="1744" on="0"/>
        <pt x="514" y="1733" on="1"/>
      </contour>
      <contour>
        <pt x="98" y="110" on="1"/>
        <pt x="265" y="137" on="1"/>
        <pt x="265" y="1385" on="1"/>
        <pt x="98" y="1412" on="1"/>
        <pt x="98" y="1522" on="1"/>
        <pt x="485" y="1522" on="1"/>
        <pt x="1168" y="536" on="1"/>
        <pt x="1267" y="351" on="1"/>
        <pt x="1267" y="1385" on="1"/>
        <pt x="1086" y="1412" on="1"/>
        <pt x="1086" y="1522" on="1"/>
        <pt x="1589" y="1522" on="1"/>
        <pt x="1589" y="1412" on="1"/>
        <pt x="1420" y="1384" on="1"/>
        <pt x="1420" y="0" on="1"/>
        <pt x="1272" y="0" on="1"/>
        <pt x="574" y="1001" on="1"/>
        <pt x="418" y="1268" on="1"/>
        <pt x="418" y="137" on="1"/>
        <pt x="603" y="110" on="1"/>
        <pt x="603" y="0" on="1"/>
        <pt x="98" y="0" on="1"/>
      </contour>
    </TTGlyph>
    <TTGlyph name="O" xMin="66" yMin="-26" xMax="1412" yMax="1539">
      <contour>
        <pt x="725" y="-23" on="1"/>
        <pt x="564" y="-26" on="0"/>
        <pt x="318" y="84" on="0"/>
        <pt x="152" y="288" on="0"/>
        <pt x="66" y="575" on="0"/>
        <pt x="66" y="748" on="1"/>
        <pt x="66" y="929" on="0"/>
        <pt x="172" y="1222" on="0"/>
        <pt x="358" y="1428" on="0"/>
        <pt x="612" y="1539" on="0"/>
        <pt x="759" y="1539" on="1"/>
        <pt x="920" y="1539" on="0"/>
        <pt x="1165" y="1430" on="0"/>
        <pt x="1329" y="1230" on="0"/>
        <pt x="1412" y="948" on="0"/>
        <pt x="1412" y="775" on="1"/>
        <pt x="1412" y="594" on="0"/>
        <pt x="1307" y="301" on="0"/>
        <pt x="1123" y="94" on="0"/>
        <pt x="872" y="-20" on="0"/>
      </contour>
      <contour>
        <pt x="740" y="98" on="1"/>
        <pt x="836" y="98" on="0"/>
        <pt x="990" y="180" on="0"/>
        <pt x="1100" y="348" on="0"/>
        <pt x="1159" y="602" on="0"/>
        <pt x="1159" y="774" on="1"/>
        <pt x="1159" y="920" on="0"/>
        <pt x="1103" y="1158" on="0"/>
        <pt x="995" y="1326" on="0"/>
        <pt x="838" y="1418" on="0"/>
        <pt x="738" y="1418" on="1"/>
        <pt x="642" y="1418" on="0"/>
        <pt x="487" y="1338" on="0"/>
        <pt x="378" y="1173" on="0"/>
        <pt x="318" y="921" on="0"/>
        <pt x="318" y="749" on="1"/>
        <pt x="318" y="602" on="0"/>
        <pt x="375" y="362" on="0"/>
        <pt x="483" y="191" on="0"/>
        <pt x="640" y="98" on="0"/>
      </contour>
    </TTGlyph>
    <TTGlyph name="OE" xMin="88" yMin="-19" xMax="2082" yMax="1548">
      <contour>
        <pt x="747" y="-16" on="1"/>
        <pt x="589" y="-19" on="0"/>
        <pt x="343" y="90" on="0"/>
        <pt x="175" y="293" on="0"/>
        <pt x="88" y="577" on="0"/>
        <pt x="88" y="749" on="1"/>
        <pt x="88" y="930" on="0"/>
        <pt x="194" y="1222" on="0"/>
        <pt x="379" y="1429" on="0"/>
        <pt x="630" y="1542" on="0"/>
        <pt x="775" y="1545" on="1"/>
        <pt x="920" y="1548" on="0"/>
        <pt x="1039" y="1496" on="1"/>
        <pt x="1039" y="1522" on="1"/>
        <pt x="1906" y="1522" on="1"/>
        <pt x="1933" y="1212" on="1"/>
        <pt x="1804" y="1212" on="1"/>
        <pt x="1740" y="1394" on="1"/>
        <pt x="1265" y="1407" on="1"/>
        <pt x="1265" y="840" on="1"/>
        <pt x="1593" y="847" on="1"/>
        <pt x="1623" y="1010" on="1"/>
        <pt x="1760" y="1010" on="1"/>
        <pt x="1760" y="550" on="1"/>
        <pt x="1623" y="550" on="1"/>
        <pt x="1593" y="715" on="1"/>
        <pt x="1265" y="721" on="1"/>
        <pt x="1265" y="128" on="1"/>
        <pt x="1823" y="150" on="1"/>
        <pt x="1953" y="395" on="1"/>
        <pt x="2082" y="357" on="1"/>
        <pt x="2005" y="0" on="1"/>
        <pt x="1039" y="0" on="1"/>
        <pt x="1039" y="60" on="1"/>
        <pt x="973" y="23" on="0"/>
        <pt x="826" y="-14" on="0"/>
      </contour>
      <contour>
        <pt x="764" y="103" on="1"/>
        <pt x="937" y="103" on="0"/>
        <pt x="1039" y="222" on="1"/>
        <pt x="1039" y="1319" on="1"/>
        <pt x="991" y="1370" on="0"/>
        <pt x="854" y="1427" on="0"/>
        <pt x="757" y="1427" on="1"/>
        <pt x="658" y="1427" on="0"/>
        <pt x="502" y="1340" on="0"/>
        <pt x="393" y="1170" on="0"/>
        <pt x="336" y="916" on="0"/>
        <pt x="336" y="750" on="1"/>
        <pt x="336" y="619" on="0"/>
        <pt x="393" y="384" on="0"/>
        <pt x="503" y="207" on="0"/>
        <pt x="662" y="103" on="0"/>
      </contour>
    </TTGlyph>
    <TTGlyph name="Oacute" xMin="82" yMin="-26" xMax="1428" yMax="2014">
      <contour>
        <pt x="615" y="1701" on="1"/>
        <pt x="949" y="2014" on="1"/>
        <pt x="950" y="2014" on="1"/>
        <pt x="1102" y="1882" on="1"/>
        <pt x="1085" y="1858" on="0"/>
        <pt x="1025" y="1806" on="0"/>
        <pt x="949" y="1755" on="0"/>
        <pt x="864" y="1707" on="0"/>
        <pt x="785" y="1668" on="0"/>
        <pt x="716" y="1639" on="0"/>
        <pt x="694" y="1633" on="1"/>
        <pt x="693" y="1633" on="1"/>
      </contour>
      <contour>
        <pt x="741" y="-23" on="1"/>
        <pt x="580" y="-26" on="0"/>
        <pt x="334" y="84" on="0"/>
        <pt x="168" y="288" on="0"/>
        <pt x="82" y="575" on="0"/>
        <pt x="82" y="748" on="1"/>
        <pt x="82" y="929" on="0"/>
        <pt x="188" y="1222" on="0"/>
        <pt x="374" y="1428" on="0"/>
        <pt x="628" y="1539" on="0"/>
        <pt x="775" y="1539" on="1"/>
        <pt x="936" y="1539" on="0"/>
        <pt x="1181" y="1430" on="0"/>
        <pt x="1345" y="1230" on="0"/>
        <pt x="1428" y="948" on="0"/>
        <pt x="1428" y="775" on="1"/>
        <pt x="1428" y="594" on="0"/>
        <pt x="1323" y="301" on="0"/>
        <pt x="1139" y="94" on="0"/>
        <pt x="888" y="-20" on="0"/>
      </contour>
      <contour>
        <pt x="756" y="98" on="1"/>
        <pt x="852" y="98" on="0"/>
        <pt x="1006" y="180" on="0"/>
        <pt x="1116" y="348" on="0"/>
        <pt x="1175" y="602" on="0"/>
        <pt x="1175" y="774" on="1"/>
        <pt x="1175" y="920" on="0"/>
        <pt x="1119" y="1158" on="0"/>
        <pt x="1011" y="1326" on="0"/>
        <pt x="854" y="1418" on="0"/>
        <pt x="754" y="1418" on="1"/>
        <pt x="658" y="1418" on="0"/>
        <pt x="503" y="1338" on="0"/>
        <pt x="394" y="1173" on="0"/>
        <pt x="334" y="921" on="0"/>
        <pt x="334" y="749" on="1"/>
        <pt x="334" y="602" on="0"/>
        <pt x="391" y="362" on="0"/>
        <pt x="499" y="191" on="0"/>
        <pt x="656" y="98" on="0"/>
      </contour>
    </TTGlyph>
    <TTGlyph name="Obreve" xMin="82" yMin="-26" xMax="1428" yMax="1997">
      <contour>
        <pt x="761" y="1643" on="1"/>
        <pt x="679" y="1643" on="0"/>
        <pt x="553" y="1692" on="0"/>
        <pt x="467" y="1776" on="0"/>
        <pt x="423" y="1890" on="0"/>
        <pt x="423" y="1955" on="1"/>
        <pt x="423" y="1966" on="0"/>
        <pt x="423" y="1986" on="0"/>
        <pt x="425" y="1997" on="1"/>
        <pt x="546" y="1997" on="1"/>
        <pt x="546" y="1993" on="0"/>
        <pt x="547" y="1979" on="0"/>
        <pt x="549" y="1970" on="1"/>
        <pt x="553" y="1950" on="0"/>
        <pt x="575" y="1897" on="0"/>
        <pt x="623" y="1849" on="0"/>
        <pt x="702" y="1816" on="0"/>
        <pt x="763" y="1816" on="1"/>
        <pt x="824" y="1816" on="0"/>
        <pt x="902" y="1850" on="0"/>
        <pt x="949" y="1898" on="0"/>
        <pt x="969" y="1951" on="0"/>
        <pt x="972" y="1971" on="1"/>
        <pt x="974" y="1981" on="0"/>
        <pt x="974" y="1993" on="0"/>
        <pt x="974" y="1997" on="1"/>
        <pt x="1092" y="1997" on="1"/>
        <pt x="1094" y="1986" on="0"/>
        <pt x="1094" y="1967" on="0"/>
        <pt x="1094" y="1956" on="1"/>
        <pt x="1094" y="1891" on="0"/>
        <pt x="1049" y="1777" on="0"/>
        <pt x="964" y="1692" on="0"/>
        <pt x="840" y="1643" on="0"/>
      </contour>
      <contour>
        <pt x="741" y="-23" on="1"/>
        <pt x="580" y="-26" on="0"/>
        <pt x="334" y="84" on="0"/>
        <pt x="168" y="288" on="0"/>
        <pt x="82" y="575" on="0"/>
        <pt x="82" y="748" on="1"/>
        <pt x="82" y="929" on="0"/>
        <pt x="188" y="1222" on="0"/>
        <pt x="374" y="1428" on="0"/>
        <pt x="628" y="1539" on="0"/>
        <pt x="775" y="1539" on="1"/>
        <pt x="936" y="1539" on="0"/>
        <pt x="1181" y="1430" on="0"/>
        <pt x="1345" y="1230" on="0"/>
        <pt x="1428" y="948" on="0"/>
        <pt x="1428" y="775" on="1"/>
        <pt x="1428" y="594" on="0"/>
        <pt x="1323" y="301" on="0"/>
        <pt x="1139" y="94" on="0"/>
        <pt x="888" y="-20" on="0"/>
      </contour>
      <contour>
        <pt x="756" y="98" on="1"/>
        <pt x="852" y="98" on="0"/>
        <pt x="1006" y="180" on="0"/>
        <pt x="1116" y="348" on="0"/>
        <pt x="1175" y="602" on="0"/>
        <pt x="1175" y="774" on="1"/>
        <pt x="1175" y="920" on="0"/>
        <pt x="1119" y="1158" on="0"/>
        <pt x="1011" y="1326" on="0"/>
        <pt x="854" y="1418" on="0"/>
        <pt x="754" y="1418" on="1"/>
        <pt x="658" y="1418" on="0"/>
        <pt x="503" y="1338" on="0"/>
        <pt x="394" y="1173" on="0"/>
        <pt x="334" y="921" on="0"/>
        <pt x="334" y="749" on="1"/>
        <pt x="334" y="602" on="0"/>
        <pt x="391" y="362" on="0"/>
        <pt x="499" y="191" on="0"/>
        <pt x="656" y="98" on="0"/>
      </contour>
    </TTGlyph>
    <TTGlyph name="Ocircumflex" xMin="82" yMin="-26" xMax="1428" yMax="2014">
      <contour>
        <pt x="741" y="-23" on="1"/>
        <pt x="580" y="-26" on="0"/>
        <pt x="334" y="84" on="0"/>
        <pt x="168" y="288" on="0"/>
        <pt x="82" y="575" on="0"/>
        <pt x="82" y="748" on="1"/>
        <pt x="82" y="929" on="0"/>
        <pt x="188" y="1222" on="0"/>
        <pt x="374" y="1428" on="0"/>
        <pt x="628" y="1539" on="0"/>
        <pt x="775" y="1539" on="1"/>
        <pt x="936" y="1539" on="0"/>
        <pt x="1181" y="1430" on="0"/>
        <pt x="1345" y="1230" on="0"/>
        <pt x="1428" y="948" on="0"/>
        <pt x="1428" y="775" on="1"/>
        <pt x="1428" y="594" on="0"/>
        <pt x="1323" y="301" on="0"/>
        <pt x="1139" y="94" on="0"/>
        <pt x="888" y="-20" on="0"/>
      </contour>
      <contour>
        <pt x="756" y="98" on="1"/>
        <pt x="852" y="98" on="0"/>
        <pt x="1006" y="180" on="0"/>
        <pt x="1116" y="348" on="0"/>
        <pt x="1175" y="602" on="0"/>
        <pt x="1175" y="774" on="1"/>
        <pt x="1175" y="920" on="0"/>
        <pt x="1119" y="1158" on="0"/>
        <pt x="1011" y="1326" on="0"/>
        <pt x="854" y="1418" on="0"/>
        <pt x="754" y="1418" on="1"/>
        <pt x="658" y="1418" on="0"/>
        <pt x="503" y="1338" on="0"/>
        <pt x="394" y="1173" on="0"/>
        <pt x="334" y="921" on="0"/>
        <pt x="334" y="749" on="1"/>
        <pt x="334" y="602" on="0"/>
        <pt x="391" y="362" on="0"/>
        <pt x="499" y="191" on="0"/>
        <pt x="656" y="98" on="0"/>
      </contour>
      <contour>
        <pt x="398" y="1712" on="1"/>
        <pt x="663" y="2014" on="1"/>
        <pt x="855" y="2014" on="1"/>
        <pt x="1122" y="1714" on="1"/>
        <pt x="1029" y="1655" on="1"/>
        <pt x="759" y="1853" on="1"/>
        <pt x="484" y="1655" on="1"/>
      </contour>
    </TTGlyph>
    <TTGlyph name="Odieresis" xMin="82" yMin="-26" xMax="1428" yMax="1991">
      <contour>
        <pt x="994" y="1690" on="1"/>
        <pt x="965" y="1690" on="0"/>
        <pt x="917" y="1711" on="0"/>
        <pt x="883" y="1749" on="0"/>
        <pt x="865" y="1800" on="0"/>
        <pt x="865" y="1829" on="1"/>
        <pt x="865" y="1861" on="0"/>
        <pt x="884" y="1919" on="0"/>
        <pt x="921" y="1964" on="0"/>
        <pt x="977" y="1991" on="0"/>
        <pt x="1014" y="1991" on="1"/>
        <pt x="1015" y="1991" on="1"/>
        <pt x="1048" y="1991" on="0"/>
        <pt x="1098" y="1967" on="0"/>
        <pt x="1133" y="1928" on="0"/>
        <pt x="1151" y="1877" on="0"/>
        <pt x="1151" y="1851" on="1"/>
        <pt x="1151" y="1817" on="0"/>
        <pt x="1131" y="1758" on="0"/>
        <pt x="1092" y="1715" on="0"/>
        <pt x="1034" y="1690" on="0"/>
        <pt x="995" y="1690" on="1"/>
      </contour>
      <contour>
        <pt x="498" y="1690" on="1"/>
        <pt x="469" y="1690" on="0"/>
        <pt x="421" y="1711" on="0"/>
        <pt x="388" y="1749" on="0"/>
        <pt x="370" y="1800" on="0"/>
        <pt x="370" y="1829" on="1"/>
        <pt x="370" y="1861" on="0"/>
        <pt x="389" y="1919" on="0"/>
        <pt x="426" y="1964" on="0"/>
        <pt x="482" y="1991" on="0"/>
        <pt x="519" y="1991" on="1"/>
        <pt x="520" y="1991" on="1"/>
        <pt x="552" y="1991" on="0"/>
        <pt x="602" y="1967" on="0"/>
        <pt x="637" y="1928" on="0"/>
        <pt x="655" y="1877" on="0"/>
        <pt x="655" y="1851" on="1"/>
        <pt x="655" y="1817" on="0"/>
        <pt x="636" y="1758" on="0"/>
        <pt x="597" y="1715" on="0"/>
        <pt x="538" y="1690" on="0"/>
        <pt x="499" y="1690" on="1"/>
      </contour>
      <contour>
        <pt x="741" y="-23" on="1"/>
        <pt x="580" y="-26" on="0"/>
        <pt x="334" y="84" on="0"/>
        <pt x="168" y="288" on="0"/>
        <pt x="82" y="575" on="0"/>
        <pt x="82" y="748" on="1"/>
        <pt x="82" y="929" on="0"/>
        <pt x="188" y="1222" on="0"/>
        <pt x="374" y="1428" on="0"/>
        <pt x="628" y="1539" on="0"/>
        <pt x="775" y="1539" on="1"/>
        <pt x="936" y="1539" on="0"/>
        <pt x="1181" y="1430" on="0"/>
        <pt x="1345" y="1230" on="0"/>
        <pt x="1428" y="948" on="0"/>
        <pt x="1428" y="775" on="1"/>
        <pt x="1428" y="594" on="0"/>
        <pt x="1323" y="301" on="0"/>
        <pt x="1139" y="94" on="0"/>
        <pt x="888" y="-20" on="0"/>
      </contour>
      <contour>
        <pt x="756" y="98" on="1"/>
        <pt x="852" y="98" on="0"/>
        <pt x="1006" y="180" on="0"/>
        <pt x="1116" y="348" on="0"/>
        <pt x="1175" y="602" on="0"/>
        <pt x="1175" y="774" on="1"/>
        <pt x="1175" y="920" on="0"/>
        <pt x="1119" y="1158" on="0"/>
        <pt x="1011" y="1326" on="0"/>
        <pt x="854" y="1418" on="0"/>
        <pt x="754" y="1418" on="1"/>
        <pt x="658" y="1418" on="0"/>
        <pt x="503" y="1338" on="0"/>
        <pt x="394" y="1173" on="0"/>
        <pt x="334" y="921" on="0"/>
        <pt x="334" y="749" on="1"/>
        <pt x="334" y="602" on="0"/>
        <pt x="391" y="362" on="0"/>
        <pt x="499" y="191" on="0"/>
        <pt x="656" y="98" on="0"/>
      </contour>
    </TTGlyph>
    <TTGlyph name="Ograve" xMin="82" yMin="-26" xMax="1428" yMax="2014">
      <contour>
        <pt x="870" y="1633" on="1"/>
        <pt x="848" y="1639" on="0"/>
        <pt x="779" y="1668" on="0"/>
        <pt x="699" y="1707" on="0"/>
        <pt x="615" y="1755" on="0"/>
        <pt x="539" y="1806" on="0"/>
        <pt x="478" y="1858" on="0"/>
        <pt x="462" y="1882" on="1"/>
        <pt x="614" y="2014" on="1"/>
        <pt x="615" y="2014" on="1"/>
        <pt x="948" y="1701" on="1"/>
        <pt x="871" y="1633" on="1"/>
        <pt x="870" y="1633" on="1"/>
      </contour>
      <contour>
        <pt x="741" y="-23" on="1"/>
        <pt x="580" y="-26" on="0"/>
        <pt x="334" y="84" on="0"/>
        <pt x="168" y="288" on="0"/>
        <pt x="82" y="575" on="0"/>
        <pt x="82" y="748" on="1"/>
        <pt x="82" y="929" on="0"/>
        <pt x="188" y="1222" on="0"/>
        <pt x="374" y="1428" on="0"/>
        <pt x="628" y="1539" on="0"/>
        <pt x="775" y="1539" on="1"/>
        <pt x="936" y="1539" on="0"/>
        <pt x="1181" y="1430" on="0"/>
        <pt x="1345" y="1230" on="0"/>
        <pt x="1428" y="948" on="0"/>
        <pt x="1428" y="775" on="1"/>
        <pt x="1428" y="594" on="0"/>
        <pt x="1323" y="301" on="0"/>
        <pt x="1139" y="94" on="0"/>
        <pt x="888" y="-20" on="0"/>
      </contour>
      <contour>
        <pt x="756" y="98" on="1"/>
        <pt x="852" y="98" on="0"/>
        <pt x="1006" y="180" on="0"/>
        <pt x="1116" y="348" on="0"/>
        <pt x="1175" y="602" on="0"/>
        <pt x="1175" y="774" on="1"/>
        <pt x="1175" y="920" on="0"/>
        <pt x="1119" y="1158" on="0"/>
        <pt x="1011" y="1326" on="0"/>
        <pt x="854" y="1418" on="0"/>
        <pt x="754" y="1418" on="1"/>
        <pt x="658" y="1418" on="0"/>
        <pt x="503" y="1338" on="0"/>
        <pt x="394" y="1173" on="0"/>
        <pt x="334" y="921" on="0"/>
        <pt x="334" y="749" on="1"/>
        <pt x="334" y="602" on="0"/>
        <pt x="391" y="362" on="0"/>
        <pt x="499" y="191" on="0"/>
        <pt x="656" y="98" on="0"/>
      </contour>
    </TTGlyph>
    <TTGlyph name="Ohungarumlaut" xMin="82" yMin="-26" xMax="1428" yMax="2014">
      <contour>
        <pt x="741" y="-23" on="1"/>
        <pt x="580" y="-26" on="0"/>
        <pt x="334" y="84" on="0"/>
        <pt x="168" y="288" on="0"/>
        <pt x="82" y="575" on="0"/>
        <pt x="82" y="748" on="1"/>
        <pt x="82" y="929" on="0"/>
        <pt x="188" y="1222" on="0"/>
        <pt x="374" y="1428" on="0"/>
        <pt x="628" y="1539" on="0"/>
        <pt x="775" y="1539" on="1"/>
        <pt x="936" y="1539" on="0"/>
        <pt x="1181" y="1430" on="0"/>
        <pt x="1345" y="1230" on="0"/>
        <pt x="1428" y="948" on="0"/>
        <pt x="1428" y="775" on="1"/>
        <pt x="1428" y="594" on="0"/>
        <pt x="1323" y="301" on="0"/>
        <pt x="1139" y="94" on="0"/>
        <pt x="888" y="-20" on="0"/>
      </contour>
      <contour>
        <pt x="756" y="98" on="1"/>
        <pt x="852" y="98" on="0"/>
        <pt x="1006" y="180" on="0"/>
        <pt x="1116" y="348" on="0"/>
        <pt x="1175" y="602" on="0"/>
        <pt x="1175" y="774" on="1"/>
        <pt x="1175" y="920" on="0"/>
        <pt x="1119" y="1158" on="0"/>
        <pt x="1011" y="1326" on="0"/>
        <pt x="854" y="1418" on="0"/>
        <pt x="754" y="1418" on="1"/>
        <pt x="658" y="1418" on="0"/>
        <pt x="503" y="1338" on="0"/>
        <pt x="394" y="1173" on="0"/>
        <pt x="334" y="921" on="0"/>
        <pt x="334" y="749" on="1"/>
        <pt x="334" y="602" on="0"/>
        <pt x="391" y="362" on="0"/>
        <pt x="499" y="191" on="0"/>
        <pt x="656" y="98" on="0"/>
      </contour>
      <contour>
        <pt x="883" y="1721" on="1"/>
        <pt x="1176" y="2014" on="1"/>
        <pt x="1312" y="1889" on="1"/>
        <pt x="1281" y="1852" on="0"/>
        <pt x="1196" y="1779" on="0"/>
        <pt x="1104" y="1712" on="0"/>
        <pt x="1013" y="1657" on="0"/>
        <pt x="977" y="1638" on="1"/>
      </contour>
      <contour>
        <pt x="383" y="1721" on="1"/>
        <pt x="661" y="2014" on="1"/>
        <pt x="808" y="1889" on="1"/>
        <pt x="772" y="1848" on="0"/>
        <pt x="685" y="1774" on="0"/>
        <pt x="597" y="1709" on="0"/>
        <pt x="511" y="1657" on="0"/>
        <pt x="477" y="1638" on="1"/>
      </contour>
    </TTGlyph>
    <TTGlyph name="Omacron" xMin="82" yMin="-26" xMax="1428" yMax="1912">
      <contour>
        <pt x="486" y="1912" on="1"/>
        <pt x="1043" y="1912" on="1"/>
        <pt x="1043" y="1751" on="1"/>
        <pt x="486" y="1751" on="1"/>
      </contour>
      <contour>
        <pt x="741" y="-23" on="1"/>
        <pt x="580" y="-26" on="0"/>
        <pt x="334" y="84" on="0"/>
        <pt x="168" y="288" on="0"/>
        <pt x="82" y="575" on="0"/>
        <pt x="82" y="748" on="1"/>
        <pt x="82" y="929" on="0"/>
        <pt x="188" y="1222" on="0"/>
        <pt x="374" y="1428" on="0"/>
        <pt x="628" y="1539" on="0"/>
        <pt x="775" y="1539" on="1"/>
        <pt x="936" y="1539" on="0"/>
        <pt x="1181" y="1430" on="0"/>
        <pt x="1345" y="1230" on="0"/>
        <pt x="1428" y="948" on="0"/>
        <pt x="1428" y="775" on="1"/>
        <pt x="1428" y="594" on="0"/>
        <pt x="1323" y="301" on="0"/>
        <pt x="1139" y="94" on="0"/>
        <pt x="888" y="-20" on="0"/>
      </contour>
      <contour>
        <pt x="756" y="98" on="1"/>
        <pt x="852" y="98" on="0"/>
        <pt x="1006" y="180" on="0"/>
        <pt x="1116" y="348" on="0"/>
        <pt x="1175" y="602" on="0"/>
        <pt x="1175" y="774" on="1"/>
        <pt x="1175" y="920" on="0"/>
        <pt x="1119" y="1158" on="0"/>
        <pt x="1011" y="1326" on="0"/>
        <pt x="854" y="1418" on="0"/>
        <pt x="754" y="1418" on="1"/>
        <pt x="658" y="1418" on="0"/>
        <pt x="503" y="1338" on="0"/>
        <pt x="394" y="1173" on="0"/>
        <pt x="334" y="921" on="0"/>
        <pt x="334" y="749" on="1"/>
        <pt x="334" y="602" on="0"/>
        <pt x="391" y="362" on="0"/>
        <pt x="499" y="191" on="0"/>
        <pt x="656" y="98" on="0"/>
      </contour>
    </TTGlyph>
    <TTGlyph name="Omega" xMin="125" yMin="0" xMax="1811" yMax="1546">
      <contour>
        <pt x="125" y="400" on="1"/>
        <pt x="262" y="400" on="1"/>
        <pt x="327" y="175" on="1"/>
        <pt x="680" y="158" on="1"/>
        <pt x="636" y="183" on="0"/>
        <pt x="542" y="267" on="0"/>
        <pt x="452" y="378" on="0"/>
        <pt x="371" y="511" on="0"/>
        <pt x="311" y="657" on="0"/>
        <pt x="276" y="811" on="0"/>
        <pt x="278" y="888" on="1"/>
        <pt x="280" y="1005" on="0"/>
        <pt x="336" y="1194" on="0"/>
        <pt x="432" y="1340" on="0"/>
        <pt x="562" y="1446" on="0"/>
        <pt x="715" y="1514" on="0"/>
        <pt x="886" y="1546" on="0"/>
        <pt x="974" y="1546" on="1"/>
        <pt x="1128" y="1546" on="0"/>
        <pt x="1376" y="1462" on="0"/>
        <pt x="1550" y="1298" on="0"/>
        <pt x="1641" y="1057" on="0"/>
        <pt x="1638" y="901" on="1"/>
        <pt x="1636" y="832" on="0"/>
        <pt x="1605" y="688" on="0"/>
        <pt x="1552" y="545" on="0"/>
        <pt x="1480" y="409" on="0"/>
        <pt x="1397" y="290" on="0"/>
        <pt x="1305" y="193" on="0"/>
        <pt x="1259" y="160" on="1"/>
        <pt x="1602" y="176" on="1"/>
        <pt x="1673" y="400" on="1"/>
        <pt x="1811" y="400" on="1"/>
        <pt x="1755" y="0" on="1"/>
        <pt x="1087" y="0" on="1"/>
        <pt x="1087" y="144" on="1"/>
        <pt x="1162" y="190" on="0"/>
        <pt x="1284" y="339" on="0"/>
        <pt x="1371" y="529" on="0"/>
        <pt x="1419" y="751" on="0"/>
        <pt x="1419" y="869" on="1"/>
        <pt x="1419" y="999" on="0"/>
        <pt x="1354" y="1197" on="0"/>
        <pt x="1236" y="1330" on="0"/>
        <pt x="1072" y="1397" on="0"/>
        <pt x="972" y="1397" on="1"/>
        <pt x="859" y="1397" on="0"/>
        <pt x="682" y="1330" on="0"/>
        <pt x="559" y="1192" on="0"/>
        <pt x="494" y="980" on="0"/>
        <pt x="494" y="836" on="1"/>
        <pt x="494" y="717" on="0"/>
        <pt x="562" y="496" on="0"/>
        <pt x="667" y="313" on="0"/>
        <pt x="793" y="178" on="0"/>
        <pt x="852" y="144" on="1"/>
        <pt x="852" y="0" on="1"/>
        <pt x="167" y="0" on="1"/>
      </contour>
    </TTGlyph>
    <TTGlyph name="Omegagreek" xMin="125" yMin="0" xMax="1811" yMax="1546">
      <contour>
        <pt x="125" y="400" on="1"/>
        <pt x="262" y="400" on="1"/>
        <pt x="327" y="175" on="1"/>
        <pt x="680" y="158" on="1"/>
        <pt x="636" y="183" on="0"/>
        <pt x="542" y="267" on="0"/>
        <pt x="452" y="378" on="0"/>
        <pt x="371" y="511" on="0"/>
        <pt x="311" y="657" on="0"/>
        <pt x="276" y="811" on="0"/>
        <pt x="278" y="888" on="1"/>
        <pt x="280" y="1005" on="0"/>
        <pt x="336" y="1194" on="0"/>
        <pt x="432" y="1340" on="0"/>
        <pt x="562" y="1446" on="0"/>
        <pt x="715" y="1514" on="0"/>
        <pt x="886" y="1546" on="0"/>
        <pt x="974" y="1546" on="1"/>
        <pt x="1128" y="1546" on="0"/>
        <pt x="1376" y="1462" on="0"/>
        <pt x="1550" y="1298" on="0"/>
        <pt x="1641" y="1057" on="0"/>
        <pt x="1638" y="901" on="1"/>
        <pt x="1636" y="832" on="0"/>
        <pt x="1605" y="688" on="0"/>
        <pt x="1552" y="545" on="0"/>
        <pt x="1480" y="409" on="0"/>
        <pt x="1397" y="290" on="0"/>
        <pt x="1305" y="193" on="0"/>
        <pt x="1259" y="160" on="1"/>
        <pt x="1602" y="176" on="1"/>
        <pt x="1673" y="400" on="1"/>
        <pt x="1811" y="400" on="1"/>
        <pt x="1755" y="0" on="1"/>
        <pt x="1087" y="0" on="1"/>
        <pt x="1087" y="144" on="1"/>
        <pt x="1162" y="190" on="0"/>
        <pt x="1284" y="339" on="0"/>
        <pt x="1371" y="529" on="0"/>
        <pt x="1419" y="751" on="0"/>
        <pt x="1419" y="869" on="1"/>
        <pt x="1419" y="999" on="0"/>
        <pt x="1354" y="1197" on="0"/>
        <pt x="1236" y="1330" on="0"/>
        <pt x="1072" y="1397" on="0"/>
        <pt x="972" y="1397" on="1"/>
        <pt x="859" y="1397" on="0"/>
        <pt x="682" y="1330" on="0"/>
        <pt x="559" y="1192" on="0"/>
        <pt x="494" y="980" on="0"/>
        <pt x="494" y="836" on="1"/>
        <pt x="494" y="717" on="0"/>
        <pt x="562" y="496" on="0"/>
        <pt x="667" y="313" on="0"/>
        <pt x="793" y="178" on="0"/>
        <pt x="852" y="144" on="1"/>
        <pt x="852" y="0" on="1"/>
        <pt x="167" y="0" on="1"/>
      </contour>
    </TTGlyph>
    <TTGlyph name="Oslash" xMin="82" yMin="-213" xMax="1428" yMax="1715">
      <contour>
        <pt x="427" y="43" on="1"/>
        <pt x="342" y="86" on="0"/>
        <pt x="213" y="224" on="0"/>
        <pt x="126" y="405" on="0"/>
        <pt x="82" y="623" on="0"/>
        <pt x="82" y="748" on="1"/>
        <pt x="82" y="929" on="0"/>
        <pt x="188" y="1222" on="0"/>
        <pt x="374" y="1428" on="0"/>
        <pt x="628" y="1539" on="0"/>
        <pt x="775" y="1539" on="1"/>
        <pt x="834" y="1539" on="0"/>
        <pt x="940" y="1523" on="0"/>
        <pt x="989" y="1509" on="1"/>
        <pt x="1068" y="1715" on="1"/>
        <pt x="1171" y="1679" on="1"/>
        <pt x="1087" y="1471" on="1"/>
        <pt x="1171" y="1428" on="0"/>
        <pt x="1299" y="1293" on="0"/>
        <pt x="1385" y="1116" on="0"/>
        <pt x="1428" y="899" on="0"/>
        <pt x="1428" y="775" on="1"/>
        <pt x="1428" y="594" on="0"/>
        <pt x="1323" y="301" on="0"/>
        <pt x="1139" y="94" on="0"/>
        <pt x="888" y="-20" on="0"/>
        <pt x="741" y="-23" on="1"/>
        <pt x="627" y="-24" on="0"/>
        <pt x="529" y="3" on="1"/>
        <pt x="439" y="-213" on="1"/>
        <pt x="333" y="-179" on="1"/>
      </contour>
      <contour>
        <pt x="932" y="1372" on="1"/>
        <pt x="852" y="1418" on="0"/>
        <pt x="754" y="1418" on="1"/>
        <pt x="658" y="1418" on="0"/>
        <pt x="503" y="1338" on="0"/>
        <pt x="394" y="1173" on="0"/>
        <pt x="334" y="921" on="0"/>
        <pt x="334" y="749" on="1"/>
        <pt x="334" y="566" on="0"/>
        <pt x="420" y="289" on="0"/>
        <pt x="501" y="205" on="1"/>
      </contour>
      <contour>
        <pt x="584" y="141" on="1"/>
        <pt x="661" y="98" on="0"/>
        <pt x="756" y="98" on="1"/>
        <pt x="852" y="98" on="0"/>
        <pt x="1006" y="180" on="0"/>
        <pt x="1116" y="348" on="0"/>
        <pt x="1175" y="602" on="0"/>
        <pt x="1175" y="774" on="1"/>
        <pt x="1175" y="952" on="0"/>
        <pt x="1092" y="1223" on="0"/>
        <pt x="1014" y="1307" on="1"/>
      </contour>
    </TTGlyph>
    <TTGlyph name="Otilde" xMin="82" yMin="-26" xMax="1428" yMax="2011">
      <contour>
        <pt x="330" y="1796" on="1"/>
        <pt x="339" y="1830" on="0"/>
        <pt x="390" y="1905" on="0"/>
        <pt x="466" y="1969" on="0"/>
        <pt x="564" y="2011" on="0"/>
        <pt x="621" y="2011" on="1"/>
        <pt x="662" y="2011" on="0"/>
        <pt x="727" y="1987" on="0"/>
        <pt x="781" y="1950" on="0"/>
        <pt x="826" y="1907" on="0"/>
        <pt x="871" y="1870" on="0"/>
        <pt x="917" y="1846" on="0"/>
        <pt x="944" y="1846" on="1"/>
        <pt x="978" y="1846" on="0"/>
        <pt x="1027" y="1874" on="0"/>
        <pt x="1060" y="1912" on="0"/>
        <pt x="1081" y="1952" on="0"/>
        <pt x="1089" y="1964" on="1"/>
        <pt x="1192" y="1901" on="1"/>
        <pt x="1177" y="1860" on="0"/>
        <pt x="1130" y="1782" on="0"/>
        <pt x="1063" y="1722" on="0"/>
        <pt x="977" y="1686" on="0"/>
        <pt x="925" y="1686" on="1"/>
        <pt x="884" y="1686" on="0"/>
        <pt x="819" y="1710" on="0"/>
        <pt x="763" y="1747" on="0"/>
        <pt x="715" y="1790" on="0"/>
        <pt x="666" y="1827" on="0"/>
        <pt x="616" y="1851" on="0"/>
        <pt x="586" y="1851" on="1"/>
        <pt x="552" y="1851" on="0"/>
        <pt x="501" y="1823" on="0"/>
        <pt x="464" y="1784" on="0"/>
        <pt x="439" y="1744" on="0"/>
        <pt x="432" y="1733" on="1"/>
      </contour>
      <contour>
        <pt x="741" y="-23" on="1"/>
        <pt x="580" y="-26" on="0"/>
        <pt x="334" y="84" on="0"/>
        <pt x="168" y="288" on="0"/>
        <pt x="82" y="575" on="0"/>
        <pt x="82" y="748" on="1"/>
        <pt x="82" y="929" on="0"/>
        <pt x="188" y="1222" on="0"/>
        <pt x="374" y="1428" on="0"/>
        <pt x="628" y="1539" on="0"/>
        <pt x="775" y="1539" on="1"/>
        <pt x="936" y="1539" on="0"/>
        <pt x="1181" y="1430" on="0"/>
        <pt x="1345" y="1230" on="0"/>
        <pt x="1428" y="948" on="0"/>
        <pt x="1428" y="775" on="1"/>
        <pt x="1428" y="594" on="0"/>
        <pt x="1323" y="301" on="0"/>
        <pt x="1139" y="94" on="0"/>
        <pt x="888" y="-20" on="0"/>
      </contour>
      <contour>
        <pt x="756" y="98" on="1"/>
        <pt x="852" y="98" on="0"/>
        <pt x="1006" y="180" on="0"/>
        <pt x="1116" y="348" on="0"/>
        <pt x="1175" y="602" on="0"/>
        <pt x="1175" y="774" on="1"/>
        <pt x="1175" y="920" on="0"/>
        <pt x="1119" y="1158" on="0"/>
        <pt x="1011" y="1326" on="0"/>
        <pt x="854" y="1418" on="0"/>
        <pt x="754" y="1418" on="1"/>
        <pt x="658" y="1418" on="0"/>
        <pt x="503" y="1338" on="0"/>
        <pt x="394" y="1173" on="0"/>
        <pt x="334" y="921" on="0"/>
        <pt x="334" y="749" on="1"/>
        <pt x="334" y="602" on="0"/>
        <pt x="391" y="362" on="0"/>
        <pt x="499" y="191" on="0"/>
        <pt x="656" y="98" on="0"/>
      </contour>
    </TTGlyph>
    <TTGlyph name="P" xMin="100" yMin="0" xMax="1266" yMax="1536">
      <contour>
        <pt x="100" y="110" on="1"/>
        <pt x="268" y="136" on="1"/>
        <pt x="268" y="1385" on="1"/>
        <pt x="112" y="1412" on="1"/>
        <pt x="112" y="1522" on="1"/>
        <pt x="383" y="1522" on="1"/>
        <pt x="433" y="1522" on="0"/>
        <pt x="505" y="1526" on="0"/>
        <pt x="579" y="1532" on="0"/>
        <pt x="668" y="1536" on="0"/>
        <pt x="734" y="1536" on="1"/>
        <pt x="886" y="1536" on="0"/>
        <pt x="1091" y="1477" on="0"/>
        <pt x="1214" y="1366" on="0"/>
        <pt x="1266" y="1204" on="0"/>
        <pt x="1266" y="1101" on="1"/>
        <pt x="1266" y="974" on="0"/>
        <pt x="1176" y="776" on="0"/>
        <pt x="1017" y="640" on="0"/>
        <pt x="801" y="569" on="0"/>
        <pt x="675" y="569" on="1"/>
        <pt x="646" y="569" on="0"/>
        <pt x="588" y="571" on="0"/>
        <pt x="539" y="573" on="0"/>
        <pt x="503" y="576" on="0"/>
        <pt x="496" y="578" on="1"/>
        <pt x="496" y="137" on="1"/>
        <pt x="760" y="110" on="1"/>
        <pt x="760" y="0" on="1"/>
        <pt x="100" y="0" on="1"/>
      </contour>
      <contour>
        <pt x="496" y="697" on="1"/>
        <pt x="511" y="694" on="0"/>
        <pt x="543" y="691" on="0"/>
        <pt x="585" y="689" on="0"/>
        <pt x="640" y="688" on="0"/>
        <pt x="677" y="688" on="1"/>
        <pt x="743" y="688" on="0"/>
        <pt x="867" y="726" on="0"/>
        <pt x="965" y="820" on="0"/>
        <pt x="1024" y="979" on="0"/>
        <pt x="1024" y="1101" on="1"/>
        <pt x="1024" y="1187" on="0"/>
        <pt x="979" y="1308" on="0"/>
        <pt x="891" y="1385" on="0"/>
        <pt x="757" y="1420" on="0"/>
        <pt x="669" y="1420" on="1"/>
        <pt x="633" y="1420" on="0"/>
        <pt x="584" y="1417" on="0"/>
        <pt x="546" y="1412" on="0"/>
        <pt x="514" y="1408" on="0"/>
        <pt x="496" y="1408" on="1"/>
      </contour>
    </TTGlyph>
    <TTGlyph name="Q" xMin="82" yMin="-376" xMax="1507" yMax="1539">
      <contour>
        <pt x="741" y="-23" on="1"/>
        <pt x="580" y="-26" on="0"/>
        <pt x="334" y="84" on="0"/>
        <pt x="168" y="288" on="0"/>
        <pt x="82" y="575" on="0"/>
        <pt x="82" y="748" on="1"/>
        <pt x="82" y="929" on="0"/>
        <pt x="188" y="1222" on="0"/>
        <pt x="374" y="1428" on="0"/>
        <pt x="628" y="1539" on="0"/>
        <pt x="775" y="1539" on="1"/>
        <pt x="936" y="1539" on="0"/>
        <pt x="1181" y="1430" on="0"/>
        <pt x="1345" y="1230" on="0"/>
        <pt x="1428" y="948" on="0"/>
        <pt x="1428" y="775" on="1"/>
        <pt x="1428" y="626" on="0"/>
        <pt x="1356" y="375" on="0"/>
        <pt x="1227" y="179" on="0"/>
        <pt x="1047" y="43" on="0"/>
        <pt x="939" y="9" on="1"/>
        <pt x="970" y="-47" on="0"/>
        <pt x="1066" y="-115" on="0"/>
        <pt x="1182" y="-153" on="0"/>
        <pt x="1313" y="-165" on="0"/>
        <pt x="1380" y="-165" on="1"/>
        <pt x="1393" y="-165" on="1"/>
        <pt x="1426" y="-164" on="0"/>
        <pt x="1490" y="-154" on="0"/>
        <pt x="1507" y="-142" on="1"/>
        <pt x="1507" y="-329" on="1"/>
        <pt x="1491" y="-345" on="0"/>
        <pt x="1397" y="-376" on="0"/>
        <pt x="1322" y="-376" on="1"/>
        <pt x="1318" y="-376" on="1"/>
        <pt x="1229" y="-376" on="0"/>
        <pt x="1064" y="-328" on="0"/>
        <pt x="930" y="-236" on="0"/>
        <pt x="836" y="-103" on="0"/>
        <pt x="818" y="-17" on="1"/>
        <pt x="781" y="-21" on="0"/>
      </contour>
      <contour>
        <pt x="756" y="98" on="1"/>
        <pt x="852" y="98" on="0"/>
        <pt x="1006" y="180" on="0"/>
        <pt x="1116" y="348" on="0"/>
        <pt x="1175" y="602" on="0"/>
        <pt x="1175" y="774" on="1"/>
        <pt x="1175" y="920" on="0"/>
        <pt x="1119" y="1158" on="0"/>
        <pt x="1011" y="1326" on="0"/>
        <pt x="854" y="1418" on="0"/>
        <pt x="754" y="1418" on="1"/>
        <pt x="658" y="1418" on="0"/>
        <pt x="503" y="1338" on="0"/>
        <pt x="394" y="1173" on="0"/>
        <pt x="334" y="921" on="0"/>
        <pt x="334" y="749" on="1"/>
        <pt x="334" y="602" on="0"/>
        <pt x="391" y="362" on="0"/>
        <pt x="499" y="191" on="0"/>
        <pt x="656" y="98" on="0"/>
      </contour>
    </TTGlyph>
    <TTGlyph name="R" xMin="100" yMin="0" xMax="1436" yMax="1537">
      <contour>
        <pt x="100" y="110" on="1"/>
        <pt x="268" y="136" on="1"/>
        <pt x="268" y="1385" on="1"/>
        <pt x="112" y="1412" on="1"/>
        <pt x="112" y="1522" on="1"/>
        <pt x="384" y="1522" on="1"/>
        <pt x="424" y="1522" on="0"/>
        <pt x="500" y="1527" on="0"/>
        <pt x="575" y="1532" on="0"/>
        <pt x="651" y="1537" on="0"/>
        <pt x="693" y="1537" on="1"/>
        <pt x="844" y="1537" on="0"/>
        <pt x="1053" y="1486" on="0"/>
        <pt x="1182" y="1386" on="0"/>
        <pt x="1240" y="1236" on="0"/>
        <pt x="1240" y="1137" on="1"/>
        <pt x="1240" y="1068" on="0"/>
        <pt x="1200" y="935" on="0"/>
        <pt x="1125" y="820" on="0"/>
        <pt x="1015" y="732" on="0"/>
        <pt x="946" y="710" on="1"/>
        <pt x="987" y="684" on="0"/>
        <pt x="1064" y="583" on="0"/>
        <pt x="1138" y="460" on="0"/>
        <pt x="1206" y="330" on="0"/>
        <pt x="1270" y="219" on="0"/>
        <pt x="1328" y="143" on="0"/>
        <pt x="1355" y="137" on="1"/>
        <pt x="1436" y="110" on="1"/>
        <pt x="1436" y="0" on="1"/>
        <pt x="1148" y="0" on="1"/>
        <pt x="1128" y="0" on="0"/>
        <pt x="1084" y="50" on="0"/>
        <pt x="1036" y="133" on="0"/>
        <pt x="984" y="241" on="0"/>
        <pt x="930" y="358" on="0"/>
        <pt x="874" y="475" on="0"/>
        <pt x="817" y="576" on="0"/>
        <pt x="760" y="652" on="0"/>
        <pt x="731" y="669" on="1"/>
        <pt x="702" y="669" on="0"/>
        <pt x="631" y="669" on="0"/>
        <pt x="563" y="670" on="0"/>
        <pt x="508" y="671" on="0"/>
        <pt x="496" y="672" on="1"/>
        <pt x="496" y="135" on="1"/>
        <pt x="691" y="110" on="1"/>
        <pt x="691" y="0" on="1"/>
        <pt x="100" y="0" on="1"/>
      </contour>
      <contour>
        <pt x="496" y="789" on="1"/>
        <pt x="510" y="787" on="0"/>
        <pt x="570" y="786" on="0"/>
        <pt x="638" y="787" on="0"/>
        <pt x="701" y="788" on="0"/>
        <pt x="719" y="788" on="1"/>
        <pt x="848" y="788" on="0"/>
        <pt x="996" y="951" on="0"/>
        <pt x="996" y="1119" on="1"/>
        <pt x="996" y="1181" on="0"/>
        <pt x="966" y="1291" on="0"/>
        <pt x="891" y="1372" on="0"/>
        <pt x="763" y="1419" on="0"/>
        <pt x="665" y="1419" on="1"/>
        <pt x="626" y="1419" on="0"/>
        <pt x="571" y="1416" on="0"/>
        <pt x="533" y="1412" on="0"/>
        <pt x="506" y="1408" on="0"/>
        <pt x="496" y="1407" on="1"/>
      </contour>
    </TTGlyph>
    <TTGlyph name="Racute" xMin="100" yMin="0" xMax="1436" yMax="2014">
      <contour>
        <pt x="100" y="110" on="1"/>
        <pt x="268" y="136" on="1"/>
        <pt x="268" y="1385" on="1"/>
        <pt x="112" y="1412" on="1"/>
        <pt x="112" y="1522" on="1"/>
        <pt x="384" y="1522" on="1"/>
        <pt x="424" y="1522" on="0"/>
        <pt x="500" y="1527" on="0"/>
        <pt x="575" y="1532" on="0"/>
        <pt x="651" y="1537" on="0"/>
        <pt x="693" y="1537" on="1"/>
        <pt x="844" y="1537" on="0"/>
        <pt x="1053" y="1486" on="0"/>
        <pt x="1182" y="1386" on="0"/>
        <pt x="1240" y="1236" on="0"/>
        <pt x="1240" y="1137" on="1"/>
        <pt x="1240" y="1068" on="0"/>
        <pt x="1200" y="935" on="0"/>
        <pt x="1125" y="820" on="0"/>
        <pt x="1015" y="732" on="0"/>
        <pt x="946" y="710" on="1"/>
        <pt x="987" y="684" on="0"/>
        <pt x="1064" y="583" on="0"/>
        <pt x="1138" y="460" on="0"/>
        <pt x="1206" y="330" on="0"/>
        <pt x="1270" y="219" on="0"/>
        <pt x="1328" y="143" on="0"/>
        <pt x="1355" y="137" on="1"/>
        <pt x="1436" y="110" on="1"/>
        <pt x="1436" y="0" on="1"/>
        <pt x="1148" y="0" on="1"/>
        <pt x="1128" y="0" on="0"/>
        <pt x="1084" y="50" on="0"/>
        <pt x="1036" y="133" on="0"/>
        <pt x="984" y="241" on="0"/>
        <pt x="930" y="358" on="0"/>
        <pt x="874" y="475" on="0"/>
        <pt x="817" y="576" on="0"/>
        <pt x="760" y="652" on="0"/>
        <pt x="731" y="669" on="1"/>
        <pt x="702" y="669" on="0"/>
        <pt x="631" y="669" on="0"/>
        <pt x="563" y="670" on="0"/>
        <pt x="508" y="671" on="0"/>
        <pt x="496" y="672" on="1"/>
        <pt x="496" y="135" on="1"/>
        <pt x="691" y="110" on="1"/>
        <pt x="691" y="0" on="1"/>
        <pt x="100" y="0" on="1"/>
      </contour>
      <contour>
        <pt x="496" y="789" on="1"/>
        <pt x="510" y="787" on="0"/>
        <pt x="570" y="786" on="0"/>
        <pt x="638" y="787" on="0"/>
        <pt x="701" y="788" on="0"/>
        <pt x="719" y="788" on="1"/>
        <pt x="848" y="788" on="0"/>
        <pt x="996" y="951" on="0"/>
        <pt x="996" y="1119" on="1"/>
        <pt x="996" y="1181" on="0"/>
        <pt x="966" y="1291" on="0"/>
        <pt x="891" y="1372" on="0"/>
        <pt x="763" y="1419" on="0"/>
        <pt x="665" y="1419" on="1"/>
        <pt x="626" y="1419" on="0"/>
        <pt x="571" y="1416" on="0"/>
        <pt x="533" y="1412" on="0"/>
        <pt x="506" y="1408" on="0"/>
        <pt x="496" y="1407" on="1"/>
      </contour>
      <contour>
        <pt x="576" y="1701" on="1"/>
        <pt x="910" y="2014" on="1"/>
        <pt x="911" y="2014" on="1"/>
        <pt x="1063" y="1882" on="1"/>
        <pt x="1046" y="1858" on="0"/>
        <pt x="986" y="1806" on="0"/>
        <pt x="910" y="1755" on="0"/>
        <pt x="825" y="1707" on="0"/>
        <pt x="746" y="1668" on="0"/>
        <pt x="677" y="1639" on="0"/>
        <pt x="655" y="1633" on="1"/>
        <pt x="654" y="1633" on="1"/>
      </contour>
    </TTGlyph>
    <TTGlyph name="Rcaron" xMin="100" yMin="0" xMax="1436" yMax="2014">
      <contour>
        <pt x="380" y="1954" on="1"/>
        <pt x="473" y="2014" on="1"/>
        <pt x="723" y="1830" on="1"/>
        <pt x="981" y="2014" on="1"/>
        <pt x="1067" y="1957" on="1"/>
        <pt x="820" y="1679" on="1"/>
        <pt x="627" y="1679" on="1"/>
      </contour>
      <contour>
        <pt x="100" y="110" on="1"/>
        <pt x="268" y="136" on="1"/>
        <pt x="268" y="1385" on="1"/>
        <pt x="112" y="1412" on="1"/>
        <pt x="112" y="1522" on="1"/>
        <pt x="384" y="1522" on="1"/>
        <pt x="424" y="1522" on="0"/>
        <pt x="500" y="1527" on="0"/>
        <pt x="575" y="1532" on="0"/>
        <pt x="651" y="1537" on="0"/>
        <pt x="693" y="1537" on="1"/>
        <pt x="844" y="1537" on="0"/>
        <pt x="1053" y="1486" on="0"/>
        <pt x="1182" y="1386" on="0"/>
        <pt x="1240" y="1236" on="0"/>
        <pt x="1240" y="1137" on="1"/>
        <pt x="1240" y="1068" on="0"/>
        <pt x="1200" y="935" on="0"/>
        <pt x="1125" y="820" on="0"/>
        <pt x="1015" y="732" on="0"/>
        <pt x="946" y="710" on="1"/>
        <pt x="987" y="684" on="0"/>
        <pt x="1064" y="583" on="0"/>
        <pt x="1138" y="460" on="0"/>
        <pt x="1206" y="330" on="0"/>
        <pt x="1270" y="219" on="0"/>
        <pt x="1328" y="143" on="0"/>
        <pt x="1355" y="137" on="1"/>
        <pt x="1436" y="110" on="1"/>
        <pt x="1436" y="0" on="1"/>
        <pt x="1148" y="0" on="1"/>
        <pt x="1128" y="0" on="0"/>
        <pt x="1084" y="50" on="0"/>
        <pt x="1036" y="133" on="0"/>
        <pt x="984" y="241" on="0"/>
        <pt x="930" y="358" on="0"/>
        <pt x="874" y="475" on="0"/>
        <pt x="817" y="576" on="0"/>
        <pt x="760" y="652" on="0"/>
        <pt x="731" y="669" on="1"/>
        <pt x="702" y="669" on="0"/>
        <pt x="631" y="669" on="0"/>
        <pt x="563" y="670" on="0"/>
        <pt x="508" y="671" on="0"/>
        <pt x="496" y="672" on="1"/>
        <pt x="496" y="135" on="1"/>
        <pt x="691" y="110" on="1"/>
        <pt x="691" y="0" on="1"/>
        <pt x="100" y="0" on="1"/>
      </contour>
      <contour>
        <pt x="496" y="789" on="1"/>
        <pt x="510" y="787" on="0"/>
        <pt x="570" y="786" on="0"/>
        <pt x="638" y="787" on="0"/>
        <pt x="701" y="788" on="0"/>
        <pt x="719" y="788" on="1"/>
        <pt x="848" y="788" on="0"/>
        <pt x="996" y="951" on="0"/>
        <pt x="996" y="1119" on="1"/>
        <pt x="996" y="1181" on="0"/>
        <pt x="966" y="1291" on="0"/>
        <pt x="891" y="1372" on="0"/>
        <pt x="763" y="1419" on="0"/>
        <pt x="665" y="1419" on="1"/>
        <pt x="626" y="1419" on="0"/>
        <pt x="571" y="1416" on="0"/>
        <pt x="533" y="1412" on="0"/>
        <pt x="506" y="1408" on="0"/>
        <pt x="496" y="1407" on="1"/>
      </contour>
    </TTGlyph>
    <TTGlyph name="Rcommaaccent" xMin="100" yMin="-560" xMax="1436" yMax="1537">
      <contour>
        <pt x="655" y="-223" on="1"/>
        <pt x="655" y="-188" on="0"/>
        <pt x="680" y="-144" on="0"/>
        <pt x="716" y="-120" on="0"/>
        <pt x="754" y="-111" on="0"/>
        <pt x="768" y="-111" on="1"/>
        <pt x="779" y="-111" on="1"/>
        <pt x="846" y="-111" on="0"/>
        <pt x="924" y="-204" on="0"/>
        <pt x="924" y="-279" on="1"/>
        <pt x="924" y="-326" on="0"/>
        <pt x="900" y="-404" on="0"/>
        <pt x="863" y="-466" on="0"/>
        <pt x="819" y="-513" on="0"/>
        <pt x="781" y="-544" on="0"/>
        <pt x="755" y="-560" on="0"/>
        <pt x="754" y="-560" on="1"/>
        <pt x="752" y="-560" on="1"/>
        <pt x="686" y="-509" on="1"/>
        <pt x="686" y="-498" on="1"/>
        <pt x="701" y="-491" on="0"/>
        <pt x="723" y="-463" on="0"/>
        <pt x="738" y="-427" on="0"/>
        <pt x="746" y="-387" on="0"/>
        <pt x="746" y="-370" on="1"/>
        <pt x="746" y="-344" on="0"/>
        <pt x="719" y="-322" on="0"/>
        <pt x="702" y="-312" on="1"/>
        <pt x="684" y="-301" on="0"/>
        <pt x="655" y="-262" on="0"/>
      </contour>
      <contour>
        <pt x="100" y="110" on="1"/>
        <pt x="268" y="136" on="1"/>
        <pt x="268" y="1385" on="1"/>
        <pt x="112" y="1412" on="1"/>
        <pt x="112" y="1522" on="1"/>
        <pt x="384" y="1522" on="1"/>
        <pt x="424" y="1522" on="0"/>
        <pt x="500" y="1527" on="0"/>
        <pt x="575" y="1532" on="0"/>
        <pt x="651" y="1537" on="0"/>
        <pt x="693" y="1537" on="1"/>
        <pt x="844" y="1537" on="0"/>
        <pt x="1053" y="1486" on="0"/>
        <pt x="1182" y="1386" on="0"/>
        <pt x="1240" y="1236" on="0"/>
        <pt x="1240" y="1137" on="1"/>
        <pt x="1240" y="1068" on="0"/>
        <pt x="1200" y="935" on="0"/>
        <pt x="1125" y="820" on="0"/>
        <pt x="1015" y="732" on="0"/>
        <pt x="946" y="710" on="1"/>
        <pt x="987" y="684" on="0"/>
        <pt x="1064" y="583" on="0"/>
        <pt x="1138" y="460" on="0"/>
        <pt x="1206" y="330" on="0"/>
        <pt x="1270" y="219" on="0"/>
        <pt x="1328" y="143" on="0"/>
        <pt x="1355" y="137" on="1"/>
        <pt x="1436" y="110" on="1"/>
        <pt x="1436" y="0" on="1"/>
        <pt x="1148" y="0" on="1"/>
        <pt x="1128" y="0" on="0"/>
        <pt x="1084" y="50" on="0"/>
        <pt x="1036" y="133" on="0"/>
        <pt x="984" y="241" on="0"/>
        <pt x="930" y="358" on="0"/>
        <pt x="874" y="475" on="0"/>
        <pt x="817" y="576" on="0"/>
        <pt x="760" y="652" on="0"/>
        <pt x="731" y="669" on="1"/>
        <pt x="702" y="669" on="0"/>
        <pt x="631" y="669" on="0"/>
        <pt x="563" y="670" on="0"/>
        <pt x="508" y="671" on="0"/>
        <pt x="496" y="672" on="1"/>
        <pt x="496" y="135" on="1"/>
        <pt x="691" y="110" on="1"/>
        <pt x="691" y="0" on="1"/>
        <pt x="100" y="0" on="1"/>
      </contour>
      <contour>
        <pt x="496" y="789" on="1"/>
        <pt x="510" y="787" on="0"/>
        <pt x="570" y="786" on="0"/>
        <pt x="638" y="787" on="0"/>
        <pt x="701" y="788" on="0"/>
        <pt x="719" y="788" on="1"/>
        <pt x="848" y="788" on="0"/>
        <pt x="996" y="951" on="0"/>
        <pt x="996" y="1119" on="1"/>
        <pt x="996" y="1181" on="0"/>
        <pt x="966" y="1291" on="0"/>
        <pt x="891" y="1372" on="0"/>
        <pt x="763" y="1419" on="0"/>
        <pt x="665" y="1419" on="1"/>
        <pt x="626" y="1419" on="0"/>
        <pt x="571" y="1416" on="0"/>
        <pt x="533" y="1412" on="0"/>
        <pt x="506" y="1408" on="0"/>
        <pt x="496" y="1407" on="1"/>
      </contour>
    </TTGlyph>
    <TTGlyph name="S" xMin="126" yMin="-23" xMax="1133" yMax="1539">
      <contour>
        <pt x="143" y="439" on="1"/>
        <pt x="281" y="439" on="1"/>
        <pt x="323" y="191" on="1"/>
        <pt x="340" y="171" on="0"/>
        <pt x="396" y="138" on="0"/>
        <pt x="468" y="113" on="0"/>
        <pt x="552" y="99" on="0"/>
        <pt x="597" y="99" on="1"/>
        <pt x="748" y="99" on="0"/>
        <pt x="891" y="232" on="0"/>
        <pt x="891" y="348" on="1"/>
        <pt x="891" y="409" on="0"/>
        <pt x="844" y="501" on="0"/>
        <pt x="755" y="577" on="0"/>
        <pt x="629" y="644" on="0"/>
        <pt x="551" y="680" on="1"/>
        <pt x="510" y="698" on="0"/>
        <pt x="418" y="745" on="0"/>
        <pt x="328" y="805" on="0"/>
        <pt x="247" y="880" on="0"/>
        <pt x="185" y="972" on="0"/>
        <pt x="148" y="1082" on="0"/>
        <pt x="148" y="1149" on="1"/>
        <pt x="148" y="1235" on="0"/>
        <pt x="218" y="1378" on="0"/>
        <pt x="347" y="1482" on="0"/>
        <pt x="529" y="1539" on="0"/>
        <pt x="640" y="1539" on="1"/>
        <pt x="709" y="1539" on="0"/>
        <pt x="833" y="1519" on="0"/>
        <pt x="936" y="1493" on="0"/>
        <pt x="1014" y="1470" on="0"/>
        <pt x="1037" y="1466" on="1"/>
        <pt x="1024" y="1127" on="1"/>
        <pt x="891" y="1127" on="1"/>
        <pt x="842" y="1362" on="1"/>
        <pt x="833" y="1372" on="0"/>
        <pt x="792" y="1393" on="0"/>
        <pt x="737" y="1409" on="0"/>
        <pt x="669" y="1420" on="0"/>
        <pt x="633" y="1420" on="1"/>
        <pt x="497" y="1420" on="0"/>
        <pt x="369" y="1313" on="0"/>
        <pt x="369" y="1206" on="1"/>
        <pt x="369" y="1147" on="0"/>
        <pt x="414" y="1061" on="0"/>
        <pt x="500" y="987" on="0"/>
        <pt x="627" y="918" on="0"/>
        <pt x="710" y="877" on="1"/>
        <pt x="759" y="852" on="0"/>
        <pt x="860" y="799" on="0"/>
        <pt x="954" y="737" on="0"/>
        <pt x="1037" y="665" on="0"/>
        <pt x="1098" y="579" on="0"/>
        <pt x="1133" y="476" on="0"/>
        <pt x="1133" y="415" on="1"/>
        <pt x="1133" y="335" on="0"/>
        <pt x="1063" y="179" on="0"/>
        <pt x="927" y="54" on="0"/>
        <pt x="724" y="-23" on="0"/>
        <pt x="591" y="-23" on="1"/>
        <pt x="502" y="-23" on="0"/>
        <pt x="353" y="4" on="0"/>
        <pt x="235" y="38" on="0"/>
        <pt x="150" y="68" on="0"/>
        <pt x="126" y="70" on="1"/>
      </contour>
    </TTGlyph>
    <TTGlyph name="Sacute" xMin="126" yMin="-23" xMax="1133" yMax="2014">
      <contour>
        <pt x="143" y="439" on="1"/>
        <pt x="281" y="439" on="1"/>
        <pt x="323" y="191" on="1"/>
        <pt x="340" y="171" on="0"/>
        <pt x="396" y="138" on="0"/>
        <pt x="468" y="113" on="0"/>
        <pt x="552" y="99" on="0"/>
        <pt x="597" y="99" on="1"/>
        <pt x="748" y="99" on="0"/>
        <pt x="891" y="232" on="0"/>
        <pt x="891" y="348" on="1"/>
        <pt x="891" y="409" on="0"/>
        <pt x="844" y="501" on="0"/>
        <pt x="755" y="577" on="0"/>
        <pt x="629" y="644" on="0"/>
        <pt x="551" y="680" on="1"/>
        <pt x="510" y="698" on="0"/>
        <pt x="418" y="745" on="0"/>
        <pt x="328" y="805" on="0"/>
        <pt x="247" y="880" on="0"/>
        <pt x="185" y="972" on="0"/>
        <pt x="148" y="1082" on="0"/>
        <pt x="148" y="1149" on="1"/>
        <pt x="148" y="1235" on="0"/>
        <pt x="218" y="1378" on="0"/>
        <pt x="347" y="1482" on="0"/>
        <pt x="529" y="1539" on="0"/>
        <pt x="640" y="1539" on="1"/>
        <pt x="709" y="1539" on="0"/>
        <pt x="833" y="1519" on="0"/>
        <pt x="936" y="1493" on="0"/>
        <pt x="1014" y="1470" on="0"/>
        <pt x="1037" y="1466" on="1"/>
        <pt x="1024" y="1127" on="1"/>
        <pt x="891" y="1127" on="1"/>
        <pt x="842" y="1362" on="1"/>
        <pt x="833" y="1372" on="0"/>
        <pt x="792" y="1393" on="0"/>
        <pt x="737" y="1409" on="0"/>
        <pt x="669" y="1420" on="0"/>
        <pt x="633" y="1420" on="1"/>
        <pt x="497" y="1420" on="0"/>
        <pt x="369" y="1313" on="0"/>
        <pt x="369" y="1206" on="1"/>
        <pt x="369" y="1147" on="0"/>
        <pt x="414" y="1061" on="0"/>
        <pt x="500" y="987" on="0"/>
        <pt x="627" y="918" on="0"/>
        <pt x="710" y="877" on="1"/>
        <pt x="759" y="852" on="0"/>
        <pt x="860" y="799" on="0"/>
        <pt x="954" y="737" on="0"/>
        <pt x="1037" y="665" on="0"/>
        <pt x="1098" y="579" on="0"/>
        <pt x="1133" y="476" on="0"/>
        <pt x="1133" y="415" on="1"/>
        <pt x="1133" y="335" on="0"/>
        <pt x="1063" y="179" on="0"/>
        <pt x="927" y="54" on="0"/>
        <pt x="724" y="-23" on="0"/>
        <pt x="591" y="-23" on="1"/>
        <pt x="502" y="-23" on="0"/>
        <pt x="353" y="4" on="0"/>
        <pt x="235" y="38" on="0"/>
        <pt x="150" y="68" on="0"/>
        <pt x="126" y="70" on="1"/>
      </contour>
      <contour>
        <pt x="507" y="1701" on="1"/>
        <pt x="841" y="2014" on="1"/>
        <pt x="842" y="2014" on="1"/>
        <pt x="994" y="1882" on="1"/>
        <pt x="977" y="1858" on="0"/>
        <pt x="917" y="1806" on="0"/>
        <pt x="841" y="1755" on="0"/>
        <pt x="756" y="1707" on="0"/>
        <pt x="677" y="1668" on="0"/>
        <pt x="608" y="1639" on="0"/>
        <pt x="586" y="1633" on="1"/>
        <pt x="585" y="1633" on="1"/>
      </contour>
    </TTGlyph>
    <TTGlyph name="Scaron" xMin="126" yMin="-23" xMax="1133" yMax="2014">
      <contour>
        <pt x="143" y="439" on="1"/>
        <pt x="281" y="439" on="1"/>
        <pt x="323" y="191" on="1"/>
        <pt x="340" y="171" on="0"/>
        <pt x="396" y="138" on="0"/>
        <pt x="468" y="113" on="0"/>
        <pt x="552" y="99" on="0"/>
        <pt x="597" y="99" on="1"/>
        <pt x="748" y="99" on="0"/>
        <pt x="891" y="232" on="0"/>
        <pt x="891" y="348" on="1"/>
        <pt x="891" y="409" on="0"/>
        <pt x="844" y="501" on="0"/>
        <pt x="755" y="577" on="0"/>
        <pt x="629" y="644" on="0"/>
        <pt x="551" y="680" on="1"/>
        <pt x="510" y="698" on="0"/>
        <pt x="418" y="745" on="0"/>
        <pt x="328" y="805" on="0"/>
        <pt x="247" y="880" on="0"/>
        <pt x="185" y="972" on="0"/>
        <pt x="148" y="1082" on="0"/>
        <pt x="148" y="1149" on="1"/>
        <pt x="148" y="1235" on="0"/>
        <pt x="218" y="1378" on="0"/>
        <pt x="347" y="1482" on="0"/>
        <pt x="529" y="1539" on="0"/>
        <pt x="640" y="1539" on="1"/>
        <pt x="709" y="1539" on="0"/>
        <pt x="833" y="1519" on="0"/>
        <pt x="936" y="1493" on="0"/>
        <pt x="1014" y="1470" on="0"/>
        <pt x="1037" y="1466" on="1"/>
        <pt x="1024" y="1127" on="1"/>
        <pt x="891" y="1127" on="1"/>
        <pt x="842" y="1362" on="1"/>
        <pt x="833" y="1372" on="0"/>
        <pt x="792" y="1393" on="0"/>
        <pt x="737" y="1409" on="0"/>
        <pt x="669" y="1420" on="0"/>
        <pt x="633" y="1420" on="1"/>
        <pt x="497" y="1420" on="0"/>
        <pt x="369" y="1313" on="0"/>
        <pt x="369" y="1206" on="1"/>
        <pt x="369" y="1147" on="0"/>
        <pt x="414" y="1061" on="0"/>
        <pt x="500" y="987" on="0"/>
        <pt x="627" y="918" on="0"/>
        <pt x="710" y="877" on="1"/>
        <pt x="759" y="852" on="0"/>
        <pt x="860" y="799" on="0"/>
        <pt x="954" y="737" on="0"/>
        <pt x="1037" y="665" on="0"/>
        <pt x="1098" y="579" on="0"/>
        <pt x="1133" y="476" on="0"/>
        <pt x="1133" y="415" on="1"/>
        <pt x="1133" y="335" on="0"/>
        <pt x="1063" y="179" on="0"/>
        <pt x="927" y="54" on="0"/>
        <pt x="724" y="-23" on="0"/>
        <pt x="591" y="-23" on="1"/>
        <pt x="502" y="-23" on="0"/>
        <pt x="353" y="4" on="0"/>
        <pt x="235" y="38" on="0"/>
        <pt x="150" y="68" on="0"/>
        <pt x="126" y="70" on="1"/>
      </contour>
      <contour>
        <pt x="307" y="1954" on="1"/>
        <pt x="400" y="2014" on="1"/>
        <pt x="650" y="1830" on="1"/>
        <pt x="908" y="2014" on="1"/>
        <pt x="994" y="1957" on="1"/>
        <pt x="747" y="1679" on="1"/>
        <pt x="554" y="1679" on="1"/>
      </contour>
    </TTGlyph>
    <TTGlyph name="Scedilla" xMin="126" yMin="-490" xMax="1133" yMax="1539">
      <contour>
        <pt x="143" y="439" on="1"/>
        <pt x="281" y="439" on="1"/>
        <pt x="323" y="191" on="1"/>
        <pt x="340" y="171" on="0"/>
        <pt x="396" y="138" on="0"/>
        <pt x="468" y="113" on="0"/>
        <pt x="552" y="99" on="0"/>
        <pt x="597" y="99" on="1"/>
        <pt x="748" y="99" on="0"/>
        <pt x="891" y="232" on="0"/>
        <pt x="891" y="348" on="1"/>
        <pt x="891" y="409" on="0"/>
        <pt x="844" y="501" on="0"/>
        <pt x="755" y="577" on="0"/>
        <pt x="629" y="644" on="0"/>
        <pt x="551" y="680" on="1"/>
        <pt x="510" y="698" on="0"/>
        <pt x="418" y="745" on="0"/>
        <pt x="328" y="805" on="0"/>
        <pt x="247" y="880" on="0"/>
        <pt x="185" y="972" on="0"/>
        <pt x="148" y="1082" on="0"/>
        <pt x="148" y="1149" on="1"/>
        <pt x="148" y="1235" on="0"/>
        <pt x="218" y="1378" on="0"/>
        <pt x="347" y="1482" on="0"/>
        <pt x="529" y="1539" on="0"/>
        <pt x="640" y="1539" on="1"/>
        <pt x="709" y="1539" on="0"/>
        <pt x="833" y="1519" on="0"/>
        <pt x="936" y="1493" on="0"/>
        <pt x="1014" y="1470" on="0"/>
        <pt x="1037" y="1466" on="1"/>
        <pt x="1024" y="1127" on="1"/>
        <pt x="891" y="1127" on="1"/>
        <pt x="842" y="1362" on="1"/>
        <pt x="833" y="1372" on="0"/>
        <pt x="792" y="1393" on="0"/>
        <pt x="737" y="1409" on="0"/>
        <pt x="669" y="1420" on="0"/>
        <pt x="633" y="1420" on="1"/>
        <pt x="497" y="1420" on="0"/>
        <pt x="369" y="1313" on="0"/>
        <pt x="369" y="1206" on="1"/>
        <pt x="369" y="1147" on="0"/>
        <pt x="414" y="1061" on="0"/>
        <pt x="500" y="987" on="0"/>
        <pt x="627" y="918" on="0"/>
        <pt x="710" y="877" on="1"/>
        <pt x="759" y="852" on="0"/>
        <pt x="860" y="799" on="0"/>
        <pt x="954" y="737" on="0"/>
        <pt x="1037" y="665" on="0"/>
        <pt x="1098" y="579" on="0"/>
        <pt x="1133" y="476" on="0"/>
        <pt x="1133" y="415" on="1"/>
        <pt x="1133" y="342" on="0"/>
        <pt x="1074" y="197" on="0"/>
        <pt x="959" y="77" on="0"/>
        <pt x="787" y="-6" on="0"/>
        <pt x="675" y="-18" on="1"/>
        <pt x="693" y="-38" on="0"/>
        <pt x="733" y="-98" on="0"/>
        <pt x="767" y="-171" on="0"/>
        <pt x="788" y="-252" on="0"/>
        <pt x="786" y="-294" on="1"/>
        <pt x="783" y="-349" on="0"/>
        <pt x="747" y="-424" on="0"/>
        <pt x="681" y="-470" on="0"/>
        <pt x="588" y="-490" on="0"/>
        <pt x="528" y="-490" on="1"/>
        <pt x="527" y="-490" on="1"/>
        <pt x="510" y="-490" on="0"/>
        <pt x="470" y="-486" on="0"/>
        <pt x="431" y="-479" on="0"/>
        <pt x="396" y="-469" on="0"/>
        <pt x="383" y="-463" on="1"/>
        <pt x="384" y="-308" on="1"/>
        <pt x="405" y="-315" on="0"/>
        <pt x="455" y="-321" on="0"/>
        <pt x="466" y="-321" on="1"/>
        <pt x="467" y="-321" on="1"/>
        <pt x="500" y="-321" on="0"/>
        <pt x="551" y="-313" on="0"/>
        <pt x="586" y="-285" on="0"/>
        <pt x="603" y="-229" on="0"/>
        <pt x="603" y="-182" on="1"/>
        <pt x="603" y="-161" on="0"/>
        <pt x="595" y="-117" on="0"/>
        <pt x="582" y="-75" on="0"/>
        <pt x="566" y="-37" on="0"/>
        <pt x="559" y="-22" on="1"/>
        <pt x="476" y="-19" on="0"/>
        <pt x="338" y="8" on="0"/>
        <pt x="228" y="40" on="0"/>
        <pt x="149" y="68" on="0"/>
        <pt x="126" y="70" on="1"/>
      </contour>
    </TTGlyph>
    <TTGlyph name="Scircumflex" xMin="126" yMin="-23" xMax="1133" yMax="2014">
      <contour>
        <pt x="143" y="439" on="1"/>
        <pt x="281" y="439" on="1"/>
        <pt x="323" y="191" on="1"/>
        <pt x="340" y="171" on="0"/>
        <pt x="396" y="138" on="0"/>
        <pt x="468" y="113" on="0"/>
        <pt x="552" y="99" on="0"/>
        <pt x="597" y="99" on="1"/>
        <pt x="748" y="99" on="0"/>
        <pt x="891" y="232" on="0"/>
        <pt x="891" y="348" on="1"/>
        <pt x="891" y="409" on="0"/>
        <pt x="844" y="501" on="0"/>
        <pt x="755" y="577" on="0"/>
        <pt x="629" y="644" on="0"/>
        <pt x="551" y="680" on="1"/>
        <pt x="510" y="698" on="0"/>
        <pt x="418" y="745" on="0"/>
        <pt x="328" y="805" on="0"/>
        <pt x="247" y="880" on="0"/>
        <pt x="185" y="972" on="0"/>
        <pt x="148" y="1082" on="0"/>
        <pt x="148" y="1149" on="1"/>
        <pt x="148" y="1235" on="0"/>
        <pt x="218" y="1378" on="0"/>
        <pt x="347" y="1482" on="0"/>
        <pt x="529" y="1539" on="0"/>
        <pt x="640" y="1539" on="1"/>
        <pt x="709" y="1539" on="0"/>
        <pt x="833" y="1519" on="0"/>
        <pt x="936" y="1493" on="0"/>
        <pt x="1014" y="1470" on="0"/>
        <pt x="1037" y="1466" on="1"/>
        <pt x="1024" y="1127" on="1"/>
        <pt x="891" y="1127" on="1"/>
        <pt x="842" y="1362" on="1"/>
        <pt x="833" y="1372" on="0"/>
        <pt x="792" y="1393" on="0"/>
        <pt x="737" y="1409" on="0"/>
        <pt x="669" y="1420" on="0"/>
        <pt x="633" y="1420" on="1"/>
        <pt x="497" y="1420" on="0"/>
        <pt x="369" y="1313" on="0"/>
        <pt x="369" y="1206" on="1"/>
        <pt x="369" y="1147" on="0"/>
        <pt x="414" y="1061" on="0"/>
        <pt x="500" y="987" on="0"/>
        <pt x="627" y="918" on="0"/>
        <pt x="710" y="877" on="1"/>
        <pt x="759" y="852" on="0"/>
        <pt x="860" y="799" on="0"/>
        <pt x="954" y="737" on="0"/>
        <pt x="1037" y="665" on="0"/>
        <pt x="1098" y="579" on="0"/>
        <pt x="1133" y="476" on="0"/>
        <pt x="1133" y="415" on="1"/>
        <pt x="1133" y="335" on="0"/>
        <pt x="1063" y="179" on="0"/>
        <pt x="927" y="54" on="0"/>
        <pt x="724" y="-23" on="0"/>
        <pt x="591" y="-23" on="1"/>
        <pt x="502" y="-23" on="0"/>
        <pt x="353" y="4" on="0"/>
        <pt x="235" y="38" on="0"/>
        <pt x="150" y="68" on="0"/>
        <pt x="126" y="70" on="1"/>
      </contour>
      <contour>
        <pt x="286" y="1712" on="1"/>
        <pt x="551" y="2014" on="1"/>
        <pt x="743" y="2014" on="1"/>
        <pt x="1010" y="1714" on="1"/>
        <pt x="917" y="1655" on="1"/>
        <pt x="647" y="1853" on="1"/>
        <pt x="372" y="1655" on="1"/>
      </contour>
    </TTGlyph>
    <TTGlyph name="T" xMin="32" yMin="0" xMax="1358" yMax="1522">
      <contour>
        <pt x="324" y="110" on="1"/>
        <pt x="581" y="138" on="1"/>
        <pt x="581" y="1402" on="1"/>
        <pt x="251" y="1392" on="1"/>
        <pt x="177" y="987" on="1"/>
        <pt x="32" y="987" on="1"/>
        <pt x="65" y="1522" on="1"/>
        <pt x="1333" y="1522" on="1"/>
        <pt x="1358" y="987" on="1"/>
        <pt x="1213" y="987" on="1"/>
        <pt x="1146" y="1392" on="1"/>
        <pt x="817" y="1402" on="1"/>
        <pt x="817" y="138" on="1"/>
        <pt x="1094" y="110" on="1"/>
        <pt x="1094" y="0" on="1"/>
        <pt x="324" y="0" on="1"/>
      </contour>
    </TTGlyph>
    <TTGlyph name="Tbar" xMin="54" yMin="0" xMax="1380" yMax="1522">
      <contour>
        <pt x="346" y="110" on="1"/>
        <pt x="603" y="138" on="1"/>
        <pt x="603" y="668" on="1"/>
        <pt x="368" y="668" on="1"/>
        <pt x="368" y="791" on="1"/>
        <pt x="603" y="791" on="1"/>
        <pt x="603" y="1402" on="1"/>
        <pt x="273" y="1392" on="1"/>
        <pt x="199" y="987" on="1"/>
        <pt x="54" y="987" on="1"/>
        <pt x="87" y="1522" on="1"/>
        <pt x="1355" y="1522" on="1"/>
        <pt x="1380" y="987" on="1"/>
        <pt x="1235" y="987" on="1"/>
        <pt x="1168" y="1392" on="1"/>
        <pt x="839" y="1402" on="1"/>
        <pt x="839" y="791" on="1"/>
        <pt x="1070" y="791" on="1"/>
        <pt x="1070" y="668" on="1"/>
        <pt x="839" y="668" on="1"/>
        <pt x="839" y="138" on="1"/>
        <pt x="1116" y="110" on="1"/>
        <pt x="1116" y="0" on="1"/>
        <pt x="346" y="0" on="1"/>
      </contour>
    </TTGlyph>
    <TTGlyph name="Tcaron" xMin="32" yMin="0" xMax="1358" yMax="2014">
      <contour>
        <pt x="374" y="1954" on="1"/>
        <pt x="467" y="2014" on="1"/>
        <pt x="717" y="1830" on="1"/>
        <pt x="975" y="2014" on="1"/>
        <pt x="1061" y="1957" on="1"/>
        <pt x="814" y="1679" on="1"/>
        <pt x="621" y="1679" on="1"/>
      </contour>
      <contour>
        <pt x="324" y="110" on="1"/>
        <pt x="581" y="138" on="1"/>
        <pt x="581" y="1402" on="1"/>
        <pt x="251" y="1392" on="1"/>
        <pt x="177" y="987" on="1"/>
        <pt x="32" y="987" on="1"/>
        <pt x="65" y="1522" on="1"/>
        <pt x="1333" y="1522" on="1"/>
        <pt x="1358" y="987" on="1"/>
        <pt x="1213" y="987" on="1"/>
        <pt x="1146" y="1392" on="1"/>
        <pt x="817" y="1402" on="1"/>
        <pt x="817" y="138" on="1"/>
        <pt x="1094" y="110" on="1"/>
        <pt x="1094" y="0" on="1"/>
        <pt x="324" y="0" on="1"/>
      </contour>
    </TTGlyph>
    <TTGlyph name="Thorn" xMin="100" yMin="0" xMax="1265" yMax="1522">
      <contour>
        <pt x="100" y="107" on="1"/>
        <pt x="268" y="134" on="1"/>
        <pt x="268" y="1388" on="1"/>
        <pt x="104" y="1416" on="1"/>
        <pt x="104" y="1522" on="1"/>
        <pt x="665" y="1522" on="1"/>
        <pt x="665" y="1416" on="1"/>
        <pt x="493" y="1388" on="1"/>
        <pt x="493" y="1159" on="1"/>
        <pt x="567" y="1165" on="0"/>
        <pt x="713" y="1178" on="0"/>
        <pt x="801" y="1178" on="1"/>
        <pt x="911" y="1178" on="0"/>
        <pt x="1084" y="1128" on="0"/>
        <pt x="1203" y="1029" on="0"/>
        <pt x="1265" y="881" on="0"/>
        <pt x="1265" y="782" on="1"/>
        <pt x="1265" y="666" on="0"/>
        <pt x="1192" y="499" on="0"/>
        <pt x="1054" y="391" on="0"/>
        <pt x="857" y="340" on="0"/>
        <pt x="733" y="340" on="1"/>
        <pt x="688" y="340" on="0"/>
        <pt x="619" y="341" on="0"/>
        <pt x="563" y="342" on="0"/>
        <pt x="515" y="345" on="0"/>
        <pt x="493" y="347" on="1"/>
        <pt x="493" y="134" on="1"/>
        <pt x="710" y="107" on="1"/>
        <pt x="710" y="0" on="1"/>
        <pt x="100" y="0" on="1"/>
      </contour>
      <contour>
        <pt x="493" y="465" on="1"/>
        <pt x="559" y="457" on="0"/>
        <pt x="666" y="456" on="0"/>
        <pt x="719" y="456" on="1"/>
        <pt x="782" y="456" on="0"/>
        <pt x="890" y="485" on="0"/>
        <pt x="970" y="556" on="0"/>
        <pt x="1016" y="677" on="0"/>
        <pt x="1016" y="769" on="1"/>
        <pt x="1016" y="835" on="0"/>
        <pt x="982" y="943" on="0"/>
        <pt x="904" y="1018" on="0"/>
        <pt x="777" y="1056" on="0"/>
        <pt x="684" y="1053" on="1"/>
        <pt x="626" y="1051" on="0"/>
        <pt x="531" y="1041" on="0"/>
        <pt x="493" y="1036" on="1"/>
      </contour>
    </TTGlyph>
    <TTGlyph name="U" xMin="50" yMin="-16" xMax="1480" yMax="1522">
      <contour>
        <pt x="196" y="1384" on="1"/>
        <pt x="50" y="1412" on="1"/>
        <pt x="50" y="1522" on="1"/>
        <pt x="595" y="1522" on="1"/>
        <pt x="595" y="1412" on="1"/>
        <pt x="431" y="1385" on="1"/>
        <pt x="431" y="624" on="1"/>
        <pt x="431" y="474" on="0"/>
        <pt x="488" y="274" on="0"/>
        <pt x="588" y="154" on="0"/>
        <pt x="725" y="105" on="0"/>
        <pt x="805" y="105" on="1"/>
        <pt x="982" y="105" on="0"/>
        <pt x="1167" y="363" on="0"/>
        <pt x="1167" y="612" on="1"/>
        <pt x="1167" y="1384" on="1"/>
        <pt x="1008" y="1412" on="1"/>
        <pt x="1008" y="1522" on="1"/>
        <pt x="1480" y="1522" on="1"/>
        <pt x="1480" y="1412" on="1"/>
        <pt x="1333" y="1385" on="1"/>
        <pt x="1333" y="620" on="1"/>
        <pt x="1333" y="454" on="0"/>
        <pt x="1248" y="214" on="0"/>
        <pt x="1101" y="58" on="0"/>
        <pt x="900" y="-16" on="0"/>
        <pt x="785" y="-16" on="1"/>
        <pt x="630" y="-16" on="0"/>
        <pt x="408" y="64" on="0"/>
        <pt x="264" y="228" on="0"/>
        <pt x="196" y="477" on="0"/>
        <pt x="196" y="646" on="1"/>
      </contour>
    </TTGlyph>
</ttFont>
